M48
; DRILL file KiCad 10.0.1 date 2026-06-23T13:56:18
; FORMAT={-:-/ absolute / metric / decimal}
; #@! TF.CreationDate,2026-06-23T13:56:18+05:30
; #@! TF.GenerationSoftware,Kicad,Pcbnew,10.0.1
; #@! TF.FileFunction,NonPlated,1,2,NPTH
FMAT,2
METRIC
; #@! TA.AperFunction,NonPlated,NPTH,ComponentDrill
T1C1.700
; #@! TA.AperFunction,NonPlated,NPTH,ComponentDrill
T2C1.850
; #@! TA.AperFunction,NonPlated,NPTH,ComponentDrill
T3C2.200
; #@! TA.AperFunction,NonPlated,NPTH,ComponentDrill
T4C4.000
%
G90
G05
T1
X48.76Y-138.241
X48.885Y-99.056
X48.885Y-118.466
X49.01Y-79.556
X58.92Y-138.241
X59.045Y-99.056
X59.045Y-118.466
X59.17Y-79.556
X68.215Y-138.196
X68.34Y-99.011
X68.34Y-118.421
X68.465Y-79.511
X78.375Y-138.196
X78.5Y-99.011
X78.5Y-118.421
X78.625Y-79.511
X87.71Y-138.401
X87.835Y-118.806
X87.96Y-99.121
X88.085Y-59.936
X88.085Y-79.346
X88.21Y-40.436
X97.87Y-138.401
X97.995Y-118.806
X98.12Y-99.121
X98.245Y-59.936
X98.245Y-79.346
X98.37Y-40.436
X107.735Y-99.121
X107.86Y-59.936
X107.86Y-79.346
X107.985Y-40.436
X108.8Y-159.071
X108.925Y-139.476
X117.895Y-99.121
X118.02Y-59.936
X118.02Y-79.346
X118.145Y-40.436
X118.96Y-159.071
X119.085Y-139.476
X128.255Y-159.026
X128.38Y-139.431
X138.415Y-159.026
X138.54Y-139.431
X168.725Y-138.149
X168.885Y-157.649
X178.885Y-138.149
X179.045Y-157.649
X188.385Y-138.149
X188.615Y-157.689
X188.805Y-99.369
X188.885Y-40.234
X188.885Y-59.869
X188.885Y-79.594
X198.545Y-138.149
X198.775Y-157.689
X198.965Y-99.369
X199.045Y-40.234
X199.045Y-59.869
X199.045Y-79.594
X208.28Y-118.554
X208.28Y-137.649
X208.36Y-99.369
X208.44Y-40.234
X208.44Y-59.869
X208.44Y-79.594
X218.44Y-118.554
X218.44Y-137.649
X218.52Y-99.369
X218.6Y-40.234
X218.6Y-59.869
X218.6Y-79.594
X228.185Y-138.729
X228.265Y-79.594
X228.265Y-99.229
X228.265Y-118.954
X238.345Y-138.729
X238.425Y-79.594
X238.425Y-99.229
X238.425Y-118.954
X247.96Y-138.729
X248.04Y-79.594
X248.04Y-99.229
X248.04Y-118.954
X258.12Y-138.729
X258.2Y-79.594
X258.2Y-99.229
X258.2Y-118.954
T2
X135.97Y-57.156
X140.82Y-57.156
X166.65Y-56.329
X171.5Y-56.329
T3
X135.67Y-54.126
X141.12Y-54.126
X166.35Y-53.299
X171.8Y-53.299
T4
X53.84Y-138.241
X53.965Y-99.056
X53.965Y-118.466
X54.09Y-79.556
X73.295Y-138.196
X73.42Y-99.011
X73.42Y-118.421
X73.545Y-79.511
X92.79Y-138.401
X92.915Y-118.806
X93.04Y-99.121
X93.165Y-59.936
X93.165Y-79.346
X93.29Y-40.436
X112.815Y-99.121
X112.94Y-59.936
X112.94Y-79.346
X113.065Y-40.436
X113.88Y-159.071
X114.005Y-139.476
X133.335Y-159.026
X133.46Y-139.431
X173.805Y-138.149
X173.965Y-157.649
X193.465Y-138.149
X193.695Y-157.689
X193.885Y-99.369
X193.965Y-40.234
X193.965Y-59.869
X193.965Y-79.594
X213.36Y-118.554
X213.36Y-137.649
X213.44Y-99.369
X213.52Y-40.234
X213.52Y-59.869
X213.52Y-79.594
X233.265Y-138.729
X233.345Y-79.594
X233.345Y-99.229
X233.345Y-118.954
X253.04Y-138.729
X253.12Y-79.594
X253.12Y-99.229
X253.12Y-118.954
M30
