%TF.GenerationSoftware,KiCad,Pcbnew,10.0.1*%
%TF.CreationDate,2026-06-23T13:56:20+05:30*%
%TF.ProjectId,split-keyboard-kicad,73706c69-742d-46b6-9579-626f6172642d,rev?*%
%TF.SameCoordinates,Original*%
%TF.FileFunction,Soldermask,Bot*%
%TF.FilePolarity,Negative*%
%FSLAX46Y46*%
G04 Gerber Fmt 4.6, Leading zero omitted, Abs format (unit mm)*
G04 Created by KiCad (PCBNEW 10.0.1) date 2026-06-23 13:56:20*
%MOMM*%
%LPD*%
G01*
G04 APERTURE LIST*
G04 Aperture macros list*
%AMRoundRect*
0 Rectangle with rounded corners*
0 $1 Rounding radius*
0 $2 $3 $4 $5 $6 $7 $8 $9 X,Y pos of 4 corners*
0 Add a 4 corners polygon primitive as box body*
4,1,4,$2,$3,$4,$5,$6,$7,$8,$9,$2,$3,0*
0 Add four circle primitives for the rounded corners*
1,1,$1+$1,$2,$3*
1,1,$1+$1,$4,$5*
1,1,$1+$1,$6,$7*
1,1,$1+$1,$8,$9*
0 Add four rect primitives between the rounded corners*
20,1,$1+$1,$2,$3,$4,$5,0*
20,1,$1+$1,$4,$5,$6,$7,0*
20,1,$1+$1,$6,$7,$8,$9,0*
20,1,$1+$1,$8,$9,$2,$3,0*%
%AMFreePoly0*
4,1,37,0.603843,0.796157,0.639018,0.796157,0.711114,0.766294,0.766294,0.711114,0.796157,0.639018,0.796157,0.603843,0.800000,0.600000,0.800000,-0.600000,0.796157,-0.603843,0.796157,-0.639018,0.766294,-0.711114,0.711114,-0.766294,0.639018,-0.796157,0.603843,-0.796157,0.600000,-0.800000,0.000000,-0.800000,0.000000,-0.796148,-0.078414,-0.796148,-0.232228,-0.765552,-0.377117,-0.705537,
-0.507515,-0.618408,-0.618408,-0.507515,-0.705537,-0.377117,-0.765552,-0.232228,-0.796148,-0.078414,-0.796148,0.078414,-0.765552,0.232228,-0.705537,0.377117,-0.618408,0.507515,-0.507515,0.618408,-0.377117,0.705537,-0.232228,0.765552,-0.078414,0.796148,0.000000,0.796148,0.000000,0.800000,0.600000,0.800000,0.603843,0.796157,0.603843,0.796157,$1*%
%AMFreePoly1*
4,1,37,0.000000,0.796148,0.078414,0.796148,0.232228,0.765552,0.377117,0.705537,0.507515,0.618408,0.618408,0.507515,0.705537,0.377117,0.765552,0.232228,0.796148,0.078414,0.796148,-0.078414,0.765552,-0.232228,0.705537,-0.377117,0.618408,-0.507515,0.507515,-0.618408,0.377117,-0.705537,0.232228,-0.765552,0.078414,-0.796148,0.000000,-0.796148,0.000000,-0.800000,-0.600000,-0.800000,
-0.603843,-0.796157,-0.639018,-0.796157,-0.711114,-0.766294,-0.766294,-0.711114,-0.796157,-0.639018,-0.796157,-0.603843,-0.800000,-0.600000,-0.800000,0.600000,-0.796157,0.603843,-0.796157,0.639018,-0.766294,0.711114,-0.711114,0.766294,-0.639018,0.796157,-0.603843,0.796157,-0.600000,0.800000,0.000000,0.800000,0.000000,0.796148,0.000000,0.796148,$1*%
G04 Aperture macros list end*
%ADD10C,1.700000*%
%ADD11C,4.000000*%
%ADD12C,2.200000*%
%ADD13RoundRect,0.250000X-0.550000X-0.550000X0.550000X-0.550000X0.550000X0.550000X-0.550000X0.550000X0*%
%ADD14C,1.600000*%
%ADD15R,2.000000X2.000000*%
%ADD16C,2.000000*%
%ADD17R,3.200000X2.000000*%
%ADD18C,1.850000*%
%ADD19RoundRect,0.200000X-0.600000X-0.600000X0.600000X-0.600000X0.600000X0.600000X-0.600000X0.600000X0*%
%ADD20FreePoly0,0.000000*%
%ADD21FreePoly1,0.000000*%
%ADD22RoundRect,0.102000X-0.754000X-0.754000X0.754000X-0.754000X0.754000X0.754000X-0.754000X0.754000X0*%
%ADD23C,1.712000*%
%ADD24C,3.204000*%
G04 APERTURE END LIST*
D10*
%TO.C,SW24*%
X48885000Y-99056400D03*
D11*
X53965000Y-99056400D03*
D10*
X59045000Y-99056400D03*
D12*
X56505000Y-93976400D03*
X50155000Y-96516400D03*
%TD*%
D13*
%TO.C,D2*%
X209264700Y-156148700D03*
D14*
X216884700Y-156148700D03*
%TD*%
D13*
%TO.C,D22*%
X246074700Y-169648700D03*
D14*
X253694700Y-169648700D03*
%TD*%
D13*
%TO.C,D17*%
X230804700Y-152598700D03*
D14*
X238424700Y-152598700D03*
%TD*%
D10*
%TO.C,SW23*%
X49010000Y-79556400D03*
D11*
X54090000Y-79556400D03*
D10*
X59170000Y-79556400D03*
D12*
X56630000Y-74476400D03*
X50280000Y-77016400D03*
%TD*%
D13*
%TO.C,D34*%
X56505000Y-164926400D03*
D14*
X64125000Y-164926400D03*
%TD*%
D13*
%TO.C,D26*%
X45735000Y-164926400D03*
D14*
X53355000Y-164926400D03*
%TD*%
D13*
%TO.C,D20*%
X230804700Y-163248700D03*
D14*
X238424700Y-163248700D03*
%TD*%
D13*
%TO.C,D36*%
X93275000Y-154426400D03*
D14*
X100895000Y-154426400D03*
%TD*%
D13*
%TO.C,D12*%
X220034700Y-163248700D03*
D14*
X227654700Y-163248700D03*
%TD*%
D13*
%TO.C,D30*%
X82505000Y-161526400D03*
D14*
X90125000Y-161526400D03*
%TD*%
D10*
%TO.C,SW43*%
X107860000Y-79346400D03*
D11*
X112940000Y-79346400D03*
D10*
X118020000Y-79346400D03*
D12*
X115480000Y-74266400D03*
X109130000Y-76806400D03*
%TD*%
D13*
%TO.C,D9*%
X220034700Y-152598700D03*
D14*
X227654700Y-152598700D03*
%TD*%
D13*
%TO.C,D14*%
X256884700Y-156198700D03*
D14*
X264504700Y-156198700D03*
%TD*%
D13*
%TO.C,D16*%
X256884700Y-163298700D03*
D14*
X264504700Y-163298700D03*
%TD*%
D15*
%TO.C,SW47*%
X105005000Y-114976400D03*
D16*
X105005000Y-119976400D03*
X105005000Y-117476400D03*
D17*
X112505000Y-111876400D03*
X112505000Y-123076400D03*
D16*
X119505000Y-119976400D03*
X119505000Y-114976400D03*
%TD*%
D10*
%TO.C,SW29*%
X68465000Y-79511400D03*
D11*
X73545000Y-79511400D03*
D10*
X78625000Y-79511400D03*
D12*
X76085000Y-74431400D03*
X69735000Y-76971400D03*
%TD*%
D10*
%TO.C,SW42*%
X107860000Y-59936400D03*
D11*
X112940000Y-59936400D03*
D10*
X118020000Y-59936400D03*
D12*
X115480000Y-54856400D03*
X109130000Y-57396400D03*
%TD*%
D13*
%TO.C,D28*%
X82505000Y-154426400D03*
D14*
X90125000Y-154426400D03*
%TD*%
D10*
%TO.C,SW11*%
X208279700Y-118553700D03*
D11*
X213359700Y-118553700D03*
D10*
X218439700Y-118553700D03*
D12*
X215899700Y-113473700D03*
X209549700Y-116013700D03*
%TD*%
D13*
%TO.C,D24*%
X45735000Y-157826400D03*
D14*
X53355000Y-157826400D03*
%TD*%
D13*
%TO.C,D23*%
X45735000Y-154276400D03*
D14*
X53355000Y-154276400D03*
%TD*%
D10*
%TO.C,SW12*%
X208279700Y-137648700D03*
D11*
X213359700Y-137648700D03*
D10*
X218439700Y-137648700D03*
D12*
X215899700Y-132568700D03*
X209549700Y-135108700D03*
%TD*%
D10*
%TO.C,SW15*%
X228264700Y-118953700D03*
D11*
X233344700Y-118953700D03*
D10*
X238424700Y-118953700D03*
D12*
X235884700Y-113873700D03*
X229534700Y-116413700D03*
%TD*%
%TO.C,A4*%
X135670000Y-54126400D03*
D18*
X135970000Y-57156400D03*
X140820000Y-57156400D03*
D12*
X141120000Y-54126400D03*
D19*
X129505000Y-53996400D03*
D14*
X129505000Y-56536400D03*
D20*
X129505000Y-59076400D03*
D14*
X129505000Y-61616400D03*
X129505000Y-64156400D03*
X129505000Y-66696400D03*
X129505000Y-69236400D03*
D20*
X129505000Y-71776400D03*
D14*
X129505000Y-74316400D03*
X129505000Y-76856400D03*
X129505000Y-79396400D03*
X129505000Y-81936400D03*
D20*
X129505000Y-84476400D03*
D14*
X129505000Y-87016400D03*
X129505000Y-89556400D03*
X129505000Y-92096400D03*
X129505000Y-94636400D03*
D20*
X129505000Y-97176400D03*
D14*
X129505000Y-99716400D03*
X129505000Y-102256400D03*
X147285000Y-102256400D03*
X147285000Y-99716400D03*
D21*
X147285000Y-97176400D03*
D14*
X147285000Y-94636400D03*
X147285000Y-92096400D03*
X147285000Y-89556400D03*
X147285000Y-87016400D03*
D21*
X147285000Y-84476400D03*
D14*
X147285000Y-81936400D03*
X147285000Y-79396400D03*
X147285000Y-76856400D03*
X147285000Y-74316400D03*
D21*
X147285000Y-71776400D03*
D14*
X147285000Y-69236400D03*
X147285000Y-66696400D03*
X147285000Y-64156400D03*
X147285000Y-61616400D03*
D21*
X147285000Y-59076400D03*
D14*
X147285000Y-56536400D03*
X147285000Y-53996400D03*
%TD*%
D10*
%TO.C,SW13*%
X228264700Y-79593700D03*
D11*
X233344700Y-79593700D03*
D10*
X238424700Y-79593700D03*
D12*
X235884700Y-74513700D03*
X229534700Y-77053700D03*
%TD*%
D10*
%TO.C,SW14*%
X228264700Y-99228700D03*
D11*
X233344700Y-99228700D03*
D10*
X238424700Y-99228700D03*
D12*
X235884700Y-94148700D03*
X229534700Y-96688700D03*
%TD*%
D10*
%TO.C,SW33*%
X128380000Y-139431400D03*
D11*
X133460000Y-139431400D03*
D10*
X138540000Y-139431400D03*
D12*
X136000000Y-134351400D03*
X129650000Y-136891400D03*
%TD*%
D15*
%TO.C,SW46*%
X185384700Y-116248700D03*
D16*
X185384700Y-121248700D03*
X185384700Y-118748700D03*
D17*
X192884700Y-113148700D03*
X192884700Y-124348700D03*
D16*
X199884700Y-121248700D03*
X199884700Y-116248700D03*
%TD*%
D10*
%TO.C,SW20*%
X248039700Y-99228700D03*
D11*
X253119700Y-99228700D03*
D10*
X258199700Y-99228700D03*
D12*
X255659700Y-94148700D03*
X249309700Y-96688700D03*
%TD*%
D10*
%TO.C,SW3*%
X188884700Y-79593700D03*
D11*
X193964700Y-79593700D03*
D10*
X199044700Y-79593700D03*
D12*
X196504700Y-74513700D03*
X190154700Y-77053700D03*
%TD*%
D10*
%TO.C,SW6*%
X188614700Y-157688700D03*
D11*
X193694700Y-157688700D03*
D10*
X198774700Y-157688700D03*
D12*
X196234700Y-152608700D03*
X189884700Y-155148700D03*
%TD*%
D13*
%TO.C,D7*%
X246114700Y-159748700D03*
D14*
X253734700Y-159748700D03*
%TD*%
D13*
%TO.C,D10*%
X220034700Y-156148700D03*
D14*
X227654700Y-156148700D03*
%TD*%
D13*
%TO.C,D32*%
X56505000Y-157826400D03*
D14*
X64125000Y-157826400D03*
%TD*%
D13*
%TO.C,D33*%
X56505000Y-161376400D03*
D14*
X64125000Y-161376400D03*
%TD*%
D10*
%TO.C,SW41*%
X107985000Y-40436400D03*
D11*
X113065000Y-40436400D03*
D10*
X118145000Y-40436400D03*
D12*
X115605000Y-35356400D03*
X109255000Y-37896400D03*
%TD*%
D13*
%TO.C,D42*%
X67275000Y-164926400D03*
D14*
X74895000Y-164926400D03*
%TD*%
D10*
%TO.C,SW10*%
X208359700Y-99368700D03*
D11*
X213439700Y-99368700D03*
D10*
X218519700Y-99368700D03*
D12*
X215979700Y-94288700D03*
X209629700Y-96828700D03*
%TD*%
D10*
%TO.C,SW37*%
X88085000Y-79346400D03*
D11*
X93165000Y-79346400D03*
D10*
X98245000Y-79346400D03*
D12*
X95705000Y-74266400D03*
X89355000Y-76806400D03*
%TD*%
D10*
%TO.C,SW34*%
X128255000Y-159026400D03*
D11*
X133335000Y-159026400D03*
D10*
X138415000Y-159026400D03*
D12*
X135875000Y-153946400D03*
X129525000Y-156486400D03*
%TD*%
D10*
%TO.C,SW16*%
X228184700Y-138728700D03*
D11*
X233264700Y-138728700D03*
D10*
X238344700Y-138728700D03*
D12*
X235804700Y-133648700D03*
X229454700Y-136188700D03*
%TD*%
D10*
%TO.C,SW21*%
X248039700Y-118953700D03*
D11*
X253119700Y-118953700D03*
D10*
X258199700Y-118953700D03*
D12*
X255659700Y-113873700D03*
X249309700Y-116413700D03*
%TD*%
D13*
%TO.C,D43*%
X67275000Y-168476400D03*
D14*
X74895000Y-168476400D03*
%TD*%
D13*
%TO.C,D31*%
X56505000Y-154276400D03*
D14*
X64125000Y-154276400D03*
%TD*%
D10*
%TO.C,SW26*%
X48760000Y-138241400D03*
D11*
X53840000Y-138241400D03*
D10*
X58920000Y-138241400D03*
D12*
X56380000Y-133161400D03*
X50030000Y-135701400D03*
%TD*%
D10*
%TO.C,SW30*%
X68340000Y-99011400D03*
D11*
X73420000Y-99011400D03*
D10*
X78500000Y-99011400D03*
D12*
X75960000Y-93931400D03*
X69610000Y-96471400D03*
%TD*%
D13*
%TO.C,D38*%
X93275000Y-161526400D03*
D14*
X100895000Y-161526400D03*
%TD*%
D13*
%TO.C,D5*%
X246114700Y-152648700D03*
D14*
X253734700Y-152648700D03*
%TD*%
D13*
%TO.C,D37*%
X93275000Y-157976400D03*
D14*
X100895000Y-157976400D03*
%TD*%
D13*
%TO.C,D1*%
X209264700Y-152598700D03*
D14*
X216884700Y-152598700D03*
%TD*%
D10*
%TO.C,SW19*%
X248039700Y-79593700D03*
D11*
X253119700Y-79593700D03*
D10*
X258199700Y-79593700D03*
D12*
X255659700Y-74513700D03*
X249309700Y-77053700D03*
%TD*%
D10*
%TO.C,SW22*%
X247959700Y-138728700D03*
D11*
X253039700Y-138728700D03*
D10*
X258119700Y-138728700D03*
D12*
X255579700Y-133648700D03*
X249229700Y-136188700D03*
%TD*%
D13*
%TO.C,D19*%
X230804700Y-159698700D03*
D14*
X238424700Y-159698700D03*
%TD*%
D13*
%TO.C,D8*%
X246114700Y-163298700D03*
D14*
X253734700Y-163298700D03*
%TD*%
D13*
%TO.C,D39*%
X67275000Y-154276400D03*
D14*
X74895000Y-154276400D03*
%TD*%
D13*
%TO.C,D44*%
X82505000Y-168476400D03*
D14*
X90125000Y-168476400D03*
%TD*%
D13*
%TO.C,D25*%
X45735000Y-161376400D03*
D14*
X53355000Y-161376400D03*
%TD*%
D13*
%TO.C,D40*%
X67275000Y-157826400D03*
D14*
X74895000Y-157826400D03*
%TD*%
D13*
%TO.C,D29*%
X82505000Y-157976400D03*
D14*
X90125000Y-157976400D03*
%TD*%
D10*
%TO.C,SW18*%
X168884700Y-157648700D03*
D11*
X173964700Y-157648700D03*
D10*
X179044700Y-157648700D03*
D12*
X176504700Y-152568700D03*
X170154700Y-155108700D03*
%TD*%
D13*
%TO.C,D4*%
X209264700Y-163248700D03*
D14*
X216884700Y-163248700D03*
%TD*%
D10*
%TO.C,SW8*%
X208439700Y-59868700D03*
D11*
X213519700Y-59868700D03*
D10*
X218599700Y-59868700D03*
D12*
X216059700Y-54788700D03*
X209709700Y-57328700D03*
%TD*%
D10*
%TO.C,SW38*%
X87960000Y-99121400D03*
D11*
X93040000Y-99121400D03*
D10*
X98120000Y-99121400D03*
D12*
X95580000Y-94041400D03*
X89230000Y-96581400D03*
%TD*%
D13*
%TO.C,D6*%
X246114700Y-156198700D03*
D14*
X253734700Y-156198700D03*
%TD*%
D10*
%TO.C,SW9*%
X208439700Y-79593700D03*
D11*
X213519700Y-79593700D03*
D10*
X218599700Y-79593700D03*
D12*
X216059700Y-74513700D03*
X209709700Y-77053700D03*
%TD*%
D10*
%TO.C,SW36*%
X88085000Y-59936400D03*
D11*
X93165000Y-59936400D03*
D10*
X98245000Y-59936400D03*
D12*
X95705000Y-54856400D03*
X89355000Y-57396400D03*
%TD*%
D10*
%TO.C,SW27*%
X108925000Y-139476400D03*
D11*
X114005000Y-139476400D03*
D10*
X119085000Y-139476400D03*
D12*
X116545000Y-134396400D03*
X110195000Y-136936400D03*
%TD*%
D10*
%TO.C,SW28*%
X108800000Y-159071400D03*
D11*
X113880000Y-159071400D03*
D10*
X118960000Y-159071400D03*
D12*
X116420000Y-153991400D03*
X110070000Y-156531400D03*
%TD*%
D13*
%TO.C,D21*%
X209574700Y-170148700D03*
D14*
X217194700Y-170148700D03*
%TD*%
D13*
%TO.C,D11*%
X220034700Y-159698700D03*
D14*
X227654700Y-159698700D03*
%TD*%
D13*
%TO.C,D18*%
X230804700Y-156148700D03*
D14*
X238424700Y-156148700D03*
%TD*%
D22*
%TO.C,U1*%
X237384700Y-37648700D03*
D23*
X239924700Y-37648700D03*
X242464700Y-37648700D03*
X245004700Y-37648700D03*
D24*
X230194700Y-38148700D03*
X252194700Y-38148700D03*
X252194700Y-60148700D03*
X230194700Y-60148700D03*
%TD*%
D10*
%TO.C,SW31*%
X68340000Y-118421400D03*
D11*
X73420000Y-118421400D03*
D10*
X78500000Y-118421400D03*
D12*
X75960000Y-113341400D03*
X69610000Y-115881400D03*
%TD*%
D10*
%TO.C,SW7*%
X208439700Y-40233700D03*
D11*
X213519700Y-40233700D03*
D10*
X218599700Y-40233700D03*
D12*
X216059700Y-35153700D03*
X209709700Y-37693700D03*
%TD*%
D10*
%TO.C,SW40*%
X87710000Y-138401400D03*
D11*
X92790000Y-138401400D03*
D10*
X97870000Y-138401400D03*
D12*
X95330000Y-133321400D03*
X88980000Y-135861400D03*
%TD*%
D10*
%TO.C,SW1*%
X188884700Y-40233700D03*
D11*
X193964700Y-40233700D03*
D10*
X199044700Y-40233700D03*
D12*
X196504700Y-35153700D03*
X190154700Y-37693700D03*
%TD*%
D13*
%TO.C,D41*%
X67275000Y-161376400D03*
D14*
X74895000Y-161376400D03*
%TD*%
D10*
%TO.C,SW35*%
X88210000Y-40436400D03*
D11*
X93290000Y-40436400D03*
D10*
X98370000Y-40436400D03*
D12*
X95830000Y-35356400D03*
X89480000Y-37896400D03*
%TD*%
D13*
%TO.C,D35*%
X56505000Y-168476400D03*
D14*
X64125000Y-168476400D03*
%TD*%
D13*
%TO.C,D3*%
X209264700Y-159698700D03*
D14*
X216884700Y-159698700D03*
%TD*%
D10*
%TO.C,SW17*%
X168724700Y-138148700D03*
D11*
X173804700Y-138148700D03*
D10*
X178884700Y-138148700D03*
D12*
X176344700Y-133068700D03*
X169994700Y-135608700D03*
%TD*%
D10*
%TO.C,SW5*%
X188384700Y-138148700D03*
D11*
X193464700Y-138148700D03*
D10*
X198544700Y-138148700D03*
D12*
X196004700Y-133068700D03*
X189654700Y-135608700D03*
%TD*%
D10*
%TO.C,SW39*%
X87835000Y-118806400D03*
D11*
X92915000Y-118806400D03*
D10*
X97995000Y-118806400D03*
D12*
X95455000Y-113726400D03*
X89105000Y-116266400D03*
%TD*%
D10*
%TO.C,SW4*%
X188804700Y-99368700D03*
D11*
X193884700Y-99368700D03*
D10*
X198964700Y-99368700D03*
D12*
X196424700Y-94288700D03*
X190074700Y-96828700D03*
%TD*%
D13*
%TO.C,D13*%
X256884700Y-152648700D03*
D14*
X264504700Y-152648700D03*
%TD*%
D10*
%TO.C,SW32*%
X68215000Y-138196400D03*
D11*
X73295000Y-138196400D03*
D10*
X78375000Y-138196400D03*
D12*
X75835000Y-133116400D03*
X69485000Y-135656400D03*
%TD*%
D13*
%TO.C,D15*%
X256884700Y-159748700D03*
D14*
X264504700Y-159748700D03*
%TD*%
D10*
%TO.C,SW44*%
X107735000Y-99121400D03*
D11*
X112815000Y-99121400D03*
D10*
X117895000Y-99121400D03*
D12*
X115355000Y-94041400D03*
X109005000Y-96581400D03*
%TD*%
D10*
%TO.C,SW2*%
X188884700Y-59868700D03*
D11*
X193964700Y-59868700D03*
D10*
X199044700Y-59868700D03*
D12*
X196504700Y-54788700D03*
X190154700Y-57328700D03*
%TD*%
D10*
%TO.C,SW25*%
X48885000Y-118466400D03*
D11*
X53965000Y-118466400D03*
D10*
X59045000Y-118466400D03*
D12*
X56505000Y-113386400D03*
X50155000Y-115926400D03*
%TD*%
D22*
%TO.C,U2*%
X60195000Y-38476400D03*
D23*
X62735000Y-38476400D03*
X65275000Y-38476400D03*
X67815000Y-38476400D03*
D24*
X53005000Y-38976400D03*
X75005000Y-38976400D03*
X75005000Y-60976400D03*
X53005000Y-60976400D03*
%TD*%
D12*
%TO.C,A3*%
X166349700Y-53298700D03*
D18*
X166649700Y-56328700D03*
X171499700Y-56328700D03*
D12*
X171799700Y-53298700D03*
D19*
X160184700Y-53168700D03*
D14*
X160184700Y-55708700D03*
D20*
X160184700Y-58248700D03*
D14*
X160184700Y-60788700D03*
X160184700Y-63328700D03*
X160184700Y-65868700D03*
X160184700Y-68408700D03*
D20*
X160184700Y-70948700D03*
D14*
X160184700Y-73488700D03*
X160184700Y-76028700D03*
X160184700Y-78568700D03*
X160184700Y-81108700D03*
D20*
X160184700Y-83648700D03*
D14*
X160184700Y-86188700D03*
X160184700Y-88728700D03*
X160184700Y-91268700D03*
X160184700Y-93808700D03*
D20*
X160184700Y-96348700D03*
D14*
X160184700Y-98888700D03*
X160184700Y-101428700D03*
X177964700Y-101428700D03*
X177964700Y-98888700D03*
D21*
X177964700Y-96348700D03*
D14*
X177964700Y-93808700D03*
X177964700Y-91268700D03*
X177964700Y-88728700D03*
X177964700Y-86188700D03*
D21*
X177964700Y-83648700D03*
D14*
X177964700Y-81108700D03*
X177964700Y-78568700D03*
X177964700Y-76028700D03*
X177964700Y-73488700D03*
D21*
X177964700Y-70948700D03*
D14*
X177964700Y-68408700D03*
X177964700Y-65868700D03*
X177964700Y-63328700D03*
X177964700Y-60788700D03*
D21*
X177964700Y-58248700D03*
D14*
X177964700Y-55708700D03*
X177964700Y-53168700D03*
%TD*%
D13*
%TO.C,D27*%
X45735000Y-168476400D03*
D14*
X53355000Y-168476400D03*
%TD*%
M02*
