%TF.GenerationSoftware,KiCad,Pcbnew,10.0.1*%
%TF.CreationDate,2026-06-23T13:56:20+05:30*%
%TF.ProjectId,split-keyboard-kicad,73706c69-742d-46b6-9579-626f6172642d,rev?*%
%TF.SameCoordinates,Original*%
%TF.FileFunction,Copper,L2,Bot*%
%TF.FilePolarity,Positive*%
%FSLAX46Y46*%
G04 Gerber Fmt 4.6, Leading zero omitted, Abs format (unit mm)*
G04 Created by KiCad (PCBNEW 10.0.1) date 2026-06-23 13:56:20*
%MOMM*%
%LPD*%
G01*
G04 APERTURE LIST*
G04 Aperture macros list*
%AMRoundRect*
0 Rectangle with rounded corners*
0 $1 Rounding radius*
0 $2 $3 $4 $5 $6 $7 $8 $9 X,Y pos of 4 corners*
0 Add a 4 corners polygon primitive as box body*
4,1,4,$2,$3,$4,$5,$6,$7,$8,$9,$2,$3,0*
0 Add four circle primitives for the rounded corners*
1,1,$1+$1,$2,$3*
1,1,$1+$1,$4,$5*
1,1,$1+$1,$6,$7*
1,1,$1+$1,$8,$9*
0 Add four rect primitives between the rounded corners*
20,1,$1+$1,$2,$3,$4,$5,0*
20,1,$1+$1,$4,$5,$6,$7,0*
20,1,$1+$1,$6,$7,$8,$9,0*
20,1,$1+$1,$8,$9,$2,$3,0*%
%AMFreePoly0*
4,1,37,0.603843,0.796157,0.639018,0.796157,0.711114,0.766294,0.766294,0.711114,0.796157,0.639018,0.796157,0.603843,0.800000,0.600000,0.800000,-0.600000,0.796157,-0.603843,0.796157,-0.639018,0.766294,-0.711114,0.711114,-0.766294,0.639018,-0.796157,0.603843,-0.796157,0.600000,-0.800000,0.000000,-0.800000,0.000000,-0.796148,-0.078414,-0.796148,-0.232228,-0.765552,-0.377117,-0.705537,
-0.507515,-0.618408,-0.618408,-0.507515,-0.705537,-0.377117,-0.765552,-0.232228,-0.796148,-0.078414,-0.796148,0.078414,-0.765552,0.232228,-0.705537,0.377117,-0.618408,0.507515,-0.507515,0.618408,-0.377117,0.705537,-0.232228,0.765552,-0.078414,0.796148,0.000000,0.796148,0.000000,0.800000,0.600000,0.800000,0.603843,0.796157,0.603843,0.796157,$1*%
%AMFreePoly1*
4,1,37,0.000000,0.796148,0.078414,0.796148,0.232228,0.765552,0.377117,0.705537,0.507515,0.618408,0.618408,0.507515,0.705537,0.377117,0.765552,0.232228,0.796148,0.078414,0.796148,-0.078414,0.765552,-0.232228,0.705537,-0.377117,0.618408,-0.507515,0.507515,-0.618408,0.377117,-0.705537,0.232228,-0.765552,0.078414,-0.796148,0.000000,-0.796148,0.000000,-0.800000,-0.600000,-0.800000,
-0.603843,-0.796157,-0.639018,-0.796157,-0.711114,-0.766294,-0.766294,-0.711114,-0.796157,-0.639018,-0.796157,-0.603843,-0.800000,-0.600000,-0.800000,0.600000,-0.796157,0.603843,-0.796157,0.639018,-0.766294,0.711114,-0.711114,0.766294,-0.639018,0.796157,-0.603843,0.796157,-0.600000,0.800000,0.000000,0.800000,0.000000,0.796148,0.000000,0.796148,$1*%
G04 Aperture macros list end*
%TA.AperFunction,ComponentPad*%
%ADD10C,2.200000*%
%TD*%
%TA.AperFunction,ComponentPad*%
%ADD11RoundRect,0.250000X-0.550000X-0.550000X0.550000X-0.550000X0.550000X0.550000X-0.550000X0.550000X0*%
%TD*%
%TA.AperFunction,ComponentPad*%
%ADD12C,1.600000*%
%TD*%
%TA.AperFunction,ComponentPad*%
%ADD13R,2.000000X2.000000*%
%TD*%
%TA.AperFunction,ComponentPad*%
%ADD14C,2.000000*%
%TD*%
%TA.AperFunction,ComponentPad*%
%ADD15R,3.200000X2.000000*%
%TD*%
%TA.AperFunction,ComponentPad*%
%ADD16RoundRect,0.200000X-0.600000X-0.600000X0.600000X-0.600000X0.600000X0.600000X-0.600000X0.600000X0*%
%TD*%
%TA.AperFunction,ComponentPad*%
%ADD17FreePoly0,0.000000*%
%TD*%
%TA.AperFunction,ComponentPad*%
%ADD18FreePoly1,0.000000*%
%TD*%
%TA.AperFunction,ComponentPad*%
%ADD19R,1.508000X1.508000*%
%TD*%
%TA.AperFunction,ComponentPad*%
%ADD20C,1.508000*%
%TD*%
%TA.AperFunction,ComponentPad*%
%ADD21C,3.000000*%
%TD*%
%TA.AperFunction,ViaPad*%
%ADD22C,0.600000*%
%TD*%
%TA.AperFunction,Conductor*%
%ADD23C,0.200000*%
%TD*%
G04 APERTURE END LIST*
D10*
%TO.P,SW24,1,1_1*%
%TO.N,/left/col1*%
X56505000Y-93976400D03*
%TO.P,SW24,2,2_2*%
%TO.N,Net-(D24-A)*%
X50155000Y-96516400D03*
%TD*%
D11*
%TO.P,D2,1,K_1*%
%TO.N,/right/row1*%
X209264700Y-156148700D03*
D12*
%TO.P,D2,2,A_2*%
%TO.N,Net-(D2-A)*%
X216884700Y-156148700D03*
%TD*%
D11*
%TO.P,D22,1,K_1*%
%TO.N,/right/row5*%
X246074700Y-169648700D03*
D12*
%TO.P,D22,2,A_2*%
%TO.N,Net-(D22-A)*%
X253694700Y-169648700D03*
%TD*%
D11*
%TO.P,D17,1,K_1*%
%TO.N,/right/row4*%
X230804700Y-152598700D03*
D12*
%TO.P,D17,2,A_2*%
%TO.N,Net-(D17-A)*%
X238424700Y-152598700D03*
%TD*%
D10*
%TO.P,SW23,1,1_1*%
%TO.N,/left/col1*%
X56630000Y-74476400D03*
%TO.P,SW23,2,2_2*%
%TO.N,Net-(D23-A)*%
X50280000Y-77016400D03*
%TD*%
D11*
%TO.P,D34,1,K_1*%
%TO.N,/left/row4*%
X56505000Y-164926400D03*
D12*
%TO.P,D34,2,A_2*%
%TO.N,Net-(D34-A)*%
X64125000Y-164926400D03*
%TD*%
D11*
%TO.P,D26,1,K_1*%
%TO.N,/left/row4*%
X45735000Y-164926400D03*
D12*
%TO.P,D26,2,A_2*%
%TO.N,Net-(D26-A)*%
X53355000Y-164926400D03*
%TD*%
D11*
%TO.P,D20,1,K_1*%
%TO.N,/right/row4*%
X230804700Y-163248700D03*
D12*
%TO.P,D20,2,A_2*%
%TO.N,Net-(D20-A)*%
X238424700Y-163248700D03*
%TD*%
D11*
%TO.P,D36,1,K_1*%
%TO.N,/left/row2*%
X93275000Y-154426400D03*
D12*
%TO.P,D36,2,A_2*%
%TO.N,Net-(D36-A)*%
X100895000Y-154426400D03*
%TD*%
D11*
%TO.P,D12,1,K_1*%
%TO.N,/right/row3*%
X220034700Y-163248700D03*
D12*
%TO.P,D12,2,A_2*%
%TO.N,Net-(D12-A)*%
X227654700Y-163248700D03*
%TD*%
D11*
%TO.P,D30,1,K_1*%
%TO.N,/left/row4*%
X82505000Y-161526400D03*
D12*
%TO.P,D30,2,A_2*%
%TO.N,Net-(D30-A)*%
X90125000Y-161526400D03*
%TD*%
D10*
%TO.P,SW43,1,1_1*%
%TO.N,/left/col5*%
X115480000Y-74266400D03*
%TO.P,SW43,2,2_2*%
%TO.N,Net-(D43-A)*%
X109130000Y-76806400D03*
%TD*%
D11*
%TO.P,D9,1,K_1*%
%TO.N,/right/row2*%
X220034700Y-152598700D03*
D12*
%TO.P,D9,2,A_2*%
%TO.N,Net-(D9-A)*%
X227654700Y-152598700D03*
%TD*%
D11*
%TO.P,D14,1,K_1*%
%TO.N,/right/row3*%
X256884700Y-156198700D03*
D12*
%TO.P,D14,2,A_2*%
%TO.N,Net-(D14-A)*%
X264504700Y-156198700D03*
%TD*%
D11*
%TO.P,D16,1,K_1*%
%TO.N,/right/row4*%
X256884700Y-163298700D03*
D12*
%TO.P,D16,2,A_2*%
%TO.N,Net-(D16-A)*%
X264504700Y-163298700D03*
%TD*%
D13*
%TO.P,SW47,A,A_A*%
%TO.N,/left/gpio6*%
X105005000Y-114976400D03*
D14*
%TO.P,SW47,B,B_B*%
%TO.N,/left/gpio7*%
X105005000Y-119976400D03*
%TO.P,SW47,C,C_C*%
%TO.N,/left/gndLeft*%
X105005000Y-117476400D03*
D15*
%TO.P,SW47,MP*%
%TO.N,N/C*%
X112505000Y-111876400D03*
X112505000Y-123076400D03*
D14*
%TO.P,SW47,S1*%
X119505000Y-119976400D03*
%TO.P,SW47,S2*%
X119505000Y-114976400D03*
%TD*%
D10*
%TO.P,SW29,1,1_1*%
%TO.N,/left/col2*%
X76085000Y-74431400D03*
%TO.P,SW29,2,2_2*%
%TO.N,Net-(D29-A)*%
X69735000Y-76971400D03*
%TD*%
%TO.P,SW42,1,1_1*%
%TO.N,/left/col5*%
X115480000Y-54856400D03*
%TO.P,SW42,2,2_2*%
%TO.N,Net-(D42-A)*%
X109130000Y-57396400D03*
%TD*%
D11*
%TO.P,D28,1,K_1*%
%TO.N,/left/row2*%
X82505000Y-154426400D03*
D12*
%TO.P,D28,2,A_2*%
%TO.N,Net-(D28-A)*%
X90125000Y-154426400D03*
%TD*%
D10*
%TO.P,SW11,1,1_1*%
%TO.N,/right/col1*%
X215899700Y-113473700D03*
%TO.P,SW11,2,2_2*%
%TO.N,Net-(D11-A)*%
X209549700Y-116013700D03*
%TD*%
D11*
%TO.P,D24,1,K_1*%
%TO.N,/left/row2*%
X45735000Y-157826400D03*
D12*
%TO.P,D24,2,A_2*%
%TO.N,Net-(D24-A)*%
X53355000Y-157826400D03*
%TD*%
D11*
%TO.P,D23,1,K_1*%
%TO.N,/left/row1*%
X45735000Y-154276400D03*
D12*
%TO.P,D23,2,A_2*%
%TO.N,Net-(D23-A)*%
X53355000Y-154276400D03*
%TD*%
D10*
%TO.P,SW12,1,1_1*%
%TO.N,/right/col2*%
X215899700Y-132568700D03*
%TO.P,SW12,2,2_2*%
%TO.N,Net-(D12-A)*%
X209549700Y-135108700D03*
%TD*%
%TO.P,SW15,1,1_1*%
%TO.N,/right/col5*%
X235884700Y-113873700D03*
%TO.P,SW15,2,2_2*%
%TO.N,Net-(D15-A)*%
X229534700Y-116413700D03*
%TD*%
D16*
%TO.P,A4,1,GPIO0_1*%
%TO.N,unconnected-(A4-GPIO0-Pad1)*%
X129505000Y-53996400D03*
D12*
%TO.P,A4,2,GPIO1_2*%
%TO.N,unconnected-(A4-GPIO1-Pad2)*%
X129505000Y-56536400D03*
D17*
%TO.P,A4,3,GND_3*%
%TO.N,/left/gndLeft*%
X129505000Y-59076400D03*
D12*
%TO.P,A4,4,GPIO2_4*%
%TO.N,unconnected-(A4-GPIO2-Pad4)*%
X129505000Y-61616400D03*
%TO.P,A4,5,GPIO3_5*%
%TO.N,unconnected-(A4-GPIO3-Pad5)*%
X129505000Y-64156400D03*
%TO.P,A4,6,GPIO4_6*%
%TO.N,/left/gpio6*%
X129505000Y-66696400D03*
%TO.P,A4,7,GPIO5_7*%
%TO.N,/left/gpio7*%
X129505000Y-69236400D03*
D17*
%TO.P,A4,8,GND_8*%
%TO.N,/left/gndLeft*%
X129505000Y-71776400D03*
D12*
%TO.P,A4,9,GPIO6_9*%
%TO.N,unconnected-(A4-GPIO6-Pad9)*%
X129505000Y-74316400D03*
%TO.P,A4,10,GPIO7_10*%
%TO.N,unconnected-(A4-GPIO7-Pad10)*%
X129505000Y-76856400D03*
%TO.P,A4,11,GPIO8_11*%
%TO.N,unconnected-(A4-GPIO8-Pad11)*%
X129505000Y-79396400D03*
%TO.P,A4,12,GPIO9_12*%
%TO.N,unconnected-(A4-GPIO9-Pad12)*%
X129505000Y-81936400D03*
D17*
%TO.P,A4,13,GND_13*%
%TO.N,/left/gndLeft*%
X129505000Y-84476400D03*
D12*
%TO.P,A4,14,GPIO10_14*%
%TO.N,unconnected-(A4-GPIO10-Pad14)*%
X129505000Y-87016400D03*
%TO.P,A4,15,GPIO11_15*%
%TO.N,/left/col1*%
X129505000Y-89556400D03*
%TO.P,A4,16,GPIO12_16*%
%TO.N,/left/col2*%
X129505000Y-92096400D03*
%TO.P,A4,17,GPIO13_17*%
%TO.N,/left/col3*%
X129505000Y-94636400D03*
D17*
%TO.P,A4,18,GND_18*%
%TO.N,/left/gndLeft*%
X129505000Y-97176400D03*
D12*
%TO.P,A4,19,GPIO14_19*%
%TO.N,/left/col4*%
X129505000Y-99716400D03*
%TO.P,A4,20,GPIO15_20*%
%TO.N,/left/col5*%
X129505000Y-102256400D03*
%TO.P,A4,21,GPIO16_21*%
%TO.N,/left/row1*%
X147285000Y-102256400D03*
%TO.P,A4,22,GPIO17_22*%
%TO.N,/left/row2*%
X147285000Y-99716400D03*
D18*
%TO.P,A4,23,GND_23*%
%TO.N,/left/gndLeft*%
X147285000Y-97176400D03*
D12*
%TO.P,A4,24,GPIO18_24*%
%TO.N,/left/row3*%
X147285000Y-94636400D03*
%TO.P,A4,25,GPIO19_25*%
%TO.N,/left/row4*%
X147285000Y-92096400D03*
%TO.P,A4,26,GPIO20_26*%
%TO.N,/left/row5*%
X147285000Y-89556400D03*
%TO.P,A4,27,GPIO21_27*%
%TO.N,unconnected-(A4-GPIO21-Pad27)*%
X147285000Y-87016400D03*
D18*
%TO.P,A4,28,GND_28*%
%TO.N,/left/gndLeft*%
X147285000Y-84476400D03*
D12*
%TO.P,A4,29,GPIO22_29*%
%TO.N,unconnected-(A4-GPIO22-Pad29)*%
X147285000Y-81936400D03*
%TO.P,A4,30,RUN_30*%
%TO.N,unconnected-(A4-RUN-Pad30)*%
X147285000Y-79396400D03*
%TO.P,A4,31,GPIO26_ADC0_31*%
%TO.N,/left/scl*%
X147285000Y-76856400D03*
%TO.P,A4,32,GPIO27_ADC1_32*%
%TO.N,/left/sda*%
X147285000Y-74316400D03*
D18*
%TO.P,A4,33,AGND_33*%
%TO.N,unconnected-(A4-AGND-Pad33)*%
X147285000Y-71776400D03*
D12*
%TO.P,A4,34,GPIO28_ADC2_34*%
%TO.N,unconnected-(A4-GPIO28_ADC2-Pad34)*%
X147285000Y-69236400D03*
%TO.P,A4,35,ADC_VREF_35*%
%TO.N,unconnected-(A4-ADC_VREF-Pad35)*%
X147285000Y-66696400D03*
%TO.P,A4,36,3V3_36*%
%TO.N,/left/leftPower*%
X147285000Y-64156400D03*
%TO.P,A4,37,3V3_EN_37*%
%TO.N,unconnected-(A4-3V3_EN-Pad37)*%
X147285000Y-61616400D03*
D18*
%TO.P,A4,38,GND_38*%
%TO.N,/left/gndLeft*%
X147285000Y-59076400D03*
D12*
%TO.P,A4,39,VSYS_39*%
%TO.N,unconnected-(A4-VSYS-Pad39)*%
X147285000Y-56536400D03*
%TO.P,A4,40,VBUS_40*%
%TO.N,unconnected-(A4-VBUS-Pad40)*%
X147285000Y-53996400D03*
%TD*%
D10*
%TO.P,SW13,1,1_1*%
%TO.N,/right/col3*%
X235884700Y-74513700D03*
%TO.P,SW13,2,2_2*%
%TO.N,Net-(D13-A)*%
X229534700Y-77053700D03*
%TD*%
%TO.P,SW14,1,1_1*%
%TO.N,/right/col4*%
X235884700Y-94148700D03*
%TO.P,SW14,2,2_2*%
%TO.N,Net-(D14-A)*%
X229534700Y-96688700D03*
%TD*%
%TO.P,SW33,1,1_1*%
%TO.N,/left/col3*%
X136000000Y-134351400D03*
%TO.P,SW33,2,2_2*%
%TO.N,Net-(D33-A)*%
X129650000Y-136891400D03*
%TD*%
D13*
%TO.P,SW46,A,A_A*%
%TO.N,/right/gpio6*%
X185384700Y-116248700D03*
D14*
%TO.P,SW46,B,B_B*%
%TO.N,/right/gpio7*%
X185384700Y-121248700D03*
%TO.P,SW46,C,C_C*%
%TO.N,/right/gndRight*%
X185384700Y-118748700D03*
D15*
%TO.P,SW46,MP*%
%TO.N,N/C*%
X192884700Y-113148700D03*
X192884700Y-124348700D03*
D14*
%TO.P,SW46,S1*%
X199884700Y-121248700D03*
%TO.P,SW46,S2*%
X199884700Y-116248700D03*
%TD*%
D10*
%TO.P,SW20,1,1_1*%
%TO.N,/right/col5*%
X255659700Y-94148700D03*
%TO.P,SW20,2,2_2*%
%TO.N,Net-(D20-A)*%
X249309700Y-96688700D03*
%TD*%
%TO.P,SW3,1,1_1*%
%TO.N,/right/col3*%
X196504700Y-74513700D03*
%TO.P,SW3,2,2_2*%
%TO.N,Net-(D3-A)*%
X190154700Y-77053700D03*
%TD*%
%TO.P,SW6,1,1_1*%
%TO.N,/right/col1*%
X196234700Y-152608700D03*
%TO.P,SW6,2,2_2*%
%TO.N,Net-(D6-A)*%
X189884700Y-155148700D03*
%TD*%
D11*
%TO.P,D7,1,K_1*%
%TO.N,/right/row2*%
X246114700Y-159748700D03*
D12*
%TO.P,D7,2,A_2*%
%TO.N,Net-(D7-A)*%
X253734700Y-159748700D03*
%TD*%
D11*
%TO.P,D10,1,K_1*%
%TO.N,/right/row2*%
X220034700Y-156148700D03*
D12*
%TO.P,D10,2,A_2*%
%TO.N,Net-(D10-A)*%
X227654700Y-156148700D03*
%TD*%
D11*
%TO.P,D32,1,K_1*%
%TO.N,/left/row2*%
X56505000Y-157826400D03*
D12*
%TO.P,D32,2,A_2*%
%TO.N,Net-(D32-A)*%
X64125000Y-157826400D03*
%TD*%
D11*
%TO.P,D33,1,K_1*%
%TO.N,/left/row3*%
X56505000Y-161376400D03*
D12*
%TO.P,D33,2,A_2*%
%TO.N,Net-(D33-A)*%
X64125000Y-161376400D03*
%TD*%
D10*
%TO.P,SW41,1,1_1*%
%TO.N,/left/col5*%
X115605000Y-35356400D03*
%TO.P,SW41,2,2_2*%
%TO.N,Net-(D41-A)*%
X109255000Y-37896400D03*
%TD*%
D11*
%TO.P,D42,1,K_1*%
%TO.N,/left/row3*%
X67275000Y-164926400D03*
D12*
%TO.P,D42,2,A_2*%
%TO.N,Net-(D42-A)*%
X74895000Y-164926400D03*
%TD*%
D10*
%TO.P,SW10,1,1_1*%
%TO.N,/right/col5*%
X215979700Y-94288700D03*
%TO.P,SW10,2,2_2*%
%TO.N,Net-(D10-A)*%
X209629700Y-96828700D03*
%TD*%
%TO.P,SW37,1,1_1*%
%TO.N,/left/col4*%
X95705000Y-74266400D03*
%TO.P,SW37,2,2_2*%
%TO.N,Net-(D37-A)*%
X89355000Y-76806400D03*
%TD*%
%TO.P,SW34,1,1_1*%
%TO.N,/left/col3*%
X135875000Y-153946400D03*
%TO.P,SW34,2,2_2*%
%TO.N,Net-(D34-A)*%
X129525000Y-156486400D03*
%TD*%
%TO.P,SW16,1,1_1*%
%TO.N,/right/col1*%
X235804700Y-133648700D03*
%TO.P,SW16,2,2_2*%
%TO.N,Net-(D16-A)*%
X229454700Y-136188700D03*
%TD*%
%TO.P,SW21,1,1_1*%
%TO.N,/right/col4*%
X255659700Y-113873700D03*
%TO.P,SW21,2,2_2*%
%TO.N,Net-(D21-A)*%
X249309700Y-116413700D03*
%TD*%
D11*
%TO.P,D43,1,K_1*%
%TO.N,/left/row4*%
X67275000Y-168476400D03*
D12*
%TO.P,D43,2,A_2*%
%TO.N,Net-(D43-A)*%
X74895000Y-168476400D03*
%TD*%
D11*
%TO.P,D31,1,K_1*%
%TO.N,/left/row1*%
X56505000Y-154276400D03*
D12*
%TO.P,D31,2,A_2*%
%TO.N,Net-(D31-A)*%
X64125000Y-154276400D03*
%TD*%
D10*
%TO.P,SW26,1,1_1*%
%TO.N,/left/col1*%
X56380000Y-133161400D03*
%TO.P,SW26,2,2_2*%
%TO.N,Net-(D26-A)*%
X50030000Y-135701400D03*
%TD*%
%TO.P,SW30,1,1_1*%
%TO.N,/left/col2*%
X75960000Y-93931400D03*
%TO.P,SW30,2,2_2*%
%TO.N,Net-(D30-A)*%
X69610000Y-96471400D03*
%TD*%
D11*
%TO.P,D38,1,K_1*%
%TO.N,/left/row4*%
X93275000Y-161526400D03*
D12*
%TO.P,D38,2,A_2*%
%TO.N,Net-(D38-A)*%
X100895000Y-161526400D03*
%TD*%
D11*
%TO.P,D5,1,K_1*%
%TO.N,/right/row1*%
X246114700Y-152648700D03*
D12*
%TO.P,D5,2,A_2*%
%TO.N,Net-(D5-A)*%
X253734700Y-152648700D03*
%TD*%
D11*
%TO.P,D37,1,K_1*%
%TO.N,/left/row3*%
X93275000Y-157976400D03*
D12*
%TO.P,D37,2,A_2*%
%TO.N,Net-(D37-A)*%
X100895000Y-157976400D03*
%TD*%
D11*
%TO.P,D1,1,K_1*%
%TO.N,/right/row1*%
X209264700Y-152598700D03*
D12*
%TO.P,D1,2,A_2*%
%TO.N,Net-(D1-A)*%
X216884700Y-152598700D03*
%TD*%
D10*
%TO.P,SW19,1,1_1*%
%TO.N,/right/col4*%
X255659700Y-74513700D03*
%TO.P,SW19,2,2_2*%
%TO.N,Net-(D19-A)*%
X249309700Y-77053700D03*
%TD*%
%TO.P,SW22,1,1_1*%
%TO.N,/right/col5*%
X255579700Y-133648700D03*
%TO.P,SW22,2,2_2*%
%TO.N,Net-(D22-A)*%
X249229700Y-136188700D03*
%TD*%
D11*
%TO.P,D19,1,K_1*%
%TO.N,/right/row4*%
X230804700Y-159698700D03*
D12*
%TO.P,D19,2,A_2*%
%TO.N,Net-(D19-A)*%
X238424700Y-159698700D03*
%TD*%
D11*
%TO.P,D8,1,K_1*%
%TO.N,/right/row2*%
X246114700Y-163298700D03*
D12*
%TO.P,D8,2,A_2*%
%TO.N,Net-(D8-A)*%
X253734700Y-163298700D03*
%TD*%
D11*
%TO.P,D39,1,K_1*%
%TO.N,/left/row5*%
X67275000Y-154276400D03*
D12*
%TO.P,D39,2,A_2*%
%TO.N,Net-(D39-A)*%
X74895000Y-154276400D03*
%TD*%
D11*
%TO.P,D44,1,K_1*%
%TO.N,/left/row5*%
X82505000Y-168476400D03*
D12*
%TO.P,D44,2,A_2*%
%TO.N,Net-(D44-A)*%
X90125000Y-168476400D03*
%TD*%
D11*
%TO.P,D25,1,K_1*%
%TO.N,/left/row3*%
X45735000Y-161376400D03*
D12*
%TO.P,D25,2,A_2*%
%TO.N,Net-(D25-A)*%
X53355000Y-161376400D03*
%TD*%
D11*
%TO.P,D40,1,K_1*%
%TO.N,/left/row1*%
X67275000Y-157826400D03*
D12*
%TO.P,D40,2,A_2*%
%TO.N,Net-(D40-A)*%
X74895000Y-157826400D03*
%TD*%
D11*
%TO.P,D29,1,K_1*%
%TO.N,/left/row3*%
X82505000Y-157976400D03*
D12*
%TO.P,D29,2,A_2*%
%TO.N,Net-(D29-A)*%
X90125000Y-157976400D03*
%TD*%
D10*
%TO.P,SW18,1,1_1*%
%TO.N,/right/col3*%
X176504700Y-152568700D03*
%TO.P,SW18,2,2_2*%
%TO.N,Net-(D18-A)*%
X170154700Y-155108700D03*
%TD*%
D11*
%TO.P,D4,1,K_1*%
%TO.N,/right/row1*%
X209264700Y-163248700D03*
D12*
%TO.P,D4,2,A_2*%
%TO.N,Net-(D4-A)*%
X216884700Y-163248700D03*
%TD*%
D10*
%TO.P,SW8,1,1_1*%
%TO.N,/right/col3*%
X216059700Y-54788700D03*
%TO.P,SW8,2,2_2*%
%TO.N,Net-(D8-A)*%
X209709700Y-57328700D03*
%TD*%
%TO.P,SW38,1,1_1*%
%TO.N,/left/col4*%
X95580000Y-94041400D03*
%TO.P,SW38,2,2_2*%
%TO.N,Net-(D38-A)*%
X89230000Y-96581400D03*
%TD*%
D11*
%TO.P,D6,1,K_1*%
%TO.N,/right/row2*%
X246114700Y-156198700D03*
D12*
%TO.P,D6,2,A_2*%
%TO.N,Net-(D6-A)*%
X253734700Y-156198700D03*
%TD*%
D10*
%TO.P,SW9,1,1_1*%
%TO.N,/right/col4*%
X216059700Y-74513700D03*
%TO.P,SW9,2,2_2*%
%TO.N,Net-(D9-A)*%
X209709700Y-77053700D03*
%TD*%
%TO.P,SW36,1,1_1*%
%TO.N,/left/col4*%
X95705000Y-54856400D03*
%TO.P,SW36,2,2_2*%
%TO.N,Net-(D36-A)*%
X89355000Y-57396400D03*
%TD*%
%TO.P,SW27,1,1_1*%
%TO.N,/left/col2*%
X116545000Y-134396400D03*
%TO.P,SW27,2,2_2*%
%TO.N,Net-(D27-A)*%
X110195000Y-136936400D03*
%TD*%
%TO.P,SW28,1,1_1*%
%TO.N,/left/col2*%
X116420000Y-153991400D03*
%TO.P,SW28,2,2_2*%
%TO.N,Net-(D28-A)*%
X110070000Y-156531400D03*
%TD*%
D11*
%TO.P,D21,1,K_1*%
%TO.N,/right/row5*%
X209574700Y-170148700D03*
D12*
%TO.P,D21,2,A_2*%
%TO.N,Net-(D21-A)*%
X217194700Y-170148700D03*
%TD*%
D11*
%TO.P,D11,1,K_1*%
%TO.N,/right/row3*%
X220034700Y-159698700D03*
D12*
%TO.P,D11,2,A_2*%
%TO.N,Net-(D11-A)*%
X227654700Y-159698700D03*
%TD*%
D11*
%TO.P,D18,1,K_1*%
%TO.N,/right/row4*%
X230804700Y-156148700D03*
D12*
%TO.P,D18,2,A_2*%
%TO.N,Net-(D18-A)*%
X238424700Y-156148700D03*
%TD*%
D19*
%TO.P,U1,1,GND_1*%
%TO.N,/right/gndRight*%
X237384700Y-37648700D03*
D20*
%TO.P,U1,2,VCC_IN_2*%
%TO.N,/right/rightPower*%
X239924700Y-37648700D03*
%TO.P,U1,3,SCL_3*%
%TO.N,/right/scl*%
X242464700Y-37648700D03*
%TO.P,U1,4,SDA_4*%
%TO.N,/right/sda*%
X245004700Y-37648700D03*
D21*
%TO.P,U1,S1*%
%TO.N,N/C*%
X230194700Y-38148700D03*
%TO.P,U1,S2*%
X252194700Y-38148700D03*
%TO.P,U1,S3*%
X252194700Y-60148700D03*
%TO.P,U1,S4*%
X230194700Y-60148700D03*
%TD*%
D10*
%TO.P,SW31,1,1_1*%
%TO.N,/left/col3*%
X75960000Y-113341400D03*
%TO.P,SW31,2,2_2*%
%TO.N,Net-(D31-A)*%
X69610000Y-115881400D03*
%TD*%
%TO.P,SW7,1,1_1*%
%TO.N,/right/col2*%
X216059700Y-35153700D03*
%TO.P,SW7,2,2_2*%
%TO.N,Net-(D7-A)*%
X209709700Y-37693700D03*
%TD*%
%TO.P,SW40,1,1_1*%
%TO.N,/left/col5*%
X95330000Y-133321400D03*
%TO.P,SW40,2,2_2*%
%TO.N,Net-(D40-A)*%
X88980000Y-135861400D03*
%TD*%
%TO.P,SW1,1,1_1*%
%TO.N,/right/col1*%
X196504700Y-35153700D03*
%TO.P,SW1,2,2_2*%
%TO.N,Net-(D1-A)*%
X190154700Y-37693700D03*
%TD*%
D11*
%TO.P,D41,1,K_1*%
%TO.N,/left/row2*%
X67275000Y-161376400D03*
D12*
%TO.P,D41,2,A_2*%
%TO.N,Net-(D41-A)*%
X74895000Y-161376400D03*
%TD*%
D10*
%TO.P,SW35,1,1_1*%
%TO.N,/left/col4*%
X95830000Y-35356400D03*
%TO.P,SW35,2,2_2*%
%TO.N,Net-(D35-A)*%
X89480000Y-37896400D03*
%TD*%
D11*
%TO.P,D35,1,K_1*%
%TO.N,/left/row1*%
X56505000Y-168476400D03*
D12*
%TO.P,D35,2,A_2*%
%TO.N,Net-(D35-A)*%
X64125000Y-168476400D03*
%TD*%
D11*
%TO.P,D3,1,K_1*%
%TO.N,/right/row1*%
X209264700Y-159698700D03*
D12*
%TO.P,D3,2,A_2*%
%TO.N,Net-(D3-A)*%
X216884700Y-159698700D03*
%TD*%
D10*
%TO.P,SW17,1,1_1*%
%TO.N,/right/col2*%
X176344700Y-133068700D03*
%TO.P,SW17,2,2_2*%
%TO.N,Net-(D17-A)*%
X169994700Y-135608700D03*
%TD*%
%TO.P,SW5,1,1_1*%
%TO.N,/right/col5*%
X196004700Y-133068700D03*
%TO.P,SW5,2,2_2*%
%TO.N,Net-(D5-A)*%
X189654700Y-135608700D03*
%TD*%
%TO.P,SW39,1,1_1*%
%TO.N,/left/col4*%
X95455000Y-113726400D03*
%TO.P,SW39,2,2_2*%
%TO.N,Net-(D39-A)*%
X89105000Y-116266400D03*
%TD*%
%TO.P,SW4,1,1_1*%
%TO.N,/right/col4*%
X196424700Y-94288700D03*
%TO.P,SW4,2,2_2*%
%TO.N,Net-(D4-A)*%
X190074700Y-96828700D03*
%TD*%
D11*
%TO.P,D13,1,K_1*%
%TO.N,/right/row3*%
X256884700Y-152648700D03*
D12*
%TO.P,D13,2,A_2*%
%TO.N,Net-(D13-A)*%
X264504700Y-152648700D03*
%TD*%
D10*
%TO.P,SW32,1,1_1*%
%TO.N,/left/col3*%
X75835000Y-133116400D03*
%TO.P,SW32,2,2_2*%
%TO.N,Net-(D32-A)*%
X69485000Y-135656400D03*
%TD*%
D11*
%TO.P,D15,1,K_1*%
%TO.N,/right/row3*%
X256884700Y-159748700D03*
D12*
%TO.P,D15,2,A_2*%
%TO.N,Net-(D15-A)*%
X264504700Y-159748700D03*
%TD*%
D10*
%TO.P,SW44,1,1_1*%
%TO.N,/left/col5*%
X115355000Y-94041400D03*
%TO.P,SW44,2,2_2*%
%TO.N,Net-(D44-A)*%
X109005000Y-96581400D03*
%TD*%
%TO.P,SW2,1,1_1*%
%TO.N,/right/col2*%
X196504700Y-54788700D03*
%TO.P,SW2,2,2_2*%
%TO.N,Net-(D2-A)*%
X190154700Y-57328700D03*
%TD*%
%TO.P,SW25,1,1_1*%
%TO.N,/left/col1*%
X56505000Y-113386400D03*
%TO.P,SW25,2,2_2*%
%TO.N,Net-(D25-A)*%
X50155000Y-115926400D03*
%TD*%
D19*
%TO.P,U2,1,GND_1*%
%TO.N,/left/gndLeft*%
X60195000Y-38476400D03*
D20*
%TO.P,U2,2,VCC_IN_2*%
%TO.N,/left/leftPower*%
X62735000Y-38476400D03*
%TO.P,U2,3,SCL_3*%
%TO.N,/left/scl*%
X65275000Y-38476400D03*
%TO.P,U2,4,SDA_4*%
%TO.N,/left/sda*%
X67815000Y-38476400D03*
D21*
%TO.P,U2,S1*%
%TO.N,N/C*%
X53005000Y-38976400D03*
%TO.P,U2,S2*%
X75005000Y-38976400D03*
%TO.P,U2,S3*%
X75005000Y-60976400D03*
%TO.P,U2,S4*%
X53005000Y-60976400D03*
%TD*%
D16*
%TO.P,A3,1,GPIO0_1*%
%TO.N,unconnected-(A3-GPIO0-Pad1)*%
X160184700Y-53168700D03*
D12*
%TO.P,A3,2,GPIO1_2*%
%TO.N,unconnected-(A3-GPIO1-Pad2)*%
X160184700Y-55708700D03*
D17*
%TO.P,A3,3,GND_3*%
%TO.N,/right/gndRight*%
X160184700Y-58248700D03*
D12*
%TO.P,A3,4,GPIO2_4*%
%TO.N,unconnected-(A3-GPIO2-Pad4)*%
X160184700Y-60788700D03*
%TO.P,A3,5,GPIO3_5*%
%TO.N,unconnected-(A3-GPIO3-Pad5)*%
X160184700Y-63328700D03*
%TO.P,A3,6,GPIO4_6*%
%TO.N,/right/gpio6*%
X160184700Y-65868700D03*
%TO.P,A3,7,GPIO5_7*%
%TO.N,/right/gpio7*%
X160184700Y-68408700D03*
D17*
%TO.P,A3,8,GND_8*%
%TO.N,/right/gndRight*%
X160184700Y-70948700D03*
D12*
%TO.P,A3,9,GPIO6_9*%
%TO.N,unconnected-(A3-GPIO6-Pad9)*%
X160184700Y-73488700D03*
%TO.P,A3,10,GPIO7_10*%
%TO.N,unconnected-(A3-GPIO7-Pad10)*%
X160184700Y-76028700D03*
%TO.P,A3,11,GPIO8_11*%
%TO.N,unconnected-(A3-GPIO8-Pad11)*%
X160184700Y-78568700D03*
%TO.P,A3,12,GPIO9_12*%
%TO.N,unconnected-(A3-GPIO9-Pad12)*%
X160184700Y-81108700D03*
D17*
%TO.P,A3,13,GND_13*%
%TO.N,/right/gndRight*%
X160184700Y-83648700D03*
D12*
%TO.P,A3,14,GPIO10_14*%
%TO.N,unconnected-(A3-GPIO10-Pad14)*%
X160184700Y-86188700D03*
%TO.P,A3,15,GPIO11_15*%
%TO.N,/right/col1*%
X160184700Y-88728700D03*
%TO.P,A3,16,GPIO12_16*%
%TO.N,/right/col2*%
X160184700Y-91268700D03*
%TO.P,A3,17,GPIO13_17*%
%TO.N,/right/col3*%
X160184700Y-93808700D03*
D17*
%TO.P,A3,18,GND_18*%
%TO.N,/right/gndRight*%
X160184700Y-96348700D03*
D12*
%TO.P,A3,19,GPIO14_19*%
%TO.N,/right/col4*%
X160184700Y-98888700D03*
%TO.P,A3,20,GPIO15_20*%
%TO.N,/right/col5*%
X160184700Y-101428700D03*
%TO.P,A3,21,GPIO16_21*%
%TO.N,/right/row1*%
X177964700Y-101428700D03*
%TO.P,A3,22,GPIO17_22*%
%TO.N,/right/row2*%
X177964700Y-98888700D03*
D18*
%TO.P,A3,23,GND_23*%
%TO.N,/right/gndRight*%
X177964700Y-96348700D03*
D12*
%TO.P,A3,24,GPIO18_24*%
%TO.N,/right/row3*%
X177964700Y-93808700D03*
%TO.P,A3,25,GPIO19_25*%
%TO.N,/right/row4*%
X177964700Y-91268700D03*
%TO.P,A3,26,GPIO20_26*%
%TO.N,/right/row5*%
X177964700Y-88728700D03*
%TO.P,A3,27,GPIO21_27*%
%TO.N,unconnected-(A3-GPIO21-Pad27)*%
X177964700Y-86188700D03*
D18*
%TO.P,A3,28,GND_28*%
%TO.N,/right/gndRight*%
X177964700Y-83648700D03*
D12*
%TO.P,A3,29,GPIO22_29*%
%TO.N,unconnected-(A3-GPIO22-Pad29)*%
X177964700Y-81108700D03*
%TO.P,A3,30,RUN_30*%
%TO.N,unconnected-(A3-RUN-Pad30)*%
X177964700Y-78568700D03*
%TO.P,A3,31,GPIO26_ADC0_31*%
%TO.N,/right/scl*%
X177964700Y-76028700D03*
%TO.P,A3,32,GPIO27_ADC1_32*%
%TO.N,/right/sda*%
X177964700Y-73488700D03*
D18*
%TO.P,A3,33,AGND_33*%
%TO.N,unconnected-(A3-AGND-Pad33)*%
X177964700Y-70948700D03*
D12*
%TO.P,A3,34,GPIO28_ADC2_34*%
%TO.N,unconnected-(A3-GPIO28_ADC2-Pad34)*%
X177964700Y-68408700D03*
%TO.P,A3,35,ADC_VREF_35*%
%TO.N,unconnected-(A3-ADC_VREF-Pad35)*%
X177964700Y-65868700D03*
%TO.P,A3,36,3V3_36*%
%TO.N,/right/rightPower*%
X177964700Y-63328700D03*
%TO.P,A3,37,3V3_EN_37*%
%TO.N,unconnected-(A3-3V3_EN-Pad37)*%
X177964700Y-60788700D03*
D18*
%TO.P,A3,38,GND_38*%
%TO.N,/right/gndRight*%
X177964700Y-58248700D03*
D12*
%TO.P,A3,39,VSYS_39*%
%TO.N,unconnected-(A3-VSYS-Pad39)*%
X177964700Y-55708700D03*
%TO.P,A3,40,VBUS_40*%
%TO.N,unconnected-(A3-VBUS-Pad40)*%
X177964700Y-53168700D03*
%TD*%
D11*
%TO.P,D27,1,K_1*%
%TO.N,/left/row1*%
X45735000Y-168476400D03*
D12*
%TO.P,D27,2,A_2*%
%TO.N,Net-(D27-A)*%
X53355000Y-168476400D03*
%TD*%
D22*
%TO.N,/right/row4*%
X221724200Y-91268700D03*
%TO.N,/left/row4*%
X130154000Y-90752600D03*
%TO.N,/left/row2*%
X136654000Y-151160000D03*
%TO.N,Net-(D36-A)*%
X88978100Y-132106000D03*
X97962900Y-132077000D03*
%TO.N,Net-(D30-A)*%
X80445100Y-138290000D03*
X91061300Y-142201000D03*
%TO.N,/left/col5*%
X118510000Y-97094700D03*
%TO.N,/left/gpio7*%
X127279000Y-70507700D03*
%TO.N,/right/col1*%
X222327400Y-113473700D03*
%TO.N,/left/row1*%
X88978100Y-130273000D03*
%TO.N,/right/col5*%
X238504500Y-95560900D03*
%TO.N,/left/row3*%
X120094000Y-94483700D03*
%TO.N,/left/row5*%
X85414100Y-93426400D03*
%TO.N,/left/scl*%
X126907000Y-43008300D03*
%TO.N,/left/sda*%
X129030000Y-37831400D03*
%TO.N,Net-(D37-A)*%
X89376500Y-127318000D03*
X99367400Y-129478000D03*
%TO.N,Net-(D38-A)*%
X102918000Y-96532300D03*
%TO.N,Net-(D40-A)*%
X85129800Y-150158000D03*
%TO.N,/right/scl*%
X240233900Y-64032500D03*
%TD*%
%TO.N,/left/col1*%
D23*
X56567800Y-94039200D02*
X56567800Y-113324000D01*
X56567800Y-94039200D02*
X56567800Y-113324000D01*
X56567800Y-113449000D02*
X56567800Y-132974000D01*
X56567800Y-132974000D02*
X56380000Y-133161000D01*
X56505000Y-113386000D02*
X56567800Y-113449000D01*
X56567800Y-113324000D02*
X56505000Y-113386000D01*
X56688900Y-74535300D02*
X56688900Y-93792500D01*
X56630000Y-74476400D02*
X56688900Y-74535300D01*
X56505000Y-93976400D02*
X56567800Y-94039200D01*
X56567800Y-132974000D02*
X56380000Y-133161000D01*
X56567800Y-113449000D02*
X56567800Y-132974000D01*
X56505000Y-93976400D02*
X56567800Y-94039200D01*
X56688900Y-93792500D02*
X56505000Y-93976400D01*
X56567800Y-113324000D02*
X56505000Y-113386000D01*
%TO.N,Net-(D24-A)*%
X47358300Y-116596000D02*
X47358300Y-138822000D01*
X54501700Y-145965000D02*
X54501700Y-156680000D01*
X47358300Y-138822000D02*
X54501700Y-145965000D01*
X47358300Y-138822000D02*
X54501700Y-145965000D01*
X50326300Y-96687700D02*
X50326300Y-113628000D01*
X50326300Y-96687700D02*
X50326300Y-113628000D01*
X53355000Y-157826400D02*
X53355000Y-157826000D01*
X54501700Y-156680000D02*
X53355000Y-157826000D01*
X54501700Y-145965000D02*
X54501700Y-156680000D01*
X50155000Y-96516400D02*
X50326300Y-96687700D01*
X50326300Y-113628000D02*
X47358300Y-116596000D01*
X47358300Y-116596000D02*
X47358300Y-138822000D01*
X50326300Y-113628000D02*
X47358300Y-116596000D01*
X54501700Y-156680000D02*
X53355000Y-157826000D01*
%TO.N,/right/row1*%
X177964700Y-101428700D02*
X186686400Y-110150400D01*
X209264700Y-159698700D02*
X209264700Y-163248700D01*
X186686400Y-110150400D02*
X186686400Y-121719700D01*
X209264700Y-144298000D02*
X209264700Y-152598700D01*
X186686400Y-121719700D02*
X209264700Y-144298000D01*
X209264700Y-156148700D02*
X209264700Y-159698700D01*
X209264700Y-152598700D02*
X209264700Y-156148700D01*
%TO.N,Net-(D2-A)*%
X201601000Y-92886300D02*
X201601000Y-126211300D01*
X215336300Y-146567800D02*
X215336300Y-154600300D01*
X205756700Y-137147300D02*
X210208600Y-141599200D01*
X197317900Y-88603200D02*
X201601000Y-92886300D01*
X210367700Y-141599200D02*
X215336300Y-146567800D01*
X190611600Y-57785600D02*
X190611600Y-72548500D01*
X197317900Y-79254800D02*
X197317900Y-88603200D01*
X190611600Y-72548500D02*
X197317900Y-79254800D01*
X201601000Y-126211300D02*
X205756700Y-130367000D01*
X190154700Y-57328700D02*
X190611600Y-57785600D01*
X215336300Y-154600300D02*
X216884700Y-156148700D01*
X210208600Y-141599200D02*
X210367700Y-141599200D01*
X205756700Y-130367000D02*
X205756700Y-137147300D01*
%TO.N,/right/row5*%
X177964700Y-88728700D02*
X179404500Y-90168500D01*
X210367400Y-169356000D02*
X209574700Y-170148700D01*
X179404500Y-94682400D02*
X194786400Y-110064300D01*
X194786400Y-110064300D02*
X194786400Y-127881000D01*
X194786400Y-127881000D02*
X210367400Y-143462000D01*
X210367400Y-143462000D02*
X210367400Y-169356000D01*
X179404500Y-90168500D02*
X179404500Y-94682400D01*
%TO.N,Net-(D22-A)*%
X249686600Y-136645600D02*
X249229700Y-136188700D01*
X253694700Y-169648700D02*
X249686600Y-165640600D01*
X249686600Y-165640600D02*
X249686600Y-136645600D01*
%TO.N,/right/row4*%
X221724200Y-143518200D02*
X221724200Y-91268700D01*
X230804700Y-156148700D02*
X230804700Y-159698700D01*
X230804700Y-152598700D02*
X221724200Y-143518200D01*
X230804700Y-159698700D02*
X230804700Y-163248700D01*
X230804700Y-152598700D02*
X230804700Y-156148700D01*
%TO.N,Net-(D23-A)*%
X50451300Y-85786000D02*
X46956600Y-89280700D01*
X50451300Y-85786000D02*
X46956600Y-89280700D01*
X46956600Y-147878000D02*
X53355000Y-154276000D01*
X46956600Y-89280700D02*
X46956600Y-147878000D01*
X46956600Y-147878000D02*
X53355000Y-154276000D01*
X50451300Y-77187700D02*
X50451300Y-85786000D01*
X50280000Y-77016400D02*
X50451300Y-77187700D01*
X50451300Y-77187700D02*
X50451300Y-85786000D01*
X46956600Y-89280700D02*
X46956600Y-147878000D01*
X53355000Y-154276400D02*
X53355000Y-154276000D01*
%TO.N,/left/row4*%
X103385000Y-141649000D02*
X115731000Y-129302000D01*
X100740000Y-163284000D02*
X103385000Y-160640000D01*
X69049900Y-166702000D02*
X77329900Y-166702000D01*
X129224000Y-90752600D02*
X130154000Y-90752600D01*
X129224000Y-90752600D02*
X130154000Y-90752600D01*
X115731000Y-105800000D02*
X127827000Y-93703900D01*
X103385000Y-141649000D02*
X115731000Y-129302000D01*
X95033100Y-163284000D02*
X100740000Y-163284000D01*
X67275000Y-168476000D02*
X69049900Y-166702000D01*
X127827000Y-92150400D02*
X129224000Y-90752600D01*
X93275000Y-161526000D02*
X95033100Y-163284000D01*
X115731000Y-129302000D02*
X115731000Y-105800000D01*
X103385000Y-160640000D02*
X103385000Y-141649000D01*
X100740000Y-163284000D02*
X103385000Y-160640000D01*
X69049900Y-166702000D02*
X77329900Y-166702000D01*
X127827000Y-93703900D02*
X127827000Y-92150400D01*
X127827000Y-92150400D02*
X129224000Y-90752600D01*
X103385000Y-160640000D02*
X103385000Y-141649000D01*
X77329900Y-166702000D02*
X82505000Y-161526000D01*
X115731000Y-129302000D02*
X115731000Y-105800000D01*
X127827000Y-93703900D02*
X127827000Y-92150400D01*
X115731000Y-105800000D02*
X127827000Y-93703900D01*
X95033100Y-163284000D02*
X100740000Y-163284000D01*
X77329900Y-166702000D02*
X82505000Y-161526000D01*
%TO.N,Net-(D26-A)*%
X52208000Y-160773000D02*
X54903500Y-158078000D01*
X52208000Y-160773000D02*
X54903500Y-158078000D01*
X53355000Y-164926400D02*
X53355000Y-164926000D01*
X54903500Y-144671000D02*
X50459700Y-140228000D01*
X53355000Y-164926000D02*
X52208000Y-163779000D01*
X50459700Y-140228000D02*
X50459700Y-136131000D01*
X54903500Y-144671000D02*
X50459700Y-140228000D01*
X50459700Y-136131000D02*
X50030000Y-135701000D01*
X52208000Y-163779000D02*
X52208000Y-160773000D01*
X52208000Y-163779000D02*
X52208000Y-160773000D01*
X54903500Y-158078000D02*
X54903500Y-144671000D01*
X50459700Y-140228000D02*
X50459700Y-136131000D01*
X50459700Y-136131000D02*
X50030000Y-135701000D01*
X54903500Y-158078000D02*
X54903500Y-144671000D01*
%TO.N,Net-(D20-A)*%
X249485500Y-99766500D02*
X241569500Y-107682500D01*
X241569500Y-107682500D02*
X241569500Y-160103900D01*
X249485500Y-96864500D02*
X249485500Y-99766500D01*
X249309700Y-96688700D02*
X249485500Y-96864500D01*
X241569500Y-160103900D02*
X238424700Y-163248700D01*
%TO.N,/left/row2*%
X75305100Y-166095000D02*
X80179500Y-161221000D01*
X71993800Y-166095000D02*
X75305100Y-166095000D01*
X141346000Y-146468000D02*
X141346000Y-105655000D01*
X71993800Y-166095000D02*
X75305100Y-166095000D01*
X80179500Y-161221000D02*
X80179500Y-156752000D01*
X141346000Y-105655000D02*
X147285000Y-99716400D01*
X75305100Y-166095000D02*
X80179500Y-161221000D01*
X141346000Y-105655000D02*
X147285000Y-99716400D01*
X136654000Y-151160000D02*
X141346000Y-146468000D01*
X80179500Y-161221000D02*
X80179500Y-156752000D01*
X67275000Y-161376000D02*
X71993800Y-166095000D01*
X80179500Y-156752000D02*
X82505000Y-154426000D01*
X141346000Y-146468000D02*
X141346000Y-105655000D01*
X80179500Y-156752000D02*
X82505000Y-154426000D01*
%TO.N,Net-(D36-A)*%
X100895000Y-154426400D02*
X100895000Y-154426000D01*
X89579800Y-130523000D02*
X88978100Y-131124000D01*
X89526300Y-57567700D02*
X89526300Y-66132300D01*
X100895000Y-135009000D02*
X97962900Y-132077000D01*
X89355000Y-57396400D02*
X89526300Y-57567700D01*
X89526300Y-66132300D02*
X86021100Y-69637500D01*
X89579800Y-130007000D02*
X89579800Y-130523000D01*
X88978100Y-131124000D02*
X88978100Y-132106000D01*
X89526300Y-66132300D02*
X86021100Y-69637500D01*
X89579800Y-130007000D02*
X89579800Y-130523000D01*
X86021100Y-69637500D02*
X86021100Y-126449000D01*
X100895000Y-135009000D02*
X97962900Y-132077000D01*
X100895000Y-154426000D02*
X100895000Y-135009000D01*
X88978100Y-131124000D02*
X88978100Y-132106000D01*
X86021100Y-126449000D02*
X89579800Y-130007000D01*
X86021100Y-126449000D02*
X89579800Y-130007000D01*
X89579800Y-130523000D02*
X88978100Y-131124000D01*
X89526300Y-57567700D02*
X89526300Y-66132300D01*
X86021100Y-69637500D02*
X86021100Y-126449000D01*
%TO.N,/right/row3*%
X256884700Y-156198700D02*
X256884700Y-159748700D01*
X220034700Y-159698700D02*
X220034700Y-163248700D01*
X256884700Y-152648700D02*
X256884700Y-156198700D01*
%TO.N,Net-(D12-A)*%
X210006600Y-135565600D02*
X210006600Y-139487100D01*
X218718200Y-155991800D02*
X218718200Y-156783000D01*
X219858900Y-157923700D02*
X222329700Y-157923700D01*
X210006600Y-139487100D02*
X215738000Y-145218500D01*
X218718200Y-156783000D02*
X219858900Y-157923700D01*
X215738000Y-153011600D02*
X218718200Y-155991800D01*
X222329700Y-157923700D02*
X227654700Y-163248700D01*
X209549700Y-135108700D02*
X210006600Y-135565600D01*
X215738000Y-145218500D02*
X215738000Y-153011600D01*
%TO.N,Net-(D30-A)*%
X70066900Y-96928300D02*
X70066900Y-105433000D01*
X91267800Y-142408000D02*
X91061300Y-142201000D01*
X70066900Y-96928300D02*
X70066900Y-105433000D01*
X70066900Y-105433000D02*
X80445100Y-115812000D01*
X90125000Y-161526400D02*
X90125000Y-161526000D01*
X70066900Y-105433000D02*
X80445100Y-115812000D01*
X69610000Y-96471400D02*
X70066900Y-96928300D01*
X91267800Y-142408000D02*
X91061300Y-142201000D01*
X80445100Y-115812000D02*
X80445100Y-138290000D01*
X91267800Y-160384000D02*
X91267800Y-142408000D01*
X90125000Y-161526000D02*
X91267800Y-160384000D01*
X91267800Y-160384000D02*
X91267800Y-142408000D01*
X80445100Y-115812000D02*
X80445100Y-138290000D01*
%TO.N,/left/col5*%
X115480000Y-74266400D02*
X115531000Y-74317200D01*
X95330000Y-129473000D02*
X95330000Y-133321000D01*
X115605000Y-35356400D02*
X115656000Y-35407200D01*
X115355000Y-94041400D02*
X104551000Y-94041400D01*
X103636000Y-94956200D02*
X102500000Y-94956200D01*
X115531000Y-54907200D02*
X115531000Y-74215600D01*
X101502000Y-95954700D02*
X101502000Y-123301000D01*
X115531000Y-74317200D02*
X115531000Y-93865600D01*
X115531000Y-74215600D02*
X115480000Y-74266400D01*
X104551000Y-94041400D02*
X103636000Y-94956200D01*
X95330000Y-133321400D02*
X95330000Y-133321000D01*
X115656000Y-54680600D02*
X115480000Y-54856400D01*
X102500000Y-94956200D02*
X101502000Y-95954700D01*
X101502000Y-95954700D02*
X101502000Y-123301000D01*
X103636000Y-94956200D02*
X102500000Y-94956200D01*
X104551000Y-94041400D02*
X103636000Y-94956200D01*
X115480000Y-54856400D02*
X115531000Y-54907200D01*
X115531000Y-93865600D02*
X115355000Y-94041400D01*
X115656000Y-54680600D02*
X115480000Y-54856400D01*
X115531000Y-74215600D02*
X115480000Y-74266400D01*
X115656000Y-35407200D02*
X115656000Y-54680600D01*
X102500000Y-94956200D02*
X101502000Y-95954700D01*
X101502000Y-123301000D02*
X95330000Y-129473000D01*
X115456000Y-94041400D02*
X118510000Y-97094700D01*
X101502000Y-123301000D02*
X95330000Y-129473000D01*
X115531000Y-74317200D02*
X115531000Y-93865600D01*
X115531000Y-93865600D02*
X115355000Y-94041400D01*
X115355000Y-94041400D02*
X115456000Y-94041400D01*
X95330000Y-129473000D02*
X95330000Y-133321000D01*
X115531000Y-54907200D02*
X115531000Y-74215600D01*
X115456000Y-94041400D02*
X118510000Y-97094700D01*
X115656000Y-35407200D02*
X115656000Y-54680600D01*
%TO.N,Net-(D43-A)*%
X90225000Y-152265000D02*
X85877800Y-156612000D01*
X92296600Y-134969000D02*
X90225000Y-137041000D01*
X109290000Y-87598400D02*
X101100000Y-95788400D01*
X90225000Y-152265000D02*
X85877800Y-156612000D01*
X109290000Y-76966700D02*
X109290000Y-87598400D01*
X101100000Y-95788400D02*
X101100000Y-122567000D01*
X92296600Y-131370000D02*
X92296600Y-134969000D01*
X85877800Y-160061000D02*
X77462000Y-168476000D01*
X92296600Y-134969000D02*
X90225000Y-137041000D01*
X101100000Y-122567000D02*
X92296600Y-131370000D01*
X77462000Y-168476000D02*
X74895000Y-168476000D01*
X92296600Y-131370000D02*
X92296600Y-134969000D01*
X109290000Y-87598400D02*
X101100000Y-95788400D01*
X109130000Y-76806400D02*
X109290000Y-76966700D01*
X85877800Y-156612000D02*
X85877800Y-160061000D01*
X101100000Y-95788400D02*
X101100000Y-122567000D01*
X101100000Y-122567000D02*
X92296600Y-131370000D01*
X85877800Y-160061000D02*
X77462000Y-168476000D01*
X77462000Y-168476000D02*
X74895000Y-168476000D01*
X109290000Y-76966700D02*
X109290000Y-87598400D01*
X90225000Y-137041000D02*
X90225000Y-152265000D01*
X85877800Y-156612000D02*
X85877800Y-160061000D01*
X74895000Y-168476400D02*
X74895000Y-168476000D01*
X90225000Y-137041000D02*
X90225000Y-152265000D01*
%TO.N,/right/row2*%
X246114700Y-159748700D02*
X246114700Y-163298700D01*
X246114700Y-156198700D02*
X246114700Y-159748700D01*
X220034700Y-152598700D02*
X220034700Y-156148700D01*
%TO.N,Net-(D9-A)*%
X227654700Y-152598700D02*
X219951400Y-144895400D01*
X219951400Y-96206400D02*
X210166600Y-86421600D01*
X210166600Y-86421600D02*
X210166600Y-77510600D01*
X219951400Y-144895400D02*
X219951400Y-96206400D01*
X210166600Y-77510600D02*
X209709700Y-77053700D01*
%TO.N,/left/gpio6*%
X126677000Y-69524200D02*
X126677000Y-92327900D01*
X126677000Y-69524200D02*
X126677000Y-92327900D01*
X105330000Y-113675000D02*
X105005000Y-113675000D01*
X105005000Y-114976400D02*
X105005000Y-114976000D01*
X126677000Y-92327900D02*
X105330000Y-113675000D01*
X126677000Y-69524200D02*
X126677000Y-92327900D01*
X126677000Y-92327900D02*
X105330000Y-113675000D01*
X126677000Y-92327900D02*
X105330000Y-113675000D01*
X105330000Y-113675000D02*
X105005000Y-113675000D01*
X129505000Y-66696400D02*
X126677000Y-69524200D01*
X105330000Y-113675000D02*
X105005000Y-113675000D01*
X129505000Y-66696400D02*
X126677000Y-69524200D01*
X105005000Y-113675000D02*
X105005000Y-114976000D01*
%TO.N,/left/gpio7*%
X127279000Y-70507700D02*
X127279000Y-92955500D01*
X108724000Y-116257000D02*
X105005000Y-119976000D01*
X127279000Y-92955500D02*
X108724000Y-111510000D01*
X108724000Y-111510000D02*
X108724000Y-116257000D01*
X105005000Y-119976400D02*
X105005000Y-119976000D01*
X108724000Y-116257000D02*
X105005000Y-119976000D01*
X127279000Y-92955500D02*
X108724000Y-111510000D01*
X108724000Y-111510000D02*
X108724000Y-116257000D01*
%TO.N,/left/gndLeft*%
X129680000Y-68134700D02*
X129031000Y-68134700D01*
X128396000Y-72885700D02*
X128396000Y-83367100D01*
X148455000Y-96006600D02*
X148455000Y-85646200D01*
X129505000Y-97176400D02*
X130777000Y-95904300D01*
X128367000Y-70638400D02*
X129505000Y-71776400D01*
X130642000Y-60213400D02*
X130642000Y-67172900D01*
X148455000Y-96006600D02*
X148455000Y-85646200D01*
X130642000Y-67172900D02*
X129680000Y-68134700D01*
X130777000Y-95904300D02*
X130777000Y-85748500D01*
X130642000Y-67172900D02*
X129680000Y-68134700D01*
X147285000Y-97176400D02*
X148455000Y-96006600D01*
X128367000Y-68798700D02*
X128367000Y-70638400D01*
X148455000Y-85646200D02*
X147285000Y-84476400D01*
X130777000Y-85748500D02*
X129505000Y-84476400D01*
X128396000Y-83367100D02*
X129505000Y-84476400D01*
X148455000Y-85646200D02*
X147285000Y-84476400D01*
X129680000Y-68134700D02*
X129031000Y-68134700D01*
X129031000Y-68134700D02*
X128367000Y-68798700D01*
X130777000Y-95904300D02*
X130777000Y-85748500D01*
X129031000Y-68134700D02*
X128367000Y-68798700D01*
X128367000Y-68798700D02*
X128367000Y-70638400D01*
X128367000Y-70638400D02*
X129505000Y-71776400D01*
X128396000Y-72885700D02*
X128396000Y-83367100D01*
X129505000Y-59076400D02*
X130642000Y-60213400D01*
X128396000Y-83367100D02*
X129505000Y-84476400D01*
X130777000Y-85748500D02*
X129505000Y-84476400D01*
X129505000Y-71776400D02*
X128396000Y-72885700D01*
X130642000Y-60213400D02*
X130642000Y-67172900D01*
%TO.N,/left/col2*%
X127968000Y-99746700D02*
X127968000Y-94154100D01*
X129039000Y-100818000D02*
X127968000Y-99746700D01*
X130608000Y-101723000D02*
X129702000Y-100818000D01*
X76183300Y-93708100D02*
X75960000Y-93931400D01*
X130608000Y-101723000D02*
X129702000Y-100818000D01*
X116545000Y-134396000D02*
X116596000Y-134447000D01*
X127968000Y-94154100D02*
X129505000Y-92617100D01*
X127968000Y-94154100D02*
X129505000Y-92617100D01*
X130608000Y-120334000D02*
X130608000Y-101723000D01*
X76183300Y-74529700D02*
X76183300Y-93708100D01*
X116596000Y-134447000D02*
X116545000Y-134396000D01*
X116545000Y-134396000D02*
X130608000Y-120334000D01*
X129505000Y-92617100D02*
X129505000Y-92096400D01*
X116420000Y-153991000D02*
X116596000Y-153816000D01*
X129702000Y-100818000D02*
X129039000Y-100818000D01*
X127968000Y-99746700D02*
X127968000Y-94154100D01*
X130608000Y-120334000D02*
X130608000Y-101723000D01*
X129702000Y-100818000D02*
X129039000Y-100818000D01*
X116596000Y-153816000D02*
X116596000Y-134447000D01*
X116596000Y-134447000D02*
X116596000Y-153816000D01*
X76085000Y-74431400D02*
X76183300Y-74529700D01*
X129039000Y-100818000D02*
X127968000Y-99746700D01*
X116420000Y-153991400D02*
X116420000Y-153991000D01*
X76183300Y-74529700D02*
X76183300Y-93708100D01*
X129505000Y-92617100D02*
X129505000Y-92096400D01*
X116596000Y-153816000D02*
X116420000Y-153991000D01*
X76183300Y-93708100D02*
X75960000Y-93931400D01*
%TO.N,Net-(D29-A)*%
X63015000Y-162240000D02*
X63015000Y-92632300D01*
X90125000Y-157976000D02*
X84170200Y-163931000D01*
X69906300Y-85741000D02*
X69906300Y-77142700D01*
X69906300Y-77142700D02*
X69735000Y-76971400D01*
X66270000Y-170004000D02*
X65758300Y-169492000D01*
X84170200Y-163931000D02*
X84170200Y-168701000D01*
X63015000Y-162240000D02*
X63015000Y-92632300D01*
X63015000Y-92632300D02*
X69906300Y-85741000D01*
X66270000Y-170004000D02*
X65758300Y-169492000D01*
X82867100Y-170004000D02*
X66270000Y-170004000D01*
X63015000Y-92632300D02*
X69906300Y-85741000D01*
X65758300Y-169492000D02*
X65758300Y-164984000D01*
X84170200Y-168701000D02*
X82867100Y-170004000D01*
X84170200Y-168701000D02*
X82867100Y-170004000D01*
X69906300Y-77142700D02*
X69735000Y-76971400D01*
X69906300Y-85741000D02*
X69906300Y-77142700D01*
X84170200Y-163931000D02*
X84170200Y-168701000D01*
X65758300Y-169492000D02*
X65758300Y-164984000D01*
X65758300Y-164984000D02*
X63015000Y-162240000D01*
X65758300Y-164984000D02*
X63015000Y-162240000D01*
X82867100Y-170004000D02*
X66270000Y-170004000D01*
%TO.N,Net-(D42-A)*%
X89293700Y-133511000D02*
X84114500Y-138690000D01*
X84114500Y-138690000D02*
X84114500Y-147477000D01*
X89293700Y-133511000D02*
X84114500Y-138690000D01*
X84114500Y-138690000D02*
X84114500Y-147477000D01*
X109130000Y-57396400D02*
X109306000Y-57572200D01*
X100699000Y-82608800D02*
X100699000Y-122373000D01*
X76919000Y-162902000D02*
X74895000Y-164926000D01*
X109306000Y-74001600D02*
X100699000Y-82608800D01*
X84114500Y-147477000D02*
X76919000Y-154672000D01*
X76919000Y-162902000D02*
X74895000Y-164926000D01*
X100699000Y-122373000D02*
X89559900Y-133511000D01*
X89559900Y-133511000D02*
X89293700Y-133511000D01*
X84114500Y-147477000D02*
X76919000Y-154672000D01*
X76919000Y-154672000D02*
X76919000Y-162902000D01*
X76919000Y-154672000D02*
X76919000Y-162902000D01*
X109306000Y-57572200D02*
X109306000Y-74001600D01*
X89559900Y-133511000D02*
X89293700Y-133511000D01*
X109306000Y-57572200D02*
X109306000Y-74001600D01*
X100699000Y-82608800D02*
X100699000Y-122373000D01*
X109306000Y-74001600D02*
X100699000Y-82608800D01*
X74895000Y-164926400D02*
X74895000Y-164926000D01*
X100699000Y-122373000D02*
X89559900Y-133511000D01*
%TO.N,/right/col1*%
X222327400Y-120171400D02*
X222327400Y-113473700D01*
X235804700Y-133648700D02*
X222327400Y-120171400D01*
%TO.N,Net-(D11-A)*%
X228762200Y-158591200D02*
X227654700Y-159698700D01*
X213990300Y-125382600D02*
X213990300Y-132724500D01*
X216911900Y-138240400D02*
X219439500Y-140768000D01*
X213990300Y-132724500D02*
X216911900Y-135646100D01*
X216911900Y-135646100D02*
X216911900Y-138240400D01*
X219439500Y-146359100D02*
X228762200Y-155681800D01*
X209549700Y-116013700D02*
X210006600Y-116470600D01*
X210006600Y-116470600D02*
X210006600Y-121398900D01*
X210006600Y-121398900D02*
X213990300Y-125382600D01*
X228762200Y-155681800D02*
X228762200Y-158591200D01*
X219439500Y-140768000D02*
X219439500Y-146359100D01*
%TO.N,/left/row1*%
X71063100Y-149091000D02*
X83761700Y-136393000D01*
X83761700Y-136393000D02*
X83761700Y-135490000D01*
X71063100Y-154038000D02*
X71063100Y-149091000D01*
X71063100Y-149091000D02*
X83761700Y-136393000D01*
X83761700Y-136393000D02*
X83761700Y-135490000D01*
X67275000Y-157826000D02*
X71063100Y-154038000D01*
X83761700Y-135490000D02*
X88978100Y-130273000D01*
X83761700Y-135490000D02*
X88978100Y-130273000D01*
X71063100Y-154038000D02*
X71063100Y-149091000D01*
%TO.N,/right/col2*%
X206158500Y-80993900D02*
X208892000Y-83727400D01*
X208892000Y-89181100D02*
X211080900Y-91370000D01*
X210827000Y-98056000D02*
X210827000Y-110381000D01*
X196504700Y-54788700D02*
X196504700Y-48908600D01*
X215899700Y-126582700D02*
X215899700Y-132568700D01*
X158613200Y-115337200D02*
X176344700Y-133068700D01*
X210982700Y-110536700D02*
X210982700Y-116742400D01*
X196504700Y-48908600D02*
X210259600Y-35153700D01*
X210789200Y-116935900D02*
X210789200Y-121472200D01*
X158613200Y-92840200D02*
X158613200Y-115337200D01*
X210789200Y-121472200D02*
X215899700Y-126582700D01*
X211080900Y-97802100D02*
X210827000Y-98056000D01*
X210982700Y-116742400D02*
X210789200Y-116935900D01*
X210827000Y-110381000D02*
X210982700Y-110536700D01*
X160184700Y-91268700D02*
X158613200Y-92840200D01*
X196504700Y-54788700D02*
X206158500Y-64442500D01*
X208892000Y-83727400D02*
X208892000Y-89181100D01*
X206158500Y-64442500D02*
X206158500Y-80993900D01*
X210259600Y-35153700D02*
X216059700Y-35153700D01*
X211080900Y-91370000D02*
X211080900Y-97802100D01*
%TO.N,/right/col5*%
X191824700Y-133068700D02*
X196004700Y-133068700D01*
X236697900Y-113060500D02*
X236697900Y-97367500D01*
X235884700Y-113873700D02*
X236697900Y-113060500D01*
X236697900Y-97367500D02*
X238504500Y-95560900D01*
X160184700Y-101428700D02*
X191824700Y-133068700D01*
%TO.N,/left/col3*%
X129290000Y-98514100D02*
X129866000Y-98514100D01*
X128407000Y-97631200D02*
X129290000Y-98514100D01*
X136000000Y-134351000D02*
X136051000Y-134402000D01*
X136000000Y-104649000D02*
X136000000Y-134351000D01*
X136051000Y-153771000D02*
X135875000Y-153946000D01*
X129505000Y-94636400D02*
X128407000Y-95734200D01*
X136051000Y-153771000D02*
X135875000Y-153946000D01*
X136000000Y-104649000D02*
X136000000Y-134351000D01*
X129290000Y-98514100D02*
X129866000Y-98514100D01*
X129866000Y-98514100D02*
X136000000Y-104649000D01*
X129866000Y-98514100D02*
X136000000Y-104649000D01*
X136051000Y-134402000D02*
X136051000Y-153771000D01*
X128407000Y-97631200D02*
X129290000Y-98514100D01*
X128407000Y-95734200D02*
X128407000Y-97631200D01*
X128407000Y-95734200D02*
X128407000Y-97631200D01*
X136000000Y-134351000D02*
X136051000Y-134402000D01*
X75960000Y-113341000D02*
X76024500Y-113406000D01*
X76024500Y-132927000D02*
X75835000Y-133116000D01*
X76024500Y-113406000D02*
X76024500Y-132927000D01*
X136051000Y-134402000D02*
X136051000Y-153771000D01*
%TO.N,/left/col4*%
X95755700Y-74317100D02*
X95755700Y-93865700D01*
X95830000Y-35356400D02*
X95880800Y-35407200D01*
X95773200Y-74198200D02*
X95705000Y-74266400D01*
X95755700Y-93865700D02*
X95580000Y-94041400D01*
X95755700Y-93865700D02*
X95580000Y-94041400D01*
X95880800Y-54680600D02*
X95705000Y-54856400D01*
X95773200Y-54924600D02*
X95773200Y-74198200D01*
X95455000Y-113726400D02*
X95455000Y-113726000D01*
X95630800Y-94092200D02*
X95630800Y-113551000D01*
X95880800Y-54680600D02*
X95705000Y-54856400D01*
X95705000Y-74266400D02*
X95755700Y-74317100D01*
X95630800Y-94092200D02*
X95630800Y-113551000D01*
X95773200Y-54924600D02*
X95773200Y-74198200D01*
X95880800Y-35407200D02*
X95880800Y-54680600D01*
X95630800Y-113551000D02*
X95455000Y-113726000D01*
X95880800Y-35407200D02*
X95880800Y-54680600D01*
X95630800Y-113551000D02*
X95455000Y-113726000D01*
X95705000Y-54856400D02*
X95773200Y-54924600D01*
X95755700Y-74317100D02*
X95755700Y-93865700D01*
X95773200Y-74198200D02*
X95705000Y-74266400D01*
X95580000Y-94041400D02*
X95630800Y-94092200D01*
%TO.N,/left/row3*%
X101904000Y-96121000D02*
X101904000Y-123694000D01*
X92153300Y-152951000D02*
X92153300Y-156855000D01*
X120094000Y-96409400D02*
X118795000Y-97708800D01*
X95763400Y-149341000D02*
X92153300Y-152951000D01*
X104223000Y-95357900D02*
X102667000Y-95357900D01*
X101904000Y-123694000D02*
X96776900Y-128820000D01*
X112480000Y-95177500D02*
X104404000Y-95177500D01*
X95763400Y-134973000D02*
X95763400Y-149341000D01*
X96776900Y-133960000D02*
X95763400Y-134973000D01*
X95763400Y-149341000D02*
X92153300Y-152951000D01*
X118795000Y-97708800D02*
X115011000Y-97708800D01*
X96776900Y-133960000D02*
X95763400Y-134973000D01*
X96776900Y-128820000D02*
X96776900Y-133960000D01*
X120094000Y-96409400D02*
X118795000Y-97708800D01*
X104404000Y-95177500D02*
X104223000Y-95357900D01*
X104223000Y-95357900D02*
X102667000Y-95357900D01*
X93275000Y-157976400D02*
X93275000Y-157976000D01*
X101904000Y-123694000D02*
X96776900Y-128820000D01*
X112480000Y-95177500D02*
X104404000Y-95177500D01*
X95763400Y-134973000D02*
X95763400Y-149341000D01*
X92153300Y-156855000D02*
X93275000Y-157976000D01*
X92153300Y-152951000D02*
X92153300Y-156855000D01*
X92153300Y-156855000D02*
X93275000Y-157976000D01*
X102667000Y-95357900D02*
X101904000Y-96121000D01*
X101904000Y-96121000D02*
X101904000Y-123694000D01*
X118795000Y-97708800D02*
X115011000Y-97708800D01*
X102667000Y-95357900D02*
X101904000Y-96121000D01*
X104404000Y-95177500D02*
X104223000Y-95357900D01*
X115011000Y-97708800D02*
X112480000Y-95177500D01*
X115011000Y-97708800D02*
X112480000Y-95177500D01*
X120094000Y-94483700D02*
X120094000Y-96409400D01*
X96776900Y-128820000D02*
X96776900Y-133960000D01*
%TO.N,/left/row5*%
X71063100Y-148523000D02*
X81720200Y-137866000D01*
X66160000Y-156924000D02*
X67275000Y-155809000D01*
X66501300Y-169596000D02*
X66160000Y-169255000D01*
X67275000Y-155809000D02*
X67275000Y-154276000D01*
X66501300Y-169596000D02*
X66160000Y-169255000D01*
X66160000Y-169255000D02*
X66160000Y-156924000D01*
X81720200Y-137866000D02*
X81720200Y-97120300D01*
X81720200Y-97120300D02*
X85414100Y-93426400D01*
X67275000Y-152211000D02*
X70963100Y-148523000D01*
X66160000Y-169255000D02*
X66160000Y-156924000D01*
X66160000Y-156924000D02*
X67275000Y-155809000D01*
X70963100Y-148523000D02*
X71063100Y-148523000D01*
X81385300Y-169596000D02*
X66501300Y-169596000D01*
X70963100Y-148523000D02*
X71063100Y-148523000D01*
X82505000Y-168476000D02*
X81385300Y-169596000D01*
X81720200Y-137866000D02*
X81720200Y-97120300D01*
X71063100Y-148523000D02*
X81720200Y-137866000D01*
X81720200Y-97120300D02*
X85414100Y-93426400D01*
X67275000Y-155809000D02*
X67275000Y-152211000D01*
X82505000Y-168476000D02*
X81385300Y-169596000D01*
X81385300Y-169596000D02*
X66501300Y-169596000D01*
X67275000Y-152211000D02*
X70963100Y-148523000D01*
%TO.N,/left/scl*%
X138395000Y-54496700D02*
X126907000Y-43008300D01*
X138395000Y-67966400D02*
X138395000Y-54496700D01*
X147285000Y-76856400D02*
X138395000Y-67966400D01*
X138395000Y-54496700D02*
X126907000Y-43008300D01*
X138395000Y-67966400D02*
X138395000Y-54496700D01*
%TO.N,/left/sda*%
X129030000Y-37831400D02*
X145845000Y-54646500D01*
X145845000Y-72876600D02*
X147285000Y-74316400D01*
X145845000Y-54646500D02*
X145845000Y-72876600D01*
X145845000Y-54646500D02*
X145845000Y-72876600D01*
X145845000Y-72876600D02*
X147285000Y-74316400D01*
%TO.N,/right/col3*%
X177769600Y-121145200D02*
X159014900Y-102390500D01*
X216059700Y-54788700D02*
X235784700Y-74513700D01*
X176504700Y-136065900D02*
X177769600Y-134801000D01*
X159014900Y-102390500D02*
X159014900Y-94978500D01*
X159014900Y-94978500D02*
X160184700Y-93808700D01*
X176504700Y-152568700D02*
X176504700Y-136065900D01*
X235784700Y-74513700D02*
X235884700Y-74513700D01*
X177769600Y-134801000D02*
X177769600Y-121145200D01*
%TO.N,/right/col4*%
X255659700Y-74513700D02*
X255671400Y-74525400D01*
X257087000Y-92770400D02*
X257087000Y-95261400D01*
X255671400Y-91354800D02*
X257087000Y-92770400D01*
X216059700Y-74513700D02*
X235694700Y-94148700D01*
X235694700Y-94148700D02*
X235884700Y-94148700D01*
X255671400Y-74525400D02*
X255671400Y-91354800D01*
X257087000Y-95261400D02*
X256122700Y-96225700D01*
X256122700Y-113410700D02*
X255659700Y-113873700D01*
X256122700Y-96225700D02*
X256122700Y-113410700D01*
%TO.N,/right/gpio6*%
X176842600Y-106404900D02*
X176842600Y-82526600D01*
X176842600Y-82526600D02*
X160184700Y-65868700D01*
X185384700Y-116248700D02*
X185384700Y-114947000D01*
X185384700Y-114947000D02*
X176842600Y-106404900D01*
%TO.N,/right/gndRight*%
X161287000Y-72051000D02*
X160184700Y-70948700D01*
X160184700Y-83648700D02*
X161287000Y-82546400D01*
X161354500Y-95178900D02*
X161354500Y-84818500D01*
X160184700Y-96348700D02*
X161354500Y-95178900D01*
X161287000Y-82546400D02*
X161287000Y-72051000D01*
X161354500Y-84818500D02*
X160184700Y-83648700D01*
%TO.N,Net-(D3-A)*%
X190611600Y-77510600D02*
X190611600Y-86414600D01*
X190611600Y-86414600D02*
X201199300Y-97002300D01*
X201199300Y-132825100D02*
X205313700Y-136939500D01*
X210042300Y-142000900D02*
X210184300Y-142000900D01*
X213426400Y-156240400D02*
X216884700Y-159698700D01*
X190154700Y-77053700D02*
X190611600Y-77510600D01*
X205313700Y-136939500D02*
X205313700Y-137272300D01*
X213426400Y-145243000D02*
X213426400Y-156240400D01*
X210184300Y-142000900D02*
X213426400Y-145243000D01*
X205313700Y-137272300D02*
X210042300Y-142000900D01*
X201199300Y-97002300D02*
X201199300Y-132825100D01*
%TO.N,Net-(D10-A)*%
X209629700Y-96828700D02*
X209801000Y-97000000D01*
X219037800Y-147531800D02*
X227654700Y-156148700D01*
X206873200Y-108408000D02*
X206873200Y-126175400D01*
X206873200Y-126175400D02*
X216510200Y-135812400D01*
X219037800Y-140934300D02*
X219037800Y-147531800D01*
X209801000Y-97000000D02*
X209801000Y-105480200D01*
X216510200Y-138406700D02*
X219037800Y-140934300D01*
X216510200Y-135812400D02*
X216510200Y-138406700D01*
X209801000Y-105480200D02*
X206873200Y-108408000D01*
%TO.N,Net-(D32-A)*%
X69656300Y-140810000D02*
X69656300Y-135828000D01*
X64125000Y-157826000D02*
X65958500Y-155993000D01*
X65958500Y-155993000D02*
X65958500Y-144508000D01*
X65958500Y-144508000D02*
X69656300Y-140810000D01*
X65958500Y-144508000D02*
X69656300Y-140810000D01*
X69656300Y-135828000D02*
X69485000Y-135656000D01*
X65958500Y-155993000D02*
X65958500Y-144508000D01*
X64125000Y-157826400D02*
X64125000Y-157826000D01*
X69656300Y-135828000D02*
X69485000Y-135656000D01*
X69656300Y-140810000D02*
X69656300Y-135828000D01*
%TO.N,Net-(D41-A)*%
X109426000Y-51187500D02*
X100297000Y-60316900D01*
X109426000Y-38067700D02*
X109426000Y-51187500D01*
X100297000Y-122136000D02*
X89981500Y-132452000D01*
X76269800Y-160002000D02*
X74895000Y-161376000D01*
X100297000Y-60316900D02*
X100297000Y-122136000D01*
X83712800Y-139004000D02*
X76269800Y-146446000D01*
X83712800Y-138436000D02*
X83712800Y-139004000D01*
X74895000Y-161376400D02*
X74895000Y-161376000D01*
X76269800Y-146446000D02*
X76269800Y-160002000D01*
X89393600Y-133110000D02*
X89038700Y-133110000D01*
X89981500Y-132452000D02*
X89981500Y-132522000D01*
X109255000Y-37896400D02*
X109426000Y-38067700D01*
X109426000Y-51187500D02*
X100297000Y-60316900D01*
X89038700Y-133110000D02*
X83712800Y-138436000D01*
X76269800Y-160002000D02*
X74895000Y-161376000D01*
X89981500Y-132522000D02*
X89393600Y-133110000D01*
X100297000Y-60316900D02*
X100297000Y-122136000D01*
X83712800Y-139004000D02*
X76269800Y-146446000D01*
X83712800Y-138436000D02*
X83712800Y-139004000D01*
X89981500Y-132522000D02*
X89393600Y-133110000D01*
X89981500Y-132452000D02*
X89981500Y-132522000D01*
X100297000Y-122136000D02*
X89981500Y-132452000D01*
X109426000Y-38067700D02*
X109426000Y-51187500D01*
X76269800Y-146446000D02*
X76269800Y-160002000D01*
X89038700Y-133110000D02*
X83712800Y-138436000D01*
X89393600Y-133110000D02*
X89038700Y-133110000D01*
%TO.N,Net-(D37-A)*%
X100895000Y-157976400D02*
X100895000Y-157976000D01*
X86422800Y-124364000D02*
X89376500Y-127318000D01*
X99367400Y-129478000D02*
X101997000Y-132107000D01*
X86422800Y-97264100D02*
X86422800Y-124364000D01*
X89526300Y-76977700D02*
X89526300Y-94160600D01*
X89526300Y-94160600D02*
X86422800Y-97264100D01*
X89355000Y-76806400D02*
X89526300Y-76977700D01*
X101997000Y-132107000D02*
X101997000Y-156875000D01*
X89526300Y-94160600D02*
X86422800Y-97264100D01*
X86422800Y-97264100D02*
X86422800Y-124364000D01*
X101997000Y-156875000D02*
X100895000Y-157976000D01*
X101997000Y-132107000D02*
X101997000Y-156875000D01*
X89526300Y-76977700D02*
X89526300Y-94160600D01*
X86422800Y-124364000D02*
X89376500Y-127318000D01*
X101997000Y-156875000D02*
X100895000Y-157976000D01*
%TO.N,Net-(D21-A)*%
X249489300Y-116593300D02*
X249489300Y-133154100D01*
X242266700Y-140376700D02*
X242266700Y-160968700D01*
X249489300Y-133154100D02*
X242266700Y-140376700D01*
X242266700Y-160968700D02*
X233086700Y-170148700D01*
X233086700Y-170148700D02*
X217194700Y-170148700D01*
X249309700Y-116413700D02*
X249489300Y-116593300D01*
%TO.N,Net-(D31-A)*%
X69781300Y-124754000D02*
X69781300Y-116053000D01*
X64125000Y-130410000D02*
X69781300Y-124754000D01*
X64125000Y-130410000D02*
X69781300Y-124754000D01*
X64125000Y-154276000D02*
X64125000Y-130410000D01*
X69781300Y-116053000D02*
X69610000Y-115881000D01*
X64125000Y-154276400D02*
X64125000Y-154276000D01*
X69781300Y-124754000D02*
X69781300Y-116053000D01*
X69781300Y-116053000D02*
X69610000Y-115881000D01*
%TO.N,Net-(D38-A)*%
X102918000Y-159503000D02*
X100895000Y-161526000D01*
X102918000Y-159503000D02*
X100895000Y-161526000D01*
X102918000Y-96532300D02*
X102918000Y-159503000D01*
X100895000Y-161526000D02*
X100895000Y-161526400D01*
%TO.N,Net-(D1-A)*%
X205758300Y-126139800D02*
X215981900Y-136363400D01*
X216884700Y-139915100D02*
X216884700Y-152598700D01*
X190611600Y-38150600D02*
X190611600Y-52823500D01*
X215981900Y-136363400D02*
X215981900Y-139012300D01*
X190611600Y-52823500D02*
X196916200Y-59128100D01*
X205758300Y-81496600D02*
X205758300Y-126139800D01*
X196916200Y-72654500D02*
X205758300Y-81496600D01*
X190154700Y-37693700D02*
X190611600Y-38150600D01*
X215981900Y-139012300D02*
X216884700Y-139915100D01*
X196916200Y-59128100D02*
X196916200Y-72654500D01*
%TO.N,Net-(D19-A)*%
X249481000Y-77225000D02*
X249481000Y-94182600D01*
X249309700Y-77053700D02*
X249481000Y-77225000D01*
X240472800Y-157650600D02*
X238424700Y-159698700D01*
X249481000Y-94182600D02*
X240472800Y-103190800D01*
X240472800Y-103190800D02*
X240472800Y-157650600D01*
%TO.N,Net-(D39-A)*%
X89579800Y-132355000D02*
X89579800Y-132286000D01*
X89981500Y-117143000D02*
X89105000Y-116266000D01*
X89227300Y-132708000D02*
X89579800Y-132355000D01*
X89638900Y-132226000D02*
X89638900Y-131032000D01*
X89981500Y-117143000D02*
X89105000Y-116266000D01*
X74895000Y-154276400D02*
X74895000Y-154276000D01*
X89638900Y-131032000D02*
X89981500Y-130689000D01*
X89638900Y-132226000D02*
X89638900Y-131032000D01*
X89579800Y-132286000D02*
X89638900Y-132226000D01*
X74895000Y-146685000D02*
X88872400Y-132708000D01*
X88872400Y-132708000D02*
X89227300Y-132708000D01*
X88872400Y-132708000D02*
X89227300Y-132708000D01*
X89981500Y-130689000D02*
X89981500Y-117143000D01*
X89227300Y-132708000D02*
X89579800Y-132355000D01*
X89579800Y-132286000D02*
X89638900Y-132226000D01*
X74895000Y-154276000D02*
X74895000Y-146685000D01*
X74895000Y-146685000D02*
X88872400Y-132708000D01*
X89579800Y-132355000D02*
X89579800Y-132286000D01*
X89638900Y-131032000D02*
X89981500Y-130689000D01*
X89981500Y-130689000D02*
X89981500Y-117143000D01*
%TO.N,Net-(D44-A)*%
X102305000Y-96287300D02*
X102833000Y-95759600D01*
X96175200Y-136674000D02*
X97270700Y-135578000D01*
X92163700Y-166438000D02*
X92163700Y-160696000D01*
X93425300Y-159751000D02*
X96175200Y-157002000D01*
X97270700Y-135578000D02*
X97270700Y-128977000D01*
X93425300Y-159751000D02*
X96175200Y-157002000D01*
X93108400Y-159751000D02*
X93425300Y-159751000D01*
X90125000Y-168476400D02*
X90125000Y-168476000D01*
X96175200Y-157002000D02*
X96175200Y-136674000D01*
X102833000Y-95759600D02*
X108183000Y-95759600D01*
X102833000Y-95759600D02*
X108183000Y-95759600D01*
X93108400Y-159751000D02*
X93425300Y-159751000D01*
X102305000Y-123942000D02*
X102305000Y-96287300D01*
X108183000Y-95759600D02*
X109005000Y-96581400D01*
X90125000Y-168476000D02*
X92163700Y-166438000D01*
X102305000Y-96287300D02*
X102833000Y-95759600D01*
X92163700Y-160696000D02*
X93108400Y-159751000D01*
X97270700Y-135578000D02*
X97270700Y-128977000D01*
X92163700Y-160696000D02*
X93108400Y-159751000D01*
X92163700Y-166438000D02*
X92163700Y-160696000D01*
X97270700Y-128977000D02*
X102305000Y-123942000D01*
X97270700Y-128977000D02*
X102305000Y-123942000D01*
X102305000Y-123942000D02*
X102305000Y-96287300D01*
X108183000Y-95759600D02*
X109005000Y-96581400D01*
X96175200Y-157002000D02*
X96175200Y-136674000D01*
X96175200Y-136674000D02*
X97270700Y-135578000D01*
%TO.N,Net-(D25-A)*%
X51260300Y-137212000D02*
X51447500Y-137025000D01*
X51260300Y-137212000D02*
X51447500Y-137025000D01*
X55305200Y-144222000D02*
X51260300Y-140178000D01*
X55305200Y-159426000D02*
X55305200Y-144222000D01*
X50611900Y-116383000D02*
X50155000Y-115926000D01*
X55305200Y-159426000D02*
X55305200Y-144222000D01*
X51447500Y-137025000D02*
X51447500Y-122311000D01*
X51447500Y-122311000D02*
X50611900Y-121475000D01*
X51447500Y-122311000D02*
X50611900Y-121475000D01*
X50611900Y-116383000D02*
X50155000Y-115926000D01*
X53355000Y-161376400D02*
X53355000Y-161376000D01*
X50611900Y-121475000D02*
X50611900Y-116383000D01*
X51260300Y-140178000D02*
X51260300Y-137212000D01*
X51447500Y-137025000D02*
X51447500Y-122311000D01*
X55305200Y-144222000D02*
X51260300Y-140178000D01*
X50611900Y-121475000D02*
X50611900Y-116383000D01*
X51260300Y-140178000D02*
X51260300Y-137212000D01*
X53355000Y-161376000D02*
X55305200Y-159426000D01*
%TO.N,Net-(D40-A)*%
X85129800Y-150158000D02*
X89151300Y-146137000D01*
X89151300Y-136033000D02*
X88980000Y-135861000D01*
X89151300Y-146137000D02*
X89151300Y-136033000D01*
X89151300Y-136033000D02*
X88980000Y-135861000D01*
X89151300Y-146137000D02*
X89151300Y-136033000D01*
%TO.N,Net-(D4-A)*%
X211335100Y-143745300D02*
X211335100Y-157699100D01*
X190074700Y-96828700D02*
X190531600Y-97285600D01*
X204912000Y-137205800D02*
X204912000Y-137438600D01*
X204912000Y-137438600D02*
X209876000Y-142402600D01*
X190531600Y-97285600D02*
X190531600Y-101363000D01*
X195405500Y-127699300D02*
X204912000Y-137205800D01*
X195405500Y-106236900D02*
X195405500Y-127699300D01*
X211335100Y-157699100D02*
X216884700Y-163248700D01*
X190531600Y-101363000D02*
X195405500Y-106236900D01*
X209992400Y-142402600D02*
X211335100Y-143745300D01*
X209876000Y-142402600D02*
X209992400Y-142402600D01*
%TO.N,Net-(D27-A)*%
X110366000Y-137108000D02*
X110195000Y-136936000D01*
X55334100Y-170456000D02*
X94136700Y-170456000D01*
X94136700Y-170456000D02*
X110366000Y-154226000D01*
X110366000Y-154226000D02*
X110366000Y-137108000D01*
X110366000Y-137108000D02*
X110195000Y-136936000D01*
X53355000Y-168476000D02*
X55334100Y-170456000D01*
X55334100Y-170456000D02*
X94136700Y-170456000D01*
X110366000Y-154226000D02*
X110366000Y-137108000D01*
X94136700Y-170456000D02*
X110366000Y-154226000D01*
%TO.N,/right/scl*%
X242464700Y-37648700D02*
X242464700Y-61801700D01*
X242464700Y-61801700D02*
X240233900Y-64032500D01*
%TO.N,Net-(D35-A)*%
X88745400Y-37896400D02*
X62613300Y-64028500D01*
X89480000Y-37896400D02*
X88745400Y-37896400D01*
X62613300Y-166965000D02*
X64125000Y-168476000D01*
X62613300Y-64028500D02*
X62613300Y-166965000D01*
X88745400Y-37896400D02*
X62613300Y-64028500D01*
X62613300Y-64028500D02*
X62613300Y-166965000D01*
X64125000Y-168476400D02*
X64125000Y-168476000D01*
X62613300Y-166965000D02*
X64125000Y-168476000D01*
%TD*%
M02*
