%TF.GenerationSoftware,KiCad,Pcbnew,10.0.1*%
%TF.CreationDate,2026-06-24T13:17:56+05:30*%
%TF.ProjectId,split-keyboard-kicad,73706c69-742d-46b6-9579-626f6172642d,rev?*%
%TF.SameCoordinates,Original*%
%TF.FileFunction,Soldermask,Top*%
%TF.FilePolarity,Negative*%
%FSLAX46Y46*%
G04 Gerber Fmt 4.6, Leading zero omitted, Abs format (unit mm)*
G04 Created by KiCad (PCBNEW 10.0.1) date 2026-06-24 13:17:56*
%MOMM*%
%LPD*%
G01*
G04 APERTURE LIST*
G04 Aperture macros list*
%AMRoundRect*
0 Rectangle with rounded corners*
0 $1 Rounding radius*
0 $2 $3 $4 $5 $6 $7 $8 $9 X,Y pos of 4 corners*
0 Add a 4 corners polygon primitive as box body*
4,1,4,$2,$3,$4,$5,$6,$7,$8,$9,$2,$3,0*
0 Add four circle primitives for the rounded corners*
1,1,$1+$1,$2,$3*
1,1,$1+$1,$4,$5*
1,1,$1+$1,$6,$7*
1,1,$1+$1,$8,$9*
0 Add four rect primitives between the rounded corners*
20,1,$1+$1,$2,$3,$4,$5,0*
20,1,$1+$1,$4,$5,$6,$7,0*
20,1,$1+$1,$6,$7,$8,$9,0*
20,1,$1+$1,$8,$9,$2,$3,0*%
%AMFreePoly0*
4,1,37,0.800000,0.796148,0.878414,0.796148,1.032228,0.765552,1.177117,0.705537,1.307515,0.618408,1.418408,0.507515,1.505537,0.377117,1.565552,0.232228,1.596148,0.078414,1.596148,-0.078414,1.565552,-0.232228,1.505537,-0.377117,1.418408,-0.507515,1.307515,-0.618408,1.177117,-0.705537,1.032228,-0.765552,0.878414,-0.796148,0.800000,-0.796148,0.800000,-0.800000,-1.400000,-0.800000,
-1.403843,-0.796157,-1.439018,-0.796157,-1.511114,-0.766294,-1.566294,-0.711114,-1.596157,-0.639018,-1.596157,-0.603843,-1.600000,-0.600000,-1.600000,0.600000,-1.596157,0.603843,-1.596157,0.639018,-1.566294,0.711114,-1.511114,0.766294,-1.439018,0.796157,-1.403843,0.796157,-1.400000,0.800000,0.800000,0.800000,0.800000,0.796148,0.800000,0.796148,$1*%
%AMFreePoly1*
4,1,37,1.403843,0.796157,1.439018,0.796157,1.511114,0.766294,1.566294,0.711114,1.596157,0.639018,1.596157,0.603843,1.600000,0.600000,1.600000,-0.600000,1.596157,-0.603843,1.596157,-0.639018,1.566294,-0.711114,1.511114,-0.766294,1.439018,-0.796157,1.403843,-0.796157,1.400000,-0.800000,-0.800000,-0.800000,-0.800000,-0.796148,-0.878414,-0.796148,-1.032228,-0.765552,-1.177117,-0.705537,
-1.307515,-0.618408,-1.418408,-0.507515,-1.505537,-0.377117,-1.565552,-0.232228,-1.596148,-0.078414,-1.596148,0.078414,-1.565552,0.232228,-1.505537,0.377117,-1.418408,0.507515,-1.307515,0.618408,-1.177117,0.705537,-1.032228,0.765552,-0.878414,0.796148,-0.800000,0.796148,-0.800000,0.800000,1.400000,0.800000,1.403843,0.796157,1.403843,0.796157,$1*%
%AMFreePoly2*
4,1,37,0.603843,0.796157,0.639018,0.796157,0.711114,0.766294,0.766294,0.711114,0.796157,0.639018,0.796157,0.603843,0.800000,0.600000,0.800000,-0.600000,0.796157,-0.603843,0.796157,-0.639018,0.766294,-0.711114,0.711114,-0.766294,0.639018,-0.796157,0.603843,-0.796157,0.600000,-0.800000,0.000000,-0.800000,0.000000,-0.796148,-0.078414,-0.796148,-0.232228,-0.765552,-0.377117,-0.705537,
-0.507515,-0.618408,-0.618408,-0.507515,-0.705537,-0.377117,-0.765552,-0.232228,-0.796148,-0.078414,-0.796148,0.078414,-0.765552,0.232228,-0.705537,0.377117,-0.618408,0.507515,-0.507515,0.618408,-0.377117,0.705537,-0.232228,0.765552,-0.078414,0.796148,0.000000,0.796148,0.000000,0.800000,0.600000,0.800000,0.603843,0.796157,0.603843,0.796157,$1*%
%AMFreePoly3*
4,1,37,0.000000,0.796148,0.078414,0.796148,0.232228,0.765552,0.377117,0.705537,0.507515,0.618408,0.618408,0.507515,0.705537,0.377117,0.765552,0.232228,0.796148,0.078414,0.796148,-0.078414,0.765552,-0.232228,0.705537,-0.377117,0.618408,-0.507515,0.507515,-0.618408,0.377117,-0.705537,0.232228,-0.765552,0.078414,-0.796148,0.000000,-0.796148,0.000000,-0.800000,-0.600000,-0.800000,
-0.603843,-0.796157,-0.639018,-0.796157,-0.711114,-0.766294,-0.766294,-0.711114,-0.796157,-0.639018,-0.796157,-0.603843,-0.800000,-0.600000,-0.800000,0.600000,-0.796157,0.603843,-0.796157,0.639018,-0.766294,0.711114,-0.711114,0.766294,-0.639018,0.796157,-0.603843,0.796157,-0.600000,0.800000,0.000000,0.800000,0.000000,0.796148,0.000000,0.796148,$1*%
G04 Aperture macros list end*
%ADD10C,1.700000*%
%ADD11C,4.000000*%
%ADD12C,2.200000*%
%ADD13RoundRect,0.102000X-0.754000X-0.754000X0.754000X-0.754000X0.754000X0.754000X-0.754000X0.754000X0*%
%ADD14C,1.712000*%
%ADD15C,3.204000*%
%ADD16R,2.000000X2.000000*%
%ADD17C,2.000000*%
%ADD18R,3.200000X2.000000*%
%ADD19RoundRect,0.250000X-0.550000X-0.550000X0.550000X-0.550000X0.550000X0.550000X-0.550000X0.550000X0*%
%ADD20C,1.600000*%
%ADD21C,1.850000*%
%ADD22FreePoly0,0.000000*%
%ADD23RoundRect,0.200000X-0.600000X-0.600000X0.600000X-0.600000X0.600000X0.600000X-0.600000X0.600000X0*%
%ADD24RoundRect,0.800000X-0.800000X-0.000010X0.800000X-0.000010X0.800000X0.000010X-0.800000X0.000010X0*%
%ADD25FreePoly1,0.000000*%
%ADD26FreePoly2,0.000000*%
%ADD27FreePoly3,0.000000*%
G04 APERTURE END LIST*
D10*
%TO.C,SW26*%
X27420000Y-97500000D03*
D11*
X32500000Y-97500000D03*
D10*
X37580000Y-97500000D03*
D12*
X35040000Y-92420000D03*
X28690000Y-94960000D03*
%TD*%
D13*
%TO.C,U1*%
X177690000Y-37000000D03*
D14*
X180230000Y-37000000D03*
X182770000Y-37000000D03*
X185310000Y-37000000D03*
D15*
X170500000Y-37500000D03*
X192500000Y-37500000D03*
X192500000Y-59500000D03*
X170500000Y-59500000D03*
%TD*%
D16*
%TO.C,SW46*%
X224390000Y-36220000D03*
D17*
X224390000Y-41220000D03*
X224390000Y-38720000D03*
D18*
X231890000Y-33120000D03*
X231890000Y-44320000D03*
D17*
X238890000Y-41220000D03*
X238890000Y-36220000D03*
%TD*%
D10*
%TO.C,SW22*%
X226100000Y-97650000D03*
D11*
X231180000Y-97650000D03*
D10*
X236260000Y-97650000D03*
D12*
X233720000Y-92570000D03*
X227370000Y-95110000D03*
%TD*%
D10*
%TO.C,SW21*%
X226100000Y-78100000D03*
D11*
X231180000Y-78100000D03*
D10*
X236260000Y-78100000D03*
D12*
X233720000Y-73020000D03*
X227370000Y-75560000D03*
%TD*%
D10*
%TO.C,SW20*%
X226100000Y-58460000D03*
D11*
X231180000Y-58460000D03*
D10*
X236260000Y-58460000D03*
D12*
X233720000Y-53380000D03*
X227370000Y-55920000D03*
%TD*%
D10*
%TO.C,SW19*%
X226000000Y-136580000D03*
D11*
X231080000Y-136580000D03*
D10*
X236160000Y-136580000D03*
D12*
X233620000Y-131500000D03*
X227270000Y-134040000D03*
%TD*%
D10*
%TO.C,SW18*%
X206500000Y-136520000D03*
D11*
X211580000Y-136520000D03*
D10*
X216660000Y-136520000D03*
D12*
X214120000Y-131440000D03*
X207770000Y-133980000D03*
%TD*%
D10*
%TO.C,SW17*%
X206500000Y-117150000D03*
D11*
X211580000Y-117150000D03*
D10*
X216660000Y-117150000D03*
D12*
X214120000Y-112070000D03*
X207770000Y-114610000D03*
%TD*%
D10*
%TO.C,SW16*%
X206500000Y-97690000D03*
D11*
X211580000Y-97690000D03*
D10*
X216660000Y-97690000D03*
D12*
X214120000Y-92610000D03*
X207770000Y-95150000D03*
%TD*%
D10*
%TO.C,SW15*%
X206500000Y-78140000D03*
D11*
X211580000Y-78140000D03*
D10*
X216660000Y-78140000D03*
D12*
X214120000Y-73060000D03*
X207770000Y-75600000D03*
%TD*%
D10*
%TO.C,SW14*%
X206500000Y-58500000D03*
D11*
X211580000Y-58500000D03*
D10*
X216660000Y-58500000D03*
D12*
X214120000Y-53420000D03*
X207770000Y-55960000D03*
%TD*%
D10*
%TO.C,SW13*%
X206500000Y-38770000D03*
D11*
X211580000Y-38770000D03*
D10*
X216660000Y-38770000D03*
D12*
X214120000Y-33690000D03*
X207770000Y-36230000D03*
%TD*%
D10*
%TO.C,SW12*%
X167000000Y-175000000D03*
D11*
X172080000Y-175000000D03*
D10*
X177160000Y-175000000D03*
D12*
X174620000Y-169920000D03*
X168270000Y-172460000D03*
%TD*%
D10*
%TO.C,SW11*%
X186200000Y-155880000D03*
D11*
X191280000Y-155880000D03*
D10*
X196360000Y-155880000D03*
D12*
X193820000Y-150800000D03*
X187470000Y-153340000D03*
%TD*%
D10*
%TO.C,SW10*%
X186200000Y-136420000D03*
D11*
X191280000Y-136420000D03*
D10*
X196360000Y-136420000D03*
D12*
X193820000Y-131340000D03*
X187470000Y-133880000D03*
%TD*%
D10*
%TO.C,SW9*%
X186200000Y-116870000D03*
D11*
X191280000Y-116870000D03*
D10*
X196360000Y-116870000D03*
D12*
X193820000Y-111790000D03*
X187470000Y-114330000D03*
%TD*%
D10*
%TO.C,SW8*%
X186200000Y-97230000D03*
D11*
X191280000Y-97230000D03*
D10*
X196360000Y-97230000D03*
D12*
X193820000Y-92150000D03*
X187470000Y-94690000D03*
%TD*%
D10*
%TO.C,SW7*%
X186200000Y-77500000D03*
D11*
X191280000Y-77500000D03*
D10*
X196360000Y-77500000D03*
D12*
X193820000Y-72420000D03*
X187470000Y-74960000D03*
%TD*%
D10*
%TO.C,SW6*%
X226000000Y-117000000D03*
D11*
X231080000Y-117000000D03*
D10*
X236160000Y-117000000D03*
D12*
X233620000Y-111920000D03*
X227270000Y-114460000D03*
%TD*%
D10*
%TO.C,SW5*%
X166920000Y-155880000D03*
D11*
X172000000Y-155880000D03*
D10*
X177080000Y-155880000D03*
D12*
X174540000Y-150800000D03*
X168190000Y-153340000D03*
%TD*%
D10*
%TO.C,SW4*%
X166920000Y-136420000D03*
D11*
X172000000Y-136420000D03*
D10*
X177080000Y-136420000D03*
D12*
X174540000Y-131340000D03*
X168190000Y-133880000D03*
%TD*%
D10*
%TO.C,SW3*%
X166920000Y-116870000D03*
D11*
X172000000Y-116870000D03*
D10*
X177080000Y-116870000D03*
D12*
X174540000Y-111790000D03*
X168190000Y-114330000D03*
%TD*%
D10*
%TO.C,SW2*%
X166920000Y-97230000D03*
D11*
X172000000Y-97230000D03*
D10*
X177080000Y-97230000D03*
D12*
X174540000Y-92150000D03*
X168190000Y-94690000D03*
%TD*%
D10*
%TO.C,SW1*%
X166920000Y-77500000D03*
D11*
X172000000Y-77500000D03*
D10*
X177080000Y-77500000D03*
D12*
X174540000Y-72420000D03*
X168190000Y-74960000D03*
%TD*%
D19*
%TO.C,D22*%
X205420000Y-183000000D03*
D20*
X213040000Y-183000000D03*
%TD*%
D19*
%TO.C,D21*%
X230730000Y-176500000D03*
D20*
X238350000Y-176500000D03*
%TD*%
D19*
%TO.C,D20*%
X231460000Y-170000000D03*
D20*
X239080000Y-170000000D03*
%TD*%
D19*
%TO.C,D19*%
X231690000Y-163500000D03*
D20*
X239310000Y-163500000D03*
%TD*%
D19*
%TO.C,D18*%
X228150000Y-157000000D03*
D20*
X235770000Y-157000000D03*
%TD*%
D19*
%TO.C,D17*%
X228150000Y-150450000D03*
D20*
X235770000Y-150450000D03*
%TD*%
D19*
%TO.C,D16*%
X195000000Y-177000000D03*
D20*
X202620000Y-177000000D03*
%TD*%
D19*
%TO.C,D15*%
X195500000Y-170500000D03*
D20*
X203120000Y-170500000D03*
%TD*%
D19*
%TO.C,D14*%
X194650000Y-183000000D03*
D20*
X202270000Y-183000000D03*
%TD*%
D19*
%TO.C,D13*%
X219960000Y-176500000D03*
D20*
X227580000Y-176500000D03*
%TD*%
D19*
%TO.C,D12*%
X220690000Y-170000000D03*
D20*
X228310000Y-170000000D03*
%TD*%
D19*
%TO.C,D11*%
X220920000Y-163500000D03*
D20*
X228540000Y-163500000D03*
%TD*%
D19*
%TO.C,D10*%
X217380000Y-157000000D03*
D20*
X225000000Y-157000000D03*
%TD*%
D19*
%TO.C,D9*%
X217380000Y-150450000D03*
D20*
X225000000Y-150450000D03*
%TD*%
D19*
%TO.C,D8*%
X184380000Y-177000000D03*
D20*
X192000000Y-177000000D03*
%TD*%
D19*
%TO.C,D7*%
X184730000Y-170500000D03*
D20*
X192350000Y-170500000D03*
%TD*%
D19*
%TO.C,D6*%
X183880000Y-183000000D03*
D20*
X191500000Y-183000000D03*
%TD*%
D19*
%TO.C,D5*%
X209190000Y-176500000D03*
D20*
X216810000Y-176500000D03*
%TD*%
D19*
%TO.C,D4*%
X209920000Y-170000000D03*
D20*
X217540000Y-170000000D03*
%TD*%
D19*
%TO.C,D3*%
X210150000Y-163500000D03*
D20*
X217770000Y-163500000D03*
%TD*%
D19*
%TO.C,D2*%
X206610000Y-157000000D03*
D20*
X214230000Y-157000000D03*
%TD*%
D19*
%TO.C,D1*%
X206610000Y-150450000D03*
D20*
X214230000Y-150450000D03*
%TD*%
D12*
%TO.C,A3*%
X146665000Y-32110000D03*
D21*
X146965000Y-35140000D03*
X151815000Y-35140000D03*
D12*
X152115000Y-32110000D03*
D22*
X139700000Y-31980000D03*
D23*
X140500000Y-31980000D03*
D24*
X139700000Y-34520000D03*
D20*
X140500000Y-34520000D03*
D25*
X139700000Y-37060000D03*
D26*
X140500000Y-37060000D03*
D24*
X139700000Y-39600000D03*
D20*
X140500000Y-39600000D03*
D24*
X139700000Y-42140000D03*
D20*
X140500000Y-42140000D03*
D24*
X139700000Y-44680000D03*
D20*
X140500000Y-44680000D03*
D24*
X139700000Y-47220000D03*
D20*
X140500000Y-47220000D03*
D25*
X139700000Y-49760000D03*
D26*
X140500000Y-49760000D03*
D24*
X139700000Y-52300000D03*
D20*
X140500000Y-52300000D03*
D24*
X139700000Y-54840000D03*
D20*
X140500000Y-54840000D03*
D24*
X139700000Y-57380000D03*
D20*
X140500000Y-57380000D03*
D24*
X139700000Y-59920000D03*
D20*
X140500000Y-59920000D03*
D25*
X139700000Y-62460000D03*
D26*
X140500000Y-62460000D03*
D24*
X139700000Y-65000000D03*
D20*
X140500000Y-65000000D03*
D24*
X139700000Y-67540000D03*
D20*
X140500000Y-67540000D03*
D24*
X139700000Y-70080000D03*
D20*
X140500000Y-70080000D03*
D24*
X139700000Y-72620000D03*
D20*
X140500000Y-72620000D03*
D25*
X139700000Y-75160000D03*
D26*
X140500000Y-75160000D03*
D24*
X139700000Y-77700000D03*
D20*
X140500000Y-77700000D03*
D24*
X139700000Y-80240000D03*
D20*
X140500000Y-80240000D03*
X158280000Y-80240000D03*
D24*
X159080000Y-80240000D03*
D20*
X158280000Y-77700000D03*
D24*
X159080000Y-77700000D03*
D27*
X158280000Y-75160000D03*
D22*
X159080000Y-75160000D03*
D20*
X158280000Y-72620000D03*
D24*
X159080000Y-72620000D03*
D20*
X158280000Y-70080000D03*
D24*
X159080000Y-70080000D03*
D20*
X158280000Y-67540000D03*
D24*
X159080000Y-67540000D03*
D20*
X158280000Y-65000000D03*
D24*
X159080000Y-65000000D03*
D27*
X158280000Y-62460000D03*
D22*
X159080000Y-62460000D03*
D20*
X158280000Y-59920000D03*
D24*
X159080000Y-59920000D03*
D20*
X158280000Y-57380000D03*
D24*
X159080000Y-57380000D03*
D20*
X158280000Y-54840000D03*
D24*
X159080000Y-54840000D03*
D20*
X158280000Y-52300000D03*
D24*
X159080000Y-52300000D03*
D27*
X158280000Y-49760000D03*
D22*
X159080000Y-49760000D03*
D20*
X158280000Y-47220000D03*
D24*
X159080000Y-47220000D03*
D20*
X158280000Y-44680000D03*
D24*
X159080000Y-44680000D03*
D20*
X158280000Y-42140000D03*
D24*
X159080000Y-42140000D03*
D20*
X158280000Y-39600000D03*
D24*
X159080000Y-39600000D03*
D27*
X158280000Y-37060000D03*
D22*
X159080000Y-37060000D03*
D20*
X158280000Y-34520000D03*
D24*
X159080000Y-34520000D03*
D20*
X158280000Y-31980000D03*
D24*
X159080000Y-31980000D03*
%TD*%
D13*
%TO.C,U2*%
X76190000Y-37000000D03*
D14*
X78730000Y-37000000D03*
X81270000Y-37000000D03*
X83810000Y-37000000D03*
D15*
X69000000Y-37500000D03*
X91000000Y-37500000D03*
X91000000Y-59500000D03*
X69000000Y-59500000D03*
%TD*%
D16*
%TO.C,SW47*%
X24000000Y-37500000D03*
D17*
X24000000Y-42500000D03*
X24000000Y-40000000D03*
D18*
X31500000Y-34400000D03*
X31500000Y-45600000D03*
D17*
X38500000Y-42500000D03*
X38500000Y-37500000D03*
%TD*%
D10*
%TO.C,SW44*%
X85030000Y-135500000D03*
D11*
X90110000Y-135500000D03*
D10*
X95190000Y-135500000D03*
D12*
X92650000Y-130420000D03*
X86300000Y-132960000D03*
%TD*%
D10*
%TO.C,SW43*%
X85030000Y-116500000D03*
D11*
X90110000Y-116500000D03*
D10*
X95190000Y-116500000D03*
D12*
X92650000Y-111420000D03*
X86300000Y-113960000D03*
%TD*%
D10*
%TO.C,SW42*%
X85030000Y-97500000D03*
D11*
X90110000Y-97500000D03*
D10*
X95190000Y-97500000D03*
D12*
X92650000Y-92420000D03*
X86300000Y-94960000D03*
%TD*%
D10*
%TO.C,SW41*%
X85030000Y-78140000D03*
D11*
X90110000Y-78140000D03*
D10*
X95190000Y-78140000D03*
D12*
X92650000Y-73060000D03*
X86300000Y-75600000D03*
%TD*%
D10*
%TO.C,SW40*%
X85420000Y-155000000D03*
D11*
X90500000Y-155000000D03*
D10*
X95580000Y-155000000D03*
D12*
X93040000Y-149920000D03*
X86690000Y-152460000D03*
%TD*%
D10*
%TO.C,SW39*%
X65790000Y-155000000D03*
D11*
X70870000Y-155000000D03*
D10*
X75950000Y-155000000D03*
D12*
X73410000Y-149920000D03*
X67060000Y-152460000D03*
%TD*%
D10*
%TO.C,SW38*%
X65920000Y-135500000D03*
D11*
X71000000Y-135500000D03*
D10*
X76080000Y-135500000D03*
D12*
X73540000Y-130420000D03*
X67190000Y-132960000D03*
%TD*%
D10*
%TO.C,SW37*%
X65920000Y-116500000D03*
D11*
X71000000Y-116500000D03*
D10*
X76080000Y-116500000D03*
D12*
X73540000Y-111420000D03*
X67190000Y-113960000D03*
%TD*%
D10*
%TO.C,SW36*%
X65920000Y-97500000D03*
D11*
X71000000Y-97500000D03*
D10*
X76080000Y-97500000D03*
D12*
X73540000Y-92420000D03*
X67190000Y-94960000D03*
%TD*%
D10*
%TO.C,SW35*%
X65920000Y-78140000D03*
D11*
X71000000Y-78140000D03*
D10*
X76080000Y-78140000D03*
D12*
X73540000Y-73060000D03*
X67190000Y-75600000D03*
%TD*%
D10*
%TO.C,SW34*%
X46640000Y-136500000D03*
D11*
X51720000Y-136500000D03*
D10*
X56800000Y-136500000D03*
D12*
X54260000Y-131420000D03*
X47910000Y-133960000D03*
%TD*%
D10*
%TO.C,SW33*%
X46510000Y-117000000D03*
D11*
X51590000Y-117000000D03*
D10*
X56670000Y-117000000D03*
D12*
X54130000Y-111920000D03*
X47780000Y-114460000D03*
%TD*%
D10*
%TO.C,SW32*%
X46640000Y-97500000D03*
D11*
X51720000Y-97500000D03*
D10*
X56800000Y-97500000D03*
D12*
X54260000Y-92420000D03*
X47910000Y-94960000D03*
%TD*%
D10*
%TO.C,SW31*%
X46640000Y-78500000D03*
D11*
X51720000Y-78500000D03*
D10*
X56800000Y-78500000D03*
D12*
X54260000Y-73420000D03*
X47910000Y-75960000D03*
%TD*%
D10*
%TO.C,SW30*%
X46640000Y-59500000D03*
D11*
X51720000Y-59500000D03*
D10*
X56800000Y-59500000D03*
D12*
X54260000Y-54420000D03*
X47910000Y-56960000D03*
%TD*%
D10*
%TO.C,SW29*%
X46640000Y-40140000D03*
D11*
X51720000Y-40140000D03*
D10*
X56800000Y-40140000D03*
D12*
X54260000Y-35060000D03*
X47910000Y-37600000D03*
%TD*%
D10*
%TO.C,SW28*%
X27420000Y-136500000D03*
D11*
X32500000Y-136500000D03*
D10*
X37580000Y-136500000D03*
D12*
X35040000Y-131420000D03*
X28690000Y-133960000D03*
%TD*%
D10*
%TO.C,SW27*%
X27290000Y-117000000D03*
D11*
X32370000Y-117000000D03*
D10*
X37450000Y-117000000D03*
D12*
X34910000Y-111920000D03*
X28560000Y-114460000D03*
%TD*%
D10*
%TO.C,SW25*%
X27420000Y-78500000D03*
D11*
X32500000Y-78500000D03*
D10*
X37580000Y-78500000D03*
D12*
X35040000Y-73420000D03*
X28690000Y-75960000D03*
%TD*%
D10*
%TO.C,SW24*%
X27420000Y-59500000D03*
D11*
X32500000Y-59500000D03*
D10*
X37580000Y-59500000D03*
D12*
X35040000Y-54420000D03*
X28690000Y-56960000D03*
%TD*%
D10*
%TO.C,SW23*%
X85420000Y-174000000D03*
D11*
X90500000Y-174000000D03*
D10*
X95580000Y-174000000D03*
D12*
X93040000Y-168920000D03*
X86690000Y-171460000D03*
%TD*%
D19*
%TO.C,D44*%
X69730000Y-182000000D03*
D20*
X77350000Y-182000000D03*
%TD*%
D19*
%TO.C,D43*%
X46730000Y-176050000D03*
D20*
X54350000Y-176050000D03*
%TD*%
D19*
%TO.C,D42*%
X46960000Y-169500000D03*
D20*
X54580000Y-169500000D03*
%TD*%
D19*
%TO.C,D41*%
X47690000Y-163500000D03*
D20*
X55310000Y-163500000D03*
%TD*%
D19*
%TO.C,D40*%
X47420000Y-156500000D03*
D20*
X55040000Y-156500000D03*
%TD*%
D19*
%TO.C,D39*%
X47420000Y-150450000D03*
D20*
X55040000Y-150450000D03*
%TD*%
D19*
%TO.C,D38*%
X69690000Y-175500000D03*
D20*
X77310000Y-175500000D03*
%TD*%
D19*
%TO.C,D37*%
X69460000Y-169450000D03*
D20*
X77080000Y-169450000D03*
%TD*%
D19*
%TO.C,D36*%
X58960000Y-182000000D03*
D20*
X66580000Y-182000000D03*
%TD*%
D19*
%TO.C,D35*%
X35960000Y-176050000D03*
D20*
X43580000Y-176050000D03*
%TD*%
D19*
%TO.C,D34*%
X36190000Y-169500000D03*
D20*
X43810000Y-169500000D03*
%TD*%
D19*
%TO.C,D33*%
X36920000Y-163500000D03*
D20*
X44540000Y-163500000D03*
%TD*%
D19*
%TO.C,D32*%
X36650000Y-156500000D03*
D20*
X44270000Y-156500000D03*
%TD*%
D19*
%TO.C,D31*%
X36650000Y-150450000D03*
D20*
X44270000Y-150450000D03*
%TD*%
D19*
%TO.C,D30*%
X58920000Y-175500000D03*
D20*
X66540000Y-175500000D03*
%TD*%
D19*
%TO.C,D29*%
X58690000Y-169450000D03*
D20*
X66310000Y-169450000D03*
%TD*%
D19*
%TO.C,D28*%
X48190000Y-182000000D03*
D20*
X55810000Y-182000000D03*
%TD*%
D19*
%TO.C,D27*%
X25190000Y-176050000D03*
D20*
X32810000Y-176050000D03*
%TD*%
D19*
%TO.C,D26*%
X25220000Y-169500000D03*
D20*
X32840000Y-169500000D03*
%TD*%
D19*
%TO.C,D25*%
X26150000Y-163500000D03*
D20*
X33770000Y-163500000D03*
%TD*%
D19*
%TO.C,D24*%
X25880000Y-156500000D03*
D20*
X33500000Y-156500000D03*
%TD*%
D19*
%TO.C,D23*%
X25880000Y-150450000D03*
D20*
X33500000Y-150450000D03*
%TD*%
D12*
%TO.C,A4*%
X111165000Y-32150000D03*
D21*
X111465000Y-35180000D03*
X116315000Y-35180000D03*
D12*
X116615000Y-32150000D03*
D22*
X104200000Y-32020000D03*
D23*
X105000000Y-32020000D03*
D24*
X104200000Y-34560000D03*
D20*
X105000000Y-34560000D03*
D25*
X104200000Y-37100000D03*
D26*
X105000000Y-37100000D03*
D24*
X104200000Y-39640000D03*
D20*
X105000000Y-39640000D03*
D24*
X104200000Y-42180000D03*
D20*
X105000000Y-42180000D03*
D24*
X104200000Y-44720000D03*
D20*
X105000000Y-44720000D03*
D24*
X104200000Y-47260000D03*
D20*
X105000000Y-47260000D03*
D25*
X104200000Y-49800000D03*
D26*
X105000000Y-49800000D03*
D24*
X104200000Y-52340000D03*
D20*
X105000000Y-52340000D03*
D24*
X104200000Y-54880000D03*
D20*
X105000000Y-54880000D03*
D24*
X104200000Y-57420000D03*
D20*
X105000000Y-57420000D03*
D24*
X104200000Y-59960000D03*
D20*
X105000000Y-59960000D03*
D25*
X104200000Y-62500000D03*
D26*
X105000000Y-62500000D03*
D24*
X104200000Y-65040000D03*
D20*
X105000000Y-65040000D03*
D24*
X104200000Y-67580000D03*
D20*
X105000000Y-67580000D03*
D24*
X104200000Y-70120000D03*
D20*
X105000000Y-70120000D03*
D24*
X104200000Y-72660000D03*
D20*
X105000000Y-72660000D03*
D25*
X104200000Y-75200000D03*
D26*
X105000000Y-75200000D03*
D24*
X104200000Y-77740000D03*
D20*
X105000000Y-77740000D03*
D24*
X104200000Y-80280000D03*
D20*
X105000000Y-80280000D03*
X122780000Y-80280000D03*
D24*
X123580000Y-80280000D03*
D20*
X122780000Y-77740000D03*
D24*
X123580000Y-77740000D03*
D27*
X122780000Y-75200000D03*
D22*
X123580000Y-75200000D03*
D20*
X122780000Y-72660000D03*
D24*
X123580000Y-72660000D03*
D20*
X122780000Y-70120000D03*
D24*
X123580000Y-70120000D03*
D20*
X122780000Y-67580000D03*
D24*
X123580000Y-67580000D03*
D20*
X122780000Y-65040000D03*
D24*
X123580000Y-65040000D03*
D27*
X122780000Y-62500000D03*
D22*
X123580000Y-62500000D03*
D20*
X122780000Y-59960000D03*
D24*
X123580000Y-59960000D03*
D20*
X122780000Y-57420000D03*
D24*
X123580000Y-57420000D03*
D20*
X122780000Y-54880000D03*
D24*
X123580000Y-54880000D03*
D20*
X122780000Y-52340000D03*
D24*
X123580000Y-52340000D03*
D27*
X122780000Y-49800000D03*
D22*
X123580000Y-49800000D03*
D20*
X122780000Y-47260000D03*
D24*
X123580000Y-47260000D03*
D20*
X122780000Y-44720000D03*
D24*
X123580000Y-44720000D03*
D20*
X122780000Y-42180000D03*
D24*
X123580000Y-42180000D03*
D20*
X122780000Y-39640000D03*
D24*
X123580000Y-39640000D03*
D27*
X122780000Y-37100000D03*
D22*
X123580000Y-37100000D03*
D20*
X122780000Y-34560000D03*
D24*
X123580000Y-34560000D03*
D20*
X122780000Y-32020000D03*
D24*
X123580000Y-32020000D03*
%TD*%
M02*
