M48
; DRILL file KiCad 10.0.1 date 2026-06-24T13:17:53
; FORMAT={-:-/ absolute / metric / decimal}
; #@! TF.CreationDate,2026-06-24T13:17:53+05:30
; #@! TF.GenerationSoftware,Kicad,Pcbnew,10.0.1
; #@! TF.FileFunction,Plated,1,2,PTH
FMAT,2
METRIC
; #@! TA.AperFunction,Plated,PTH,ViaDrill
T1C0.300
; #@! TA.AperFunction,Plated,PTH,ComponentDrill
T2C0.800
; #@! TA.AperFunction,Plated,PTH,ComponentDrill
T3C1.000
; #@! TA.AperFunction,Plated,PTH,ComponentDrill
T4C1.500
; #@! TA.AperFunction,Plated,PTH,ComponentDrill
T5C2.000
%
G90
G05
T1
X23.894Y-113.877
X41.77Y-163.5
X47.519Y-141.641
X53.224Y-173.246
X56.475Y-176.98
X56.507Y-161.417
X62.615Y-160.962
X71.426Y-45.922
X80.345Y-178.214
X103.796Y-176.605
X109.421Y-151.88
X161.187Y-70.08
X161.564Y-110.542
X175.336Y-144.333
X175.659Y-160.893
X177.034Y-151.443
X178.698Y-90.454
X183.977Y-152.007
X184.153Y-90.336
X193.732Y-143.912
X201.92Y-175.368
X202.627Y-119.189
X204.573Y-123.238
X204.593Y-116.672
X213.256Y-171.304
T2
X25.19Y-176.05
X25.22Y-169.5
X25.88Y-150.45
X25.88Y-156.5
X26.15Y-163.5
X32.81Y-176.05
X32.84Y-169.5
X33.5Y-150.45
X33.5Y-156.5
X33.77Y-163.5
X35.96Y-176.05
X36.19Y-169.5
X36.65Y-150.45
X36.65Y-156.5
X36.92Y-163.5
X43.58Y-176.05
X43.81Y-169.5
X44.27Y-150.45
X44.27Y-156.5
X44.54Y-163.5
X46.73Y-176.05
X46.96Y-169.5
X47.42Y-150.45
X47.42Y-156.5
X47.69Y-163.5
X48.19Y-182.0
X54.35Y-176.05
X54.58Y-169.5
X55.04Y-150.45
X55.04Y-156.5
X55.31Y-163.5
X55.81Y-182.0
X58.69Y-169.45
X58.92Y-175.5
X58.96Y-182.0
X66.31Y-169.45
X66.54Y-175.5
X66.58Y-182.0
X69.46Y-169.45
X69.69Y-175.5
X69.73Y-182.0
X77.08Y-169.45
X77.31Y-175.5
X77.35Y-182.0
X183.88Y-183.0
X184.38Y-177.0
X184.73Y-170.5
X191.5Y-183.0
X192.0Y-177.0
X192.35Y-170.5
X194.65Y-183.0
X195.0Y-177.0
X195.5Y-170.5
X202.27Y-183.0
X202.62Y-177.0
X203.12Y-170.5
X205.42Y-183.0
X206.61Y-150.45
X206.61Y-157.0
X209.19Y-176.5
X209.92Y-170.0
X210.15Y-163.5
X213.04Y-183.0
X214.23Y-150.45
X214.23Y-157.0
X216.81Y-176.5
X217.38Y-150.45
X217.38Y-157.0
X217.54Y-170.0
X217.77Y-163.5
X219.96Y-176.5
X220.69Y-170.0
X220.92Y-163.5
X225.0Y-150.45
X225.0Y-157.0
X227.58Y-176.5
X228.15Y-150.45
X228.15Y-157.0
X228.31Y-170.0
X228.54Y-163.5
X230.73Y-176.5
X231.46Y-170.0
X231.69Y-163.5
X235.77Y-150.45
X235.77Y-157.0
X238.35Y-176.5
X239.08Y-170.0
X239.31Y-163.5
T3
X24.0Y-37.5
X24.0Y-40.0
X24.0Y-42.5
X38.5Y-37.5
X38.5Y-42.5
X76.19Y-37.0
X78.73Y-37.0
X81.27Y-37.0
X83.81Y-37.0
X105.0Y-32.02
X105.0Y-34.56
X105.0Y-37.1
X105.0Y-39.64
X105.0Y-42.18
X105.0Y-44.72
X105.0Y-47.26
X105.0Y-49.8
X105.0Y-52.34
X105.0Y-54.88
X105.0Y-57.42
X105.0Y-59.96
X105.0Y-62.5
X105.0Y-65.04
X105.0Y-67.58
X105.0Y-70.12
X105.0Y-72.66
X105.0Y-75.2
X105.0Y-77.74
X105.0Y-80.28
X122.78Y-32.02
X122.78Y-34.56
X122.78Y-37.1
X122.78Y-39.64
X122.78Y-42.18
X122.78Y-44.72
X122.78Y-47.26
X122.78Y-49.8
X122.78Y-52.34
X122.78Y-54.88
X122.78Y-57.42
X122.78Y-59.96
X122.78Y-62.5
X122.78Y-65.04
X122.78Y-67.58
X122.78Y-70.12
X122.78Y-72.66
X122.78Y-75.2
X122.78Y-77.74
X122.78Y-80.28
X140.5Y-31.98
X140.5Y-34.52
X140.5Y-37.06
X140.5Y-39.6
X140.5Y-42.14
X140.5Y-44.68
X140.5Y-47.22
X140.5Y-49.76
X140.5Y-52.3
X140.5Y-54.84
X140.5Y-57.38
X140.5Y-59.92
X140.5Y-62.46
X140.5Y-65.0
X140.5Y-67.54
X140.5Y-70.08
X140.5Y-72.62
X140.5Y-75.16
X140.5Y-77.7
X140.5Y-80.24
X158.28Y-31.98
X158.28Y-34.52
X158.28Y-37.06
X158.28Y-39.6
X158.28Y-42.14
X158.28Y-44.68
X158.28Y-47.22
X158.28Y-49.76
X158.28Y-52.3
X158.28Y-54.84
X158.28Y-57.38
X158.28Y-59.92
X158.28Y-62.46
X158.28Y-65.0
X158.28Y-67.54
X158.28Y-70.08
X158.28Y-72.62
X158.28Y-75.16
X158.28Y-77.7
X158.28Y-80.24
X177.69Y-37.0
X180.23Y-37.0
X182.77Y-37.0
X185.31Y-37.0
X224.39Y-36.22
X224.39Y-38.72
X224.39Y-41.22
X238.89Y-36.22
X238.89Y-41.22
T4
X28.56Y-114.46
X28.69Y-56.96
X28.69Y-75.96
X28.69Y-94.96
X28.69Y-133.96
X34.91Y-111.92
X35.04Y-54.42
X35.04Y-73.42
X35.04Y-92.42
X35.04Y-131.42
X47.78Y-114.46
X47.91Y-37.6
X47.91Y-56.96
X47.91Y-75.96
X47.91Y-94.96
X47.91Y-133.96
X54.13Y-111.92
X54.26Y-35.06
X54.26Y-54.42
X54.26Y-73.42
X54.26Y-92.42
X54.26Y-131.42
X67.06Y-152.46
X67.19Y-75.6
X67.19Y-94.96
X67.19Y-113.96
X67.19Y-132.96
X73.41Y-149.92
X73.54Y-73.06
X73.54Y-92.42
X73.54Y-111.42
X73.54Y-130.42
X86.3Y-75.6
X86.3Y-94.96
X86.3Y-113.96
X86.3Y-132.96
X86.69Y-152.46
X86.69Y-171.46
X92.65Y-73.06
X92.65Y-92.42
X92.65Y-111.42
X92.65Y-130.42
X93.04Y-149.92
X93.04Y-168.92
X168.19Y-74.96
X168.19Y-94.69
X168.19Y-114.33
X168.19Y-133.88
X168.19Y-153.34
X168.27Y-172.46
X174.54Y-72.42
X174.54Y-92.15
X174.54Y-111.79
X174.54Y-131.34
X174.54Y-150.8
X174.62Y-169.92
X187.47Y-74.96
X187.47Y-94.69
X187.47Y-114.33
X187.47Y-133.88
X187.47Y-153.34
X193.82Y-72.42
X193.82Y-92.15
X193.82Y-111.79
X193.82Y-131.34
X193.82Y-150.8
X207.77Y-36.23
X207.77Y-55.96
X207.77Y-75.6
X207.77Y-95.15
X207.77Y-114.61
X207.77Y-133.98
X214.12Y-33.69
X214.12Y-53.42
X214.12Y-73.06
X214.12Y-92.61
X214.12Y-112.07
X214.12Y-131.44
X227.27Y-114.46
X227.27Y-134.04
X227.37Y-55.92
X227.37Y-75.56
X227.37Y-95.11
X233.62Y-111.92
X233.62Y-131.5
X233.72Y-53.38
X233.72Y-73.02
X233.72Y-92.57
T5
X69.0Y-37.5
X69.0Y-59.5
X91.0Y-37.5
X91.0Y-59.5
X170.5Y-37.5
X170.5Y-59.5
X192.5Y-37.5
X192.5Y-59.5
T4
G00X30.85Y-34.4
M15
G01X32.15Y-34.4
M16
G05
G00X30.85Y-45.6
M15
G01X32.15Y-45.6
M16
G05
G00X231.24Y-33.12
M15
G01X232.54Y-33.12
M16
G05
G00X231.24Y-44.32
M15
G01X232.54Y-44.32
M16
G05
M30
