%TF.GenerationSoftware,KiCad,Pcbnew,10.0.1*%
%TF.CreationDate,2026-06-23T13:56:20+05:30*%
%TF.ProjectId,split-keyboard-kicad,73706c69-742d-46b6-9579-626f6172642d,rev?*%
%TF.SameCoordinates,Original*%
%TF.FileFunction,Profile,NP*%
%FSLAX46Y46*%
G04 Gerber Fmt 4.6, Leading zero omitted, Abs format (unit mm)*
G04 Created by KiCad (PCBNEW 10.0.1) date 2026-06-23 13:56:20*
%MOMM*%
%LPD*%
G01*
G04 APERTURE LIST*
%TA.AperFunction,Profile*%
%ADD10C,0.050000*%
%TD*%
G04 APERTURE END LIST*
D10*
X155500000Y-47000000D02*
X155500000Y-54000000D01*
X153500000Y-56000000D01*
X151500000Y-54000000D01*
X151500000Y-47000000D01*
X153500000Y-45500000D01*
X155500000Y-47000000D01*
X155500000Y-59088068D02*
X155500000Y-66088068D01*
X153500000Y-68088068D01*
X151500000Y-66088068D01*
X151500000Y-59088068D01*
X153500000Y-57588068D01*
X155500000Y-59088068D01*
X155500000Y-71000000D02*
X155500000Y-78000000D01*
X153500000Y-80000000D01*
X151500000Y-78000000D01*
X151500000Y-71000000D01*
X153500000Y-69500000D01*
X155500000Y-71000000D01*
X155500000Y-83500000D02*
X155500000Y-90500000D01*
X153500000Y-92500000D01*
X151500000Y-90500000D01*
X151500000Y-83500000D01*
X153500000Y-82000000D01*
X155500000Y-83500000D01*
X155500000Y-96000000D02*
X155500000Y-103000000D01*
X153500000Y-105000000D01*
X151500000Y-103000000D01*
X151500000Y-96000000D01*
X153500000Y-94500000D01*
X155500000Y-96000000D01*
X155500000Y-109000000D02*
X155500000Y-116000000D01*
X153500000Y-118000000D01*
X151500000Y-116000000D01*
X151500000Y-109000000D01*
X153500000Y-107500000D01*
X155500000Y-109000000D01*
X155500000Y-122500000D02*
X155500000Y-129500000D01*
X153500000Y-131500000D01*
X151500000Y-129500000D01*
X151500000Y-122500000D01*
X153500000Y-121000000D01*
X155500000Y-122500000D01*
X155500000Y-140000000D02*
X155500000Y-147000000D01*
X153500000Y-149000000D01*
X151500000Y-147000000D01*
X151500000Y-140000000D01*
X153500000Y-138500000D01*
X155500000Y-140000000D01*
X36500000Y-176000000D02*
X36500000Y-26000000D01*
X38500000Y-24000000D02*
X36500000Y-26000000D01*
X38500000Y-178000000D02*
X36500000Y-176000000D01*
X38500000Y-178000000D02*
X149500000Y-178000000D01*
X44500000Y-173000000D02*
G75*
G02*
X38500000Y-173000000I-3000000J0D01*
G01*
X38500000Y-173000000D02*
G75*
G02*
X44500000Y-173000000I3000000J0D01*
G01*
X46500000Y-31500000D02*
G75*
G02*
X40500000Y-31500000I-3000000J0D01*
G01*
X40500000Y-31500000D02*
G75*
G02*
X46500000Y-31500000I3000000J0D01*
G01*
X150000000Y-173500000D02*
G75*
G02*
X144000000Y-173500000I-3000000J0D01*
G01*
X144000000Y-173500000D02*
G75*
G02*
X150000000Y-173500000I3000000J0D01*
G01*
X150500000Y-28000000D02*
G75*
G02*
X144500000Y-28000000I-3000000J0D01*
G01*
X144500000Y-28000000D02*
G75*
G02*
X150500000Y-28000000I3000000J0D01*
G01*
X149500000Y-24000000D02*
X38500000Y-24000000D01*
X149500000Y-24000000D02*
X151500000Y-26000000D01*
X149500000Y-178000000D02*
X151500000Y-176000000D01*
X151500000Y-26000000D02*
X151500000Y-41500000D01*
X151500000Y-158500000D02*
X151500000Y-176000000D01*
X153500000Y-43500000D02*
X151500000Y-41500000D01*
X153500000Y-43500000D02*
X155500000Y-41500000D01*
X153500000Y-156500000D02*
X151500000Y-158500000D01*
X153500000Y-156500000D02*
X155500000Y-158500000D01*
X155500000Y-26500000D02*
X157499981Y-24491342D01*
X155500000Y-41500000D02*
X155500000Y-26500000D01*
X155500000Y-158500000D02*
X155500000Y-176000000D01*
X155500000Y-176000000D02*
X157500000Y-178000000D01*
X162500000Y-28500000D02*
G75*
G02*
X156500000Y-28500000I-3000000J0D01*
G01*
X156500000Y-28500000D02*
G75*
G02*
X162500000Y-28500000I3000000J0D01*
G01*
X163000000Y-173500000D02*
G75*
G02*
X157000000Y-173500000I-3000000J0D01*
G01*
X157000000Y-173500000D02*
G75*
G02*
X163000000Y-173500000I3000000J0D01*
G01*
X267500000Y-31000000D02*
G75*
G02*
X261500000Y-31000000I-3000000J0D01*
G01*
X261500000Y-31000000D02*
G75*
G02*
X267500000Y-31000000I3000000J0D01*
G01*
X268000000Y-172000000D02*
G75*
G02*
X262000000Y-172000000I-3000000J0D01*
G01*
X262000000Y-172000000D02*
G75*
G02*
X268000000Y-172000000I3000000J0D01*
G01*
X269000019Y-24008658D02*
X157499981Y-24491342D01*
X269500000Y-178000000D02*
X157500000Y-178000000D01*
X271006493Y-25999989D02*
X269000019Y-24008658D01*
X271493507Y-176000011D02*
X269500000Y-178000000D01*
X271493507Y-176000011D02*
X271006493Y-25999989D01*
M02*
