%TF.GenerationSoftware,KiCad,Pcbnew,10.0.1*%
%TF.CreationDate,2026-06-24T13:17:56+05:30*%
%TF.ProjectId,split-keyboard-kicad,73706c69-742d-46b6-9579-626f6172642d,rev?*%
%TF.SameCoordinates,Original*%
%TF.FileFunction,Legend,Bot*%
%TF.FilePolarity,Positive*%
%FSLAX46Y46*%
G04 Gerber Fmt 4.6, Leading zero omitted, Abs format (unit mm)*
G04 Created by KiCad (PCBNEW 10.0.1) date 2026-06-24 13:17:56*
%MOMM*%
%LPD*%
G01*
G04 APERTURE LIST*
%ADD10C,2.500000*%
%ADD11C,0.300000*%
%ADD12C,0.150000*%
%ADD13C,0.000000*%
G04 APERTURE END LIST*
D10*
X241974311Y-168336666D02*
X234355264Y-168336666D01*
X229593359Y-172146190D02*
X229593359Y-162146190D01*
X229593359Y-165955714D02*
X228640978Y-165479523D01*
X228640978Y-165479523D02*
X226736216Y-165479523D01*
X226736216Y-165479523D02*
X225783835Y-165955714D01*
X225783835Y-165955714D02*
X225307645Y-166431904D01*
X225307645Y-166431904D02*
X224831454Y-167384285D01*
X224831454Y-167384285D02*
X224831454Y-170241428D01*
X224831454Y-170241428D02*
X225307645Y-171193809D01*
X225307645Y-171193809D02*
X225783835Y-171670000D01*
X225783835Y-171670000D02*
X226736216Y-172146190D01*
X226736216Y-172146190D02*
X228640978Y-172146190D01*
X228640978Y-172146190D02*
X229593359Y-171670000D01*
X221498121Y-165479523D02*
X219117169Y-172146190D01*
X216736216Y-165479523D02*
X219117169Y-172146190D01*
X219117169Y-172146190D02*
X220069550Y-174527142D01*
X220069550Y-174527142D02*
X220545740Y-175003333D01*
X220545740Y-175003333D02*
X221498121Y-175479523D01*
X205783835Y-169289047D02*
X201021930Y-169289047D01*
X206736216Y-172146190D02*
X203402882Y-162146190D01*
X203402882Y-162146190D02*
X200069549Y-172146190D01*
X194831453Y-167384285D02*
X194831453Y-172146190D01*
X198164787Y-162146190D02*
X194831453Y-167384285D01*
X194831453Y-167384285D02*
X191498120Y-162146190D01*
X188164786Y-162146190D02*
X188164786Y-170241428D01*
X188164786Y-170241428D02*
X187688596Y-171193809D01*
X187688596Y-171193809D02*
X187212405Y-171670000D01*
X187212405Y-171670000D02*
X186260024Y-172146190D01*
X186260024Y-172146190D02*
X184355262Y-172146190D01*
X184355262Y-172146190D02*
X183402881Y-171670000D01*
X183402881Y-171670000D02*
X182926691Y-171193809D01*
X182926691Y-171193809D02*
X182450500Y-170241428D01*
X182450500Y-170241428D02*
X182450500Y-162146190D01*
X178164787Y-171670000D02*
X176736215Y-172146190D01*
X176736215Y-172146190D02*
X174355263Y-172146190D01*
X174355263Y-172146190D02*
X173402882Y-171670000D01*
X173402882Y-171670000D02*
X172926691Y-171193809D01*
X172926691Y-171193809D02*
X172450501Y-170241428D01*
X172450501Y-170241428D02*
X172450501Y-169289047D01*
X172450501Y-169289047D02*
X172926691Y-168336666D01*
X172926691Y-168336666D02*
X173402882Y-167860476D01*
X173402882Y-167860476D02*
X174355263Y-167384285D01*
X174355263Y-167384285D02*
X176260025Y-166908095D01*
X176260025Y-166908095D02*
X177212406Y-166431904D01*
X177212406Y-166431904D02*
X177688596Y-165955714D01*
X177688596Y-165955714D02*
X178164787Y-165003333D01*
X178164787Y-165003333D02*
X178164787Y-164050952D01*
X178164787Y-164050952D02*
X177688596Y-163098571D01*
X177688596Y-163098571D02*
X177212406Y-162622380D01*
X177212406Y-162622380D02*
X176260025Y-162146190D01*
X176260025Y-162146190D02*
X173879072Y-162146190D01*
X173879072Y-162146190D02*
X172450501Y-162622380D01*
X168164786Y-172146190D02*
X168164786Y-162146190D01*
X168164786Y-166908095D02*
X162450500Y-166908095D01*
X162450500Y-172146190D02*
X162450500Y-162146190D01*
D11*
X235673240Y-181017671D02*
X235816098Y-180946242D01*
X235816098Y-180946242D02*
X236030383Y-180946242D01*
X236030383Y-180946242D02*
X236244669Y-181017671D01*
X236244669Y-181017671D02*
X236387526Y-181160528D01*
X236387526Y-181160528D02*
X236458955Y-181303385D01*
X236458955Y-181303385D02*
X236530383Y-181589099D01*
X236530383Y-181589099D02*
X236530383Y-181803385D01*
X236530383Y-181803385D02*
X236458955Y-182089099D01*
X236458955Y-182089099D02*
X236387526Y-182231956D01*
X236387526Y-182231956D02*
X236244669Y-182374814D01*
X236244669Y-182374814D02*
X236030383Y-182446242D01*
X236030383Y-182446242D02*
X235887526Y-182446242D01*
X235887526Y-182446242D02*
X235673240Y-182374814D01*
X235673240Y-182374814D02*
X235601812Y-182303385D01*
X235601812Y-182303385D02*
X235601812Y-181803385D01*
X235601812Y-181803385D02*
X235887526Y-181803385D01*
X234744669Y-180946242D02*
X234744669Y-181303385D01*
X235101812Y-181160528D02*
X234744669Y-181303385D01*
X234744669Y-181303385D02*
X234387526Y-181160528D01*
X234958955Y-181589099D02*
X234744669Y-181303385D01*
X234744669Y-181303385D02*
X234530383Y-181589099D01*
X233601812Y-180946242D02*
X233601812Y-181303385D01*
X233958955Y-181160528D02*
X233601812Y-181303385D01*
X233601812Y-181303385D02*
X233244669Y-181160528D01*
X233816098Y-181589099D02*
X233601812Y-181303385D01*
X233601812Y-181303385D02*
X233387526Y-181589099D01*
X232458955Y-180946242D02*
X232458955Y-181303385D01*
X232816098Y-181160528D02*
X232458955Y-181303385D01*
X232458955Y-181303385D02*
X232101812Y-181160528D01*
X232673241Y-181589099D02*
X232458955Y-181303385D01*
X232458955Y-181303385D02*
X232244669Y-181589099D01*
X112126855Y-36680177D02*
X112269713Y-36608748D01*
X112269713Y-36608748D02*
X112483998Y-36608748D01*
X112483998Y-36608748D02*
X112698284Y-36680177D01*
X112698284Y-36680177D02*
X112841141Y-36823034D01*
X112841141Y-36823034D02*
X112912570Y-36965891D01*
X112912570Y-36965891D02*
X112983998Y-37251605D01*
X112983998Y-37251605D02*
X112983998Y-37465891D01*
X112983998Y-37465891D02*
X112912570Y-37751605D01*
X112912570Y-37751605D02*
X112841141Y-37894462D01*
X112841141Y-37894462D02*
X112698284Y-38037320D01*
X112698284Y-38037320D02*
X112483998Y-38108748D01*
X112483998Y-38108748D02*
X112341141Y-38108748D01*
X112341141Y-38108748D02*
X112126855Y-38037320D01*
X112126855Y-38037320D02*
X112055427Y-37965891D01*
X112055427Y-37965891D02*
X112055427Y-37465891D01*
X112055427Y-37465891D02*
X112341141Y-37465891D01*
X111198284Y-36608748D02*
X111198284Y-36965891D01*
X111555427Y-36823034D02*
X111198284Y-36965891D01*
X111198284Y-36965891D02*
X110841141Y-36823034D01*
X111412570Y-37251605D02*
X111198284Y-36965891D01*
X111198284Y-36965891D02*
X110983998Y-37251605D01*
X110055427Y-36608748D02*
X110055427Y-36965891D01*
X110412570Y-36823034D02*
X110055427Y-36965891D01*
X110055427Y-36965891D02*
X109698284Y-36823034D01*
X110269713Y-37251605D02*
X110055427Y-36965891D01*
X110055427Y-36965891D02*
X109841141Y-37251605D01*
X108912570Y-36608748D02*
X108912570Y-36965891D01*
X109269713Y-36823034D02*
X108912570Y-36965891D01*
X108912570Y-36965891D02*
X108555427Y-36823034D01*
X109126856Y-37251605D02*
X108912570Y-36965891D01*
X108912570Y-36965891D02*
X108698284Y-37251605D01*
X109903972Y-160352258D02*
X110046830Y-160280829D01*
X110046830Y-160280829D02*
X110261115Y-160280829D01*
X110261115Y-160280829D02*
X110475401Y-160352258D01*
X110475401Y-160352258D02*
X110618258Y-160495115D01*
X110618258Y-160495115D02*
X110689687Y-160637972D01*
X110689687Y-160637972D02*
X110761115Y-160923686D01*
X110761115Y-160923686D02*
X110761115Y-161137972D01*
X110761115Y-161137972D02*
X110689687Y-161423686D01*
X110689687Y-161423686D02*
X110618258Y-161566543D01*
X110618258Y-161566543D02*
X110475401Y-161709401D01*
X110475401Y-161709401D02*
X110261115Y-161780829D01*
X110261115Y-161780829D02*
X110118258Y-161780829D01*
X110118258Y-161780829D02*
X109903972Y-161709401D01*
X109903972Y-161709401D02*
X109832544Y-161637972D01*
X109832544Y-161637972D02*
X109832544Y-161137972D01*
X109832544Y-161137972D02*
X110118258Y-161137972D01*
X108975401Y-160280829D02*
X108975401Y-160637972D01*
X109332544Y-160495115D02*
X108975401Y-160637972D01*
X108975401Y-160637972D02*
X108618258Y-160495115D01*
X109189687Y-160923686D02*
X108975401Y-160637972D01*
X108975401Y-160637972D02*
X108761115Y-160923686D01*
X107832544Y-160280829D02*
X107832544Y-160637972D01*
X108189687Y-160495115D02*
X107832544Y-160637972D01*
X107832544Y-160637972D02*
X107475401Y-160495115D01*
X108046830Y-160923686D02*
X107832544Y-160637972D01*
X107832544Y-160637972D02*
X107618258Y-160923686D01*
X106689687Y-160280829D02*
X106689687Y-160637972D01*
X107046830Y-160495115D02*
X106689687Y-160637972D01*
X106689687Y-160637972D02*
X106332544Y-160495115D01*
X106903973Y-160923686D02*
X106689687Y-160637972D01*
X106689687Y-160637972D02*
X106475401Y-160923686D01*
X176265948Y-180622532D02*
X176408806Y-180551103D01*
X176408806Y-180551103D02*
X176623091Y-180551103D01*
X176623091Y-180551103D02*
X176837377Y-180622532D01*
X176837377Y-180622532D02*
X176980234Y-180765389D01*
X176980234Y-180765389D02*
X177051663Y-180908246D01*
X177051663Y-180908246D02*
X177123091Y-181193960D01*
X177123091Y-181193960D02*
X177123091Y-181408246D01*
X177123091Y-181408246D02*
X177051663Y-181693960D01*
X177051663Y-181693960D02*
X176980234Y-181836817D01*
X176980234Y-181836817D02*
X176837377Y-181979675D01*
X176837377Y-181979675D02*
X176623091Y-182051103D01*
X176623091Y-182051103D02*
X176480234Y-182051103D01*
X176480234Y-182051103D02*
X176265948Y-181979675D01*
X176265948Y-181979675D02*
X176194520Y-181908246D01*
X176194520Y-181908246D02*
X176194520Y-181408246D01*
X176194520Y-181408246D02*
X176480234Y-181408246D01*
X175337377Y-180551103D02*
X175337377Y-180908246D01*
X175694520Y-180765389D02*
X175337377Y-180908246D01*
X175337377Y-180908246D02*
X174980234Y-180765389D01*
X175551663Y-181193960D02*
X175337377Y-180908246D01*
X175337377Y-180908246D02*
X175123091Y-181193960D01*
X174194520Y-180551103D02*
X174194520Y-180908246D01*
X174551663Y-180765389D02*
X174194520Y-180908246D01*
X174194520Y-180908246D02*
X173837377Y-180765389D01*
X174408806Y-181193960D02*
X174194520Y-180908246D01*
X174194520Y-180908246D02*
X173980234Y-181193960D01*
X173051663Y-180551103D02*
X173051663Y-180908246D01*
X173408806Y-180765389D02*
X173051663Y-180908246D01*
X173051663Y-180908246D02*
X172694520Y-180765389D01*
X173265949Y-181193960D02*
X173051663Y-180908246D01*
X173051663Y-180908246D02*
X172837377Y-181193960D01*
X235621006Y-31966906D02*
X235763864Y-31895477D01*
X235763864Y-31895477D02*
X235978149Y-31895477D01*
X235978149Y-31895477D02*
X236192435Y-31966906D01*
X236192435Y-31966906D02*
X236335292Y-32109763D01*
X236335292Y-32109763D02*
X236406721Y-32252620D01*
X236406721Y-32252620D02*
X236478149Y-32538334D01*
X236478149Y-32538334D02*
X236478149Y-32752620D01*
X236478149Y-32752620D02*
X236406721Y-33038334D01*
X236406721Y-33038334D02*
X236335292Y-33181191D01*
X236335292Y-33181191D02*
X236192435Y-33324049D01*
X236192435Y-33324049D02*
X235978149Y-33395477D01*
X235978149Y-33395477D02*
X235835292Y-33395477D01*
X235835292Y-33395477D02*
X235621006Y-33324049D01*
X235621006Y-33324049D02*
X235549578Y-33252620D01*
X235549578Y-33252620D02*
X235549578Y-32752620D01*
X235549578Y-32752620D02*
X235835292Y-32752620D01*
X234692435Y-31895477D02*
X234692435Y-32252620D01*
X235049578Y-32109763D02*
X234692435Y-32252620D01*
X234692435Y-32252620D02*
X234335292Y-32109763D01*
X234906721Y-32538334D02*
X234692435Y-32252620D01*
X234692435Y-32252620D02*
X234478149Y-32538334D01*
X233549578Y-31895477D02*
X233549578Y-32252620D01*
X233906721Y-32109763D02*
X233549578Y-32252620D01*
X233549578Y-32252620D02*
X233192435Y-32109763D01*
X233763864Y-32538334D02*
X233549578Y-32252620D01*
X233549578Y-32252620D02*
X233335292Y-32538334D01*
X232406721Y-31895477D02*
X232406721Y-32252620D01*
X232763864Y-32109763D02*
X232406721Y-32252620D01*
X232406721Y-32252620D02*
X232049578Y-32109763D01*
X232621007Y-32538334D02*
X232406721Y-32252620D01*
X232406721Y-32252620D02*
X232192435Y-32538334D01*
X150834024Y-31020034D02*
X150976882Y-30948605D01*
X150976882Y-30948605D02*
X151191167Y-30948605D01*
X151191167Y-30948605D02*
X151405453Y-31020034D01*
X151405453Y-31020034D02*
X151548310Y-31162891D01*
X151548310Y-31162891D02*
X151619739Y-31305748D01*
X151619739Y-31305748D02*
X151691167Y-31591462D01*
X151691167Y-31591462D02*
X151691167Y-31805748D01*
X151691167Y-31805748D02*
X151619739Y-32091462D01*
X151619739Y-32091462D02*
X151548310Y-32234319D01*
X151548310Y-32234319D02*
X151405453Y-32377177D01*
X151405453Y-32377177D02*
X151191167Y-32448605D01*
X151191167Y-32448605D02*
X151048310Y-32448605D01*
X151048310Y-32448605D02*
X150834024Y-32377177D01*
X150834024Y-32377177D02*
X150762596Y-32305748D01*
X150762596Y-32305748D02*
X150762596Y-31805748D01*
X150762596Y-31805748D02*
X151048310Y-31805748D01*
X149905453Y-30948605D02*
X149905453Y-31305748D01*
X150262596Y-31162891D02*
X149905453Y-31305748D01*
X149905453Y-31305748D02*
X149548310Y-31162891D01*
X150119739Y-31591462D02*
X149905453Y-31305748D01*
X149905453Y-31305748D02*
X149691167Y-31591462D01*
X148762596Y-30948605D02*
X148762596Y-31305748D01*
X149119739Y-31162891D02*
X148762596Y-31305748D01*
X148762596Y-31305748D02*
X148405453Y-31162891D01*
X148976882Y-31591462D02*
X148762596Y-31305748D01*
X148762596Y-31305748D02*
X148548310Y-31591462D01*
X147619739Y-30948605D02*
X147619739Y-31305748D01*
X147976882Y-31162891D02*
X147619739Y-31305748D01*
X147619739Y-31305748D02*
X147262596Y-31162891D01*
X147834025Y-31591462D02*
X147619739Y-31305748D01*
X147619739Y-31305748D02*
X147405453Y-31591462D01*
X37277950Y-33707814D02*
X37420808Y-33636385D01*
X37420808Y-33636385D02*
X37635093Y-33636385D01*
X37635093Y-33636385D02*
X37849379Y-33707814D01*
X37849379Y-33707814D02*
X37992236Y-33850671D01*
X37992236Y-33850671D02*
X38063665Y-33993528D01*
X38063665Y-33993528D02*
X38135093Y-34279242D01*
X38135093Y-34279242D02*
X38135093Y-34493528D01*
X38135093Y-34493528D02*
X38063665Y-34779242D01*
X38063665Y-34779242D02*
X37992236Y-34922099D01*
X37992236Y-34922099D02*
X37849379Y-35064957D01*
X37849379Y-35064957D02*
X37635093Y-35136385D01*
X37635093Y-35136385D02*
X37492236Y-35136385D01*
X37492236Y-35136385D02*
X37277950Y-35064957D01*
X37277950Y-35064957D02*
X37206522Y-34993528D01*
X37206522Y-34993528D02*
X37206522Y-34493528D01*
X37206522Y-34493528D02*
X37492236Y-34493528D01*
X36349379Y-33636385D02*
X36349379Y-33993528D01*
X36706522Y-33850671D02*
X36349379Y-33993528D01*
X36349379Y-33993528D02*
X35992236Y-33850671D01*
X36563665Y-34279242D02*
X36349379Y-33993528D01*
X36349379Y-33993528D02*
X36135093Y-34279242D01*
X35206522Y-33636385D02*
X35206522Y-33993528D01*
X35563665Y-33850671D02*
X35206522Y-33993528D01*
X35206522Y-33993528D02*
X34849379Y-33850671D01*
X35420808Y-34279242D02*
X35206522Y-33993528D01*
X35206522Y-33993528D02*
X34992236Y-34279242D01*
X34063665Y-33636385D02*
X34063665Y-33993528D01*
X34420808Y-33850671D02*
X34063665Y-33993528D01*
X34063665Y-33993528D02*
X33706522Y-33850671D01*
X34277951Y-34279242D02*
X34063665Y-33993528D01*
X34063665Y-33993528D02*
X33849379Y-34279242D01*
X191216429Y-90131561D02*
X191359287Y-90060132D01*
X191359287Y-90060132D02*
X191573572Y-90060132D01*
X191573572Y-90060132D02*
X191787858Y-90131561D01*
X191787858Y-90131561D02*
X191930715Y-90274418D01*
X191930715Y-90274418D02*
X192002144Y-90417275D01*
X192002144Y-90417275D02*
X192073572Y-90702989D01*
X192073572Y-90702989D02*
X192073572Y-90917275D01*
X192073572Y-90917275D02*
X192002144Y-91202989D01*
X192002144Y-91202989D02*
X191930715Y-91345846D01*
X191930715Y-91345846D02*
X191787858Y-91488704D01*
X191787858Y-91488704D02*
X191573572Y-91560132D01*
X191573572Y-91560132D02*
X191430715Y-91560132D01*
X191430715Y-91560132D02*
X191216429Y-91488704D01*
X191216429Y-91488704D02*
X191145001Y-91417275D01*
X191145001Y-91417275D02*
X191145001Y-90917275D01*
X191145001Y-90917275D02*
X191430715Y-90917275D01*
X190287858Y-90060132D02*
X190287858Y-90417275D01*
X190645001Y-90274418D02*
X190287858Y-90417275D01*
X190287858Y-90417275D02*
X189930715Y-90274418D01*
X190502144Y-90702989D02*
X190287858Y-90417275D01*
X190287858Y-90417275D02*
X190073572Y-90702989D01*
X189145001Y-90060132D02*
X189145001Y-90417275D01*
X189502144Y-90274418D02*
X189145001Y-90417275D01*
X189145001Y-90417275D02*
X188787858Y-90274418D01*
X189359287Y-90702989D02*
X189145001Y-90417275D01*
X189145001Y-90417275D02*
X188930715Y-90702989D01*
X188002144Y-90060132D02*
X188002144Y-90417275D01*
X188359287Y-90274418D02*
X188002144Y-90417275D01*
X188002144Y-90417275D02*
X187645001Y-90274418D01*
X188216430Y-90702989D02*
X188002144Y-90417275D01*
X188002144Y-90417275D02*
X187787858Y-90702989D01*
X69161324Y-95201145D02*
X69304182Y-95129716D01*
X69304182Y-95129716D02*
X69518467Y-95129716D01*
X69518467Y-95129716D02*
X69732753Y-95201145D01*
X69732753Y-95201145D02*
X69875610Y-95344002D01*
X69875610Y-95344002D02*
X69947039Y-95486859D01*
X69947039Y-95486859D02*
X70018467Y-95772573D01*
X70018467Y-95772573D02*
X70018467Y-95986859D01*
X70018467Y-95986859D02*
X69947039Y-96272573D01*
X69947039Y-96272573D02*
X69875610Y-96415430D01*
X69875610Y-96415430D02*
X69732753Y-96558288D01*
X69732753Y-96558288D02*
X69518467Y-96629716D01*
X69518467Y-96629716D02*
X69375610Y-96629716D01*
X69375610Y-96629716D02*
X69161324Y-96558288D01*
X69161324Y-96558288D02*
X69089896Y-96486859D01*
X69089896Y-96486859D02*
X69089896Y-95986859D01*
X69089896Y-95986859D02*
X69375610Y-95986859D01*
X68232753Y-95129716D02*
X68232753Y-95486859D01*
X68589896Y-95344002D02*
X68232753Y-95486859D01*
X68232753Y-95486859D02*
X67875610Y-95344002D01*
X68447039Y-95772573D02*
X68232753Y-95486859D01*
X68232753Y-95486859D02*
X68018467Y-95772573D01*
X67089896Y-95129716D02*
X67089896Y-95486859D01*
X67447039Y-95344002D02*
X67089896Y-95486859D01*
X67089896Y-95486859D02*
X66732753Y-95344002D01*
X67304182Y-95772573D02*
X67089896Y-95486859D01*
X67089896Y-95486859D02*
X66875610Y-95772573D01*
X65947039Y-95129716D02*
X65947039Y-95486859D01*
X66304182Y-95344002D02*
X65947039Y-95486859D01*
X65947039Y-95486859D02*
X65589896Y-95344002D01*
X66161325Y-95772573D02*
X65947039Y-95486859D01*
X65947039Y-95486859D02*
X65732753Y-95772573D01*
X36982362Y-178322463D02*
X37125220Y-178251034D01*
X37125220Y-178251034D02*
X37339505Y-178251034D01*
X37339505Y-178251034D02*
X37553791Y-178322463D01*
X37553791Y-178322463D02*
X37696648Y-178465320D01*
X37696648Y-178465320D02*
X37768077Y-178608177D01*
X37768077Y-178608177D02*
X37839505Y-178893891D01*
X37839505Y-178893891D02*
X37839505Y-179108177D01*
X37839505Y-179108177D02*
X37768077Y-179393891D01*
X37768077Y-179393891D02*
X37696648Y-179536748D01*
X37696648Y-179536748D02*
X37553791Y-179679606D01*
X37553791Y-179679606D02*
X37339505Y-179751034D01*
X37339505Y-179751034D02*
X37196648Y-179751034D01*
X37196648Y-179751034D02*
X36982362Y-179679606D01*
X36982362Y-179679606D02*
X36910934Y-179608177D01*
X36910934Y-179608177D02*
X36910934Y-179108177D01*
X36910934Y-179108177D02*
X37196648Y-179108177D01*
X36053791Y-178251034D02*
X36053791Y-178608177D01*
X36410934Y-178465320D02*
X36053791Y-178608177D01*
X36053791Y-178608177D02*
X35696648Y-178465320D01*
X36268077Y-178893891D02*
X36053791Y-178608177D01*
X36053791Y-178608177D02*
X35839505Y-178893891D01*
X34910934Y-178251034D02*
X34910934Y-178608177D01*
X35268077Y-178465320D02*
X34910934Y-178608177D01*
X34910934Y-178608177D02*
X34553791Y-178465320D01*
X35125220Y-178893891D02*
X34910934Y-178608177D01*
X34910934Y-178608177D02*
X34696648Y-178893891D01*
X33768077Y-178251034D02*
X33768077Y-178608177D01*
X34125220Y-178465320D02*
X33768077Y-178608177D01*
X33768077Y-178608177D02*
X33410934Y-178465320D01*
X33982363Y-178893891D02*
X33768077Y-178608177D01*
X33768077Y-178608177D02*
X33553791Y-178893891D01*
D12*
X234055714Y-168334819D02*
X234055714Y-167334819D01*
X234055714Y-167334819D02*
X234293809Y-167334819D01*
X234293809Y-167334819D02*
X234436666Y-167382438D01*
X234436666Y-167382438D02*
X234531904Y-167477676D01*
X234531904Y-167477676D02*
X234579523Y-167572914D01*
X234579523Y-167572914D02*
X234627142Y-167763390D01*
X234627142Y-167763390D02*
X234627142Y-167906247D01*
X234627142Y-167906247D02*
X234579523Y-168096723D01*
X234579523Y-168096723D02*
X234531904Y-168191961D01*
X234531904Y-168191961D02*
X234436666Y-168287200D01*
X234436666Y-168287200D02*
X234293809Y-168334819D01*
X234293809Y-168334819D02*
X234055714Y-168334819D01*
X235008095Y-167430057D02*
X235055714Y-167382438D01*
X235055714Y-167382438D02*
X235150952Y-167334819D01*
X235150952Y-167334819D02*
X235389047Y-167334819D01*
X235389047Y-167334819D02*
X235484285Y-167382438D01*
X235484285Y-167382438D02*
X235531904Y-167430057D01*
X235531904Y-167430057D02*
X235579523Y-167525295D01*
X235579523Y-167525295D02*
X235579523Y-167620533D01*
X235579523Y-167620533D02*
X235531904Y-167763390D01*
X235531904Y-167763390D02*
X234960476Y-168334819D01*
X234960476Y-168334819D02*
X235579523Y-168334819D01*
X236198571Y-167334819D02*
X236293809Y-167334819D01*
X236293809Y-167334819D02*
X236389047Y-167382438D01*
X236389047Y-167382438D02*
X236436666Y-167430057D01*
X236436666Y-167430057D02*
X236484285Y-167525295D01*
X236484285Y-167525295D02*
X236531904Y-167715771D01*
X236531904Y-167715771D02*
X236531904Y-167953866D01*
X236531904Y-167953866D02*
X236484285Y-168144342D01*
X236484285Y-168144342D02*
X236436666Y-168239580D01*
X236436666Y-168239580D02*
X236389047Y-168287200D01*
X236389047Y-168287200D02*
X236293809Y-168334819D01*
X236293809Y-168334819D02*
X236198571Y-168334819D01*
X236198571Y-168334819D02*
X236103333Y-168287200D01*
X236103333Y-168287200D02*
X236055714Y-168239580D01*
X236055714Y-168239580D02*
X236008095Y-168144342D01*
X236008095Y-168144342D02*
X235960476Y-167953866D01*
X235960476Y-167953866D02*
X235960476Y-167715771D01*
X235960476Y-167715771D02*
X236008095Y-167525295D01*
X236008095Y-167525295D02*
X236055714Y-167430057D01*
X236055714Y-167430057D02*
X236103333Y-167382438D01*
X236103333Y-167382438D02*
X236198571Y-167334819D01*
D13*
%TO.C,G\u002A\u002A\u002A*%
G36*
X225064421Y-177681557D02*
G01*
X225906313Y-177685011D01*
X230203147Y-177708442D01*
X230203147Y-178005230D01*
X230204133Y-178055256D01*
X230300971Y-178519895D01*
X230539430Y-178967528D01*
X230895745Y-179363475D01*
X231346147Y-179673056D01*
X231676565Y-179790969D01*
X232139667Y-179849971D01*
X232610057Y-179820628D01*
X233012664Y-179701654D01*
X233143632Y-179633505D01*
X233254669Y-179542732D01*
X233335609Y-179405019D01*
X233408333Y-179180825D01*
X233494723Y-178830611D01*
X233528540Y-178690042D01*
X233607615Y-178383185D01*
X233672618Y-178160082D01*
X233712039Y-178061466D01*
X233731590Y-178083528D01*
X233751452Y-178230242D01*
X233759147Y-178472969D01*
X233759147Y-178931580D01*
X234351813Y-178931580D01*
X234944480Y-178931580D01*
X234944480Y-178472969D01*
X234948663Y-178286923D01*
X234965425Y-178110248D01*
X234990631Y-178060508D01*
X235001146Y-178079079D01*
X235051266Y-178226784D01*
X235122880Y-178483366D01*
X235204169Y-178807488D01*
X235219281Y-178869116D01*
X235321116Y-179217965D01*
X235425886Y-179481289D01*
X235517852Y-179618396D01*
X235598061Y-179663270D01*
X235826919Y-179748638D01*
X236108657Y-179822866D01*
X236453344Y-179860309D01*
X236960305Y-179795945D01*
X237437815Y-179607045D01*
X237858138Y-179314488D01*
X238193537Y-178939154D01*
X238416277Y-178501924D01*
X238498621Y-178023678D01*
X238500480Y-177708442D01*
X242797313Y-177685011D01*
X243003746Y-177683953D01*
X243835604Y-177681087D01*
X244615436Y-177680577D01*
X245326485Y-177682293D01*
X245951994Y-177686106D01*
X246475206Y-177691884D01*
X246879362Y-177699499D01*
X247147706Y-177708818D01*
X247263480Y-177719713D01*
X247315205Y-177742964D01*
X247283924Y-177771242D01*
X247088347Y-177783213D01*
X246714276Y-177818545D01*
X246090264Y-177983333D01*
X245451717Y-178264837D01*
X244839492Y-178643787D01*
X244294446Y-179100914D01*
X243831869Y-179620523D01*
X243355095Y-180371480D01*
X243031411Y-181194510D01*
X242861991Y-182087166D01*
X242800942Y-182702753D01*
X242365211Y-182637500D01*
X242334158Y-182633248D01*
X242061176Y-182610310D01*
X241673805Y-182592976D01*
X241219107Y-182582870D01*
X240744147Y-182581614D01*
X240574432Y-182583440D01*
X240039048Y-182599102D01*
X239610836Y-182632583D01*
X239241183Y-182688875D01*
X238881480Y-182772974D01*
X238670616Y-182833199D01*
X237762451Y-183170559D01*
X236878613Y-183618220D01*
X236055078Y-184153440D01*
X235327820Y-184753478D01*
X234732813Y-185395591D01*
X234563323Y-185603783D01*
X234421840Y-185763857D01*
X234351813Y-185825122D01*
X234288573Y-185770938D01*
X234150625Y-185615988D01*
X233970813Y-185395591D01*
X233846125Y-185243694D01*
X233217150Y-184609337D01*
X232464290Y-184022345D01*
X231623520Y-183505459D01*
X230730814Y-183081421D01*
X229822147Y-182772974D01*
X229722977Y-182747176D01*
X229365379Y-182671098D01*
X228984671Y-182621475D01*
X228532242Y-182593312D01*
X227959480Y-182581614D01*
X227880516Y-182581137D01*
X227406003Y-182583958D01*
X226959896Y-182595315D01*
X226589156Y-182613597D01*
X226340746Y-182637191D01*
X225907346Y-182702134D01*
X225850430Y-182171524D01*
X225711131Y-181367835D01*
X225430033Y-180547743D01*
X225010885Y-179811870D01*
X224445813Y-179143247D01*
X224116357Y-178843874D01*
X223512676Y-178413880D01*
X222869362Y-178081644D01*
X222224277Y-177865358D01*
X221615280Y-177783213D01*
X221486446Y-177778506D01*
X221382366Y-177757704D01*
X221440147Y-177719713D01*
X221453200Y-177716950D01*
X221607284Y-177706423D01*
X221909899Y-177697502D01*
X222344287Y-177690319D01*
X222893691Y-177685002D01*
X223541352Y-177681683D01*
X224270515Y-177680491D01*
X225064421Y-177681557D01*
G37*
G36*
X101518036Y-33344063D02*
G01*
X102359928Y-33347517D01*
X106656762Y-33370948D01*
X106656762Y-33667736D01*
X106657748Y-33717762D01*
X106754586Y-34182401D01*
X106993045Y-34630034D01*
X107349360Y-35025981D01*
X107799762Y-35335562D01*
X108130180Y-35453475D01*
X108593282Y-35512477D01*
X109063672Y-35483134D01*
X109466279Y-35364160D01*
X109597247Y-35296011D01*
X109708284Y-35205238D01*
X109789224Y-35067525D01*
X109861948Y-34843331D01*
X109948338Y-34493117D01*
X109982155Y-34352548D01*
X110061230Y-34045691D01*
X110126233Y-33822588D01*
X110165654Y-33723972D01*
X110185205Y-33746034D01*
X110205067Y-33892748D01*
X110212762Y-34135475D01*
X110212762Y-34594086D01*
X110805428Y-34594086D01*
X111398095Y-34594086D01*
X111398095Y-34135475D01*
X111402278Y-33949429D01*
X111419040Y-33772754D01*
X111444246Y-33723014D01*
X111454761Y-33741585D01*
X111504881Y-33889290D01*
X111576495Y-34145872D01*
X111657784Y-34469994D01*
X111672896Y-34531622D01*
X111774731Y-34880471D01*
X111879501Y-35143795D01*
X111971467Y-35280902D01*
X112051676Y-35325776D01*
X112280534Y-35411144D01*
X112562272Y-35485372D01*
X112906959Y-35522815D01*
X113413920Y-35458451D01*
X113891430Y-35269551D01*
X114311753Y-34976994D01*
X114647152Y-34601660D01*
X114869892Y-34164430D01*
X114952236Y-33686184D01*
X114954095Y-33370948D01*
X119250928Y-33347517D01*
X119457361Y-33346459D01*
X120289219Y-33343593D01*
X121069051Y-33343083D01*
X121780100Y-33344799D01*
X122405609Y-33348612D01*
X122928821Y-33354390D01*
X123332977Y-33362005D01*
X123601321Y-33371324D01*
X123717095Y-33382219D01*
X123768820Y-33405470D01*
X123737539Y-33433748D01*
X123541962Y-33445719D01*
X123167891Y-33481051D01*
X122543879Y-33645839D01*
X121905332Y-33927343D01*
X121293107Y-34306293D01*
X120748061Y-34763420D01*
X120285484Y-35283029D01*
X119808710Y-36033986D01*
X119485026Y-36857016D01*
X119315606Y-37749672D01*
X119254557Y-38365259D01*
X118818826Y-38300006D01*
X118787773Y-38295754D01*
X118514791Y-38272816D01*
X118127420Y-38255482D01*
X117672722Y-38245376D01*
X117197762Y-38244120D01*
X117028047Y-38245946D01*
X116492663Y-38261608D01*
X116064451Y-38295089D01*
X115694798Y-38351381D01*
X115335095Y-38435480D01*
X115124231Y-38495705D01*
X114216066Y-38833065D01*
X113332228Y-39280726D01*
X112508693Y-39815946D01*
X111781435Y-40415984D01*
X111186428Y-41058097D01*
X111016938Y-41266289D01*
X110875455Y-41426363D01*
X110805428Y-41487628D01*
X110742188Y-41433444D01*
X110604240Y-41278494D01*
X110424428Y-41058097D01*
X110299740Y-40906200D01*
X109670765Y-40271843D01*
X108917905Y-39684851D01*
X108077135Y-39167965D01*
X107184429Y-38743927D01*
X106275762Y-38435480D01*
X106176592Y-38409682D01*
X105818994Y-38333604D01*
X105438286Y-38283981D01*
X104985857Y-38255818D01*
X104413095Y-38244120D01*
X104334131Y-38243643D01*
X103859618Y-38246464D01*
X103413511Y-38257821D01*
X103042771Y-38276103D01*
X102794361Y-38299697D01*
X102360961Y-38364640D01*
X102304045Y-37834030D01*
X102164746Y-37030341D01*
X101883648Y-36210249D01*
X101464500Y-35474376D01*
X100899428Y-34805753D01*
X100569972Y-34506380D01*
X99966291Y-34076386D01*
X99322977Y-33744150D01*
X98677892Y-33527864D01*
X98068895Y-33445719D01*
X97940061Y-33441012D01*
X97835981Y-33420210D01*
X97893762Y-33382219D01*
X97906815Y-33379456D01*
X98060899Y-33368929D01*
X98363514Y-33360008D01*
X98797902Y-33352825D01*
X99347306Y-33347508D01*
X99994967Y-33344189D01*
X100724130Y-33342997D01*
X101518036Y-33344063D01*
G37*
G36*
X99295153Y-157016144D02*
G01*
X100137045Y-157019598D01*
X104433879Y-157043029D01*
X104433879Y-157339817D01*
X104434865Y-157389843D01*
X104531703Y-157854482D01*
X104770162Y-158302115D01*
X105126477Y-158698062D01*
X105576879Y-159007643D01*
X105907297Y-159125556D01*
X106370399Y-159184558D01*
X106840789Y-159155215D01*
X107243396Y-159036241D01*
X107374364Y-158968092D01*
X107485401Y-158877319D01*
X107566341Y-158739606D01*
X107639065Y-158515412D01*
X107725455Y-158165198D01*
X107759272Y-158024629D01*
X107838347Y-157717772D01*
X107903350Y-157494669D01*
X107942771Y-157396053D01*
X107962322Y-157418115D01*
X107982184Y-157564829D01*
X107989879Y-157807556D01*
X107989879Y-158266167D01*
X108582545Y-158266167D01*
X109175212Y-158266167D01*
X109175212Y-157807556D01*
X109179395Y-157621510D01*
X109196157Y-157444835D01*
X109221363Y-157395095D01*
X109231878Y-157413666D01*
X109281998Y-157561371D01*
X109353612Y-157817953D01*
X109434901Y-158142075D01*
X109450013Y-158203703D01*
X109551848Y-158552552D01*
X109656618Y-158815876D01*
X109748584Y-158952983D01*
X109828793Y-158997857D01*
X110057651Y-159083225D01*
X110339389Y-159157453D01*
X110684076Y-159194896D01*
X111191037Y-159130532D01*
X111668547Y-158941632D01*
X112088870Y-158649075D01*
X112424269Y-158273741D01*
X112647009Y-157836511D01*
X112729353Y-157358265D01*
X112731212Y-157043029D01*
X117028045Y-157019598D01*
X117234478Y-157018540D01*
X118066336Y-157015674D01*
X118846168Y-157015164D01*
X119557217Y-157016880D01*
X120182726Y-157020693D01*
X120705938Y-157026471D01*
X121110094Y-157034086D01*
X121378438Y-157043405D01*
X121494212Y-157054300D01*
X121545937Y-157077551D01*
X121514656Y-157105829D01*
X121319079Y-157117800D01*
X120945008Y-157153132D01*
X120320996Y-157317920D01*
X119682449Y-157599424D01*
X119070224Y-157978374D01*
X118525178Y-158435501D01*
X118062601Y-158955110D01*
X117585827Y-159706067D01*
X117262143Y-160529097D01*
X117092723Y-161421753D01*
X117031674Y-162037340D01*
X116595943Y-161972087D01*
X116564890Y-161967835D01*
X116291908Y-161944897D01*
X115904537Y-161927563D01*
X115449839Y-161917457D01*
X114974879Y-161916201D01*
X114805164Y-161918027D01*
X114269780Y-161933689D01*
X113841568Y-161967170D01*
X113471915Y-162023462D01*
X113112212Y-162107561D01*
X112901348Y-162167786D01*
X111993183Y-162505146D01*
X111109345Y-162952807D01*
X110285810Y-163488027D01*
X109558552Y-164088065D01*
X108963545Y-164730178D01*
X108794055Y-164938370D01*
X108652572Y-165098444D01*
X108582545Y-165159709D01*
X108519305Y-165105525D01*
X108381357Y-164950575D01*
X108201545Y-164730178D01*
X108076857Y-164578281D01*
X107447882Y-163943924D01*
X106695022Y-163356932D01*
X105854252Y-162840046D01*
X104961546Y-162416008D01*
X104052879Y-162107561D01*
X103953709Y-162081763D01*
X103596111Y-162005685D01*
X103215403Y-161956062D01*
X102762974Y-161927899D01*
X102190212Y-161916201D01*
X102111248Y-161915724D01*
X101636735Y-161918545D01*
X101190628Y-161929902D01*
X100819888Y-161948184D01*
X100571478Y-161971778D01*
X100138078Y-162036721D01*
X100081162Y-161506111D01*
X99941863Y-160702422D01*
X99660765Y-159882330D01*
X99241617Y-159146457D01*
X98676545Y-158477834D01*
X98347089Y-158178461D01*
X97743408Y-157748467D01*
X97100094Y-157416231D01*
X96455009Y-157199945D01*
X95846012Y-157117800D01*
X95717178Y-157113093D01*
X95613098Y-157092291D01*
X95670879Y-157054300D01*
X95683932Y-157051537D01*
X95838016Y-157041010D01*
X96140631Y-157032089D01*
X96575019Y-157024906D01*
X97124423Y-157019589D01*
X97772084Y-157016270D01*
X98501247Y-157015078D01*
X99295153Y-157016144D01*
G37*
G36*
X165657129Y-177286418D02*
G01*
X166499021Y-177289872D01*
X170795855Y-177313303D01*
X170795855Y-177610091D01*
X170796841Y-177660117D01*
X170893679Y-178124756D01*
X171132138Y-178572389D01*
X171488453Y-178968336D01*
X171938855Y-179277917D01*
X172269273Y-179395830D01*
X172732375Y-179454832D01*
X173202765Y-179425489D01*
X173605372Y-179306515D01*
X173736340Y-179238366D01*
X173847377Y-179147593D01*
X173928317Y-179009880D01*
X174001041Y-178785686D01*
X174087431Y-178435472D01*
X174121248Y-178294903D01*
X174200323Y-177988046D01*
X174265326Y-177764943D01*
X174304747Y-177666327D01*
X174324298Y-177688389D01*
X174344160Y-177835103D01*
X174351855Y-178077830D01*
X174351855Y-178536441D01*
X174944521Y-178536441D01*
X175537188Y-178536441D01*
X175537188Y-178077830D01*
X175541371Y-177891784D01*
X175558133Y-177715109D01*
X175583339Y-177665369D01*
X175593854Y-177683940D01*
X175643974Y-177831645D01*
X175715588Y-178088227D01*
X175796877Y-178412349D01*
X175811989Y-178473977D01*
X175913824Y-178822826D01*
X176018594Y-179086150D01*
X176110560Y-179223257D01*
X176190769Y-179268131D01*
X176419627Y-179353499D01*
X176701365Y-179427727D01*
X177046052Y-179465170D01*
X177553013Y-179400806D01*
X178030523Y-179211906D01*
X178450846Y-178919349D01*
X178786245Y-178544015D01*
X179008985Y-178106785D01*
X179091329Y-177628539D01*
X179093188Y-177313303D01*
X183390021Y-177289872D01*
X183596454Y-177288814D01*
X184428312Y-177285948D01*
X185208144Y-177285438D01*
X185919193Y-177287154D01*
X186544702Y-177290967D01*
X187067914Y-177296745D01*
X187472070Y-177304360D01*
X187740414Y-177313679D01*
X187856188Y-177324574D01*
X187907913Y-177347825D01*
X187876632Y-177376103D01*
X187681055Y-177388074D01*
X187306984Y-177423406D01*
X186682972Y-177588194D01*
X186044425Y-177869698D01*
X185432200Y-178248648D01*
X184887154Y-178705775D01*
X184424577Y-179225384D01*
X183947803Y-179976341D01*
X183624119Y-180799371D01*
X183454699Y-181692027D01*
X183393650Y-182307614D01*
X182957919Y-182242361D01*
X182926866Y-182238109D01*
X182653884Y-182215171D01*
X182266513Y-182197837D01*
X181811815Y-182187731D01*
X181336855Y-182186475D01*
X181167140Y-182188301D01*
X180631756Y-182203963D01*
X180203544Y-182237444D01*
X179833891Y-182293736D01*
X179474188Y-182377835D01*
X179263324Y-182438060D01*
X178355159Y-182775420D01*
X177471321Y-183223081D01*
X176647786Y-183758301D01*
X175920528Y-184358339D01*
X175325521Y-185000452D01*
X175156031Y-185208644D01*
X175014548Y-185368718D01*
X174944521Y-185429983D01*
X174881281Y-185375799D01*
X174743333Y-185220849D01*
X174563521Y-185000452D01*
X174438833Y-184848555D01*
X173809858Y-184214198D01*
X173056998Y-183627206D01*
X172216228Y-183110320D01*
X171323522Y-182686282D01*
X170414855Y-182377835D01*
X170315685Y-182352037D01*
X169958087Y-182275959D01*
X169577379Y-182226336D01*
X169124950Y-182198173D01*
X168552188Y-182186475D01*
X168473224Y-182185998D01*
X167998711Y-182188819D01*
X167552604Y-182200176D01*
X167181864Y-182218458D01*
X166933454Y-182242052D01*
X166500054Y-182306995D01*
X166443138Y-181776385D01*
X166303839Y-180972696D01*
X166022741Y-180152604D01*
X165603593Y-179416731D01*
X165038521Y-178748108D01*
X164709065Y-178448735D01*
X164105384Y-178018741D01*
X163462070Y-177686505D01*
X162816985Y-177470219D01*
X162207988Y-177388074D01*
X162079154Y-177383367D01*
X161975074Y-177362565D01*
X162032855Y-177324574D01*
X162045908Y-177321811D01*
X162199992Y-177311284D01*
X162502607Y-177302363D01*
X162936995Y-177295180D01*
X163486399Y-177289863D01*
X164134060Y-177286544D01*
X164863223Y-177285352D01*
X165657129Y-177286418D01*
G37*
G36*
X225012187Y-28630792D02*
G01*
X225854079Y-28634246D01*
X230150913Y-28657677D01*
X230150913Y-28954465D01*
X230151899Y-29004491D01*
X230248737Y-29469130D01*
X230487196Y-29916763D01*
X230843511Y-30312710D01*
X231293913Y-30622291D01*
X231624331Y-30740204D01*
X232087433Y-30799206D01*
X232557823Y-30769863D01*
X232960430Y-30650889D01*
X233091398Y-30582740D01*
X233202435Y-30491967D01*
X233283375Y-30354254D01*
X233356099Y-30130060D01*
X233442489Y-29779846D01*
X233476306Y-29639277D01*
X233555381Y-29332420D01*
X233620384Y-29109317D01*
X233659805Y-29010701D01*
X233679356Y-29032763D01*
X233699218Y-29179477D01*
X233706913Y-29422204D01*
X233706913Y-29880815D01*
X234299579Y-29880815D01*
X234892246Y-29880815D01*
X234892246Y-29422204D01*
X234896429Y-29236158D01*
X234913191Y-29059483D01*
X234938397Y-29009743D01*
X234948912Y-29028314D01*
X234999032Y-29176019D01*
X235070646Y-29432601D01*
X235151935Y-29756723D01*
X235167047Y-29818351D01*
X235268882Y-30167200D01*
X235373652Y-30430524D01*
X235465618Y-30567631D01*
X235545827Y-30612505D01*
X235774685Y-30697873D01*
X236056423Y-30772101D01*
X236401110Y-30809544D01*
X236908071Y-30745180D01*
X237385581Y-30556280D01*
X237805904Y-30263723D01*
X238141303Y-29888389D01*
X238364043Y-29451159D01*
X238446387Y-28972913D01*
X238448246Y-28657677D01*
X242745079Y-28634246D01*
X242951512Y-28633188D01*
X243783370Y-28630322D01*
X244563202Y-28629812D01*
X245274251Y-28631528D01*
X245899760Y-28635341D01*
X246422972Y-28641119D01*
X246827128Y-28648734D01*
X247095472Y-28658053D01*
X247211246Y-28668948D01*
X247262971Y-28692199D01*
X247231690Y-28720477D01*
X247036113Y-28732448D01*
X246662042Y-28767780D01*
X246038030Y-28932568D01*
X245399483Y-29214072D01*
X244787258Y-29593022D01*
X244242212Y-30050149D01*
X243779635Y-30569758D01*
X243302861Y-31320715D01*
X242979177Y-32143745D01*
X242809757Y-33036401D01*
X242748708Y-33651988D01*
X242312977Y-33586735D01*
X242281924Y-33582483D01*
X242008942Y-33559545D01*
X241621571Y-33542211D01*
X241166873Y-33532105D01*
X240691913Y-33530849D01*
X240522198Y-33532675D01*
X239986814Y-33548337D01*
X239558602Y-33581818D01*
X239188949Y-33638110D01*
X238829246Y-33722209D01*
X238618382Y-33782434D01*
X237710217Y-34119794D01*
X236826379Y-34567455D01*
X236002844Y-35102675D01*
X235275586Y-35702713D01*
X234680579Y-36344826D01*
X234511089Y-36553018D01*
X234369606Y-36713092D01*
X234299579Y-36774357D01*
X234236339Y-36720173D01*
X234098391Y-36565223D01*
X233918579Y-36344826D01*
X233793891Y-36192929D01*
X233164916Y-35558572D01*
X232412056Y-34971580D01*
X231571286Y-34454694D01*
X230678580Y-34030656D01*
X229769913Y-33722209D01*
X229670743Y-33696411D01*
X229313145Y-33620333D01*
X228932437Y-33570710D01*
X228480008Y-33542547D01*
X227907246Y-33530849D01*
X227828282Y-33530372D01*
X227353769Y-33533193D01*
X226907662Y-33544550D01*
X226536922Y-33562832D01*
X226288512Y-33586426D01*
X225855112Y-33651369D01*
X225798196Y-33120759D01*
X225658897Y-32317070D01*
X225377799Y-31496978D01*
X224958651Y-30761105D01*
X224393579Y-30092482D01*
X224064123Y-29793109D01*
X223460442Y-29363115D01*
X222817128Y-29030879D01*
X222172043Y-28814593D01*
X221563046Y-28732448D01*
X221434212Y-28727741D01*
X221330132Y-28706939D01*
X221387913Y-28668948D01*
X221400966Y-28666185D01*
X221555050Y-28655658D01*
X221857665Y-28646737D01*
X222292053Y-28639554D01*
X222841457Y-28634237D01*
X223489118Y-28630918D01*
X224218281Y-28629726D01*
X225012187Y-28630792D01*
G37*
G36*
X140225205Y-27683920D02*
G01*
X141067097Y-27687374D01*
X145363931Y-27710805D01*
X145363931Y-28007593D01*
X145364917Y-28057619D01*
X145461755Y-28522258D01*
X145700214Y-28969891D01*
X146056529Y-29365838D01*
X146506931Y-29675419D01*
X146837349Y-29793332D01*
X147300451Y-29852334D01*
X147770841Y-29822991D01*
X148173448Y-29704017D01*
X148304416Y-29635868D01*
X148415453Y-29545095D01*
X148496393Y-29407382D01*
X148569117Y-29183188D01*
X148655507Y-28832974D01*
X148689324Y-28692405D01*
X148768399Y-28385548D01*
X148833402Y-28162445D01*
X148872823Y-28063829D01*
X148892374Y-28085891D01*
X148912236Y-28232605D01*
X148919931Y-28475332D01*
X148919931Y-28933943D01*
X149512597Y-28933943D01*
X150105264Y-28933943D01*
X150105264Y-28475332D01*
X150109447Y-28289286D01*
X150126209Y-28112611D01*
X150151415Y-28062871D01*
X150161930Y-28081442D01*
X150212050Y-28229147D01*
X150283664Y-28485729D01*
X150364953Y-28809851D01*
X150380065Y-28871479D01*
X150481900Y-29220328D01*
X150586670Y-29483652D01*
X150678636Y-29620759D01*
X150758845Y-29665633D01*
X150987703Y-29751001D01*
X151269441Y-29825229D01*
X151614128Y-29862672D01*
X152121089Y-29798308D01*
X152598599Y-29609408D01*
X153018922Y-29316851D01*
X153354321Y-28941517D01*
X153577061Y-28504287D01*
X153659405Y-28026041D01*
X153661264Y-27710805D01*
X157958097Y-27687374D01*
X158164530Y-27686316D01*
X158996388Y-27683450D01*
X159776220Y-27682940D01*
X160487269Y-27684656D01*
X161112778Y-27688469D01*
X161635990Y-27694247D01*
X162040146Y-27701862D01*
X162308490Y-27711181D01*
X162424264Y-27722076D01*
X162475989Y-27745327D01*
X162444708Y-27773605D01*
X162249131Y-27785576D01*
X161875060Y-27820908D01*
X161251048Y-27985696D01*
X160612501Y-28267200D01*
X160000276Y-28646150D01*
X159455230Y-29103277D01*
X158992653Y-29622886D01*
X158515879Y-30373843D01*
X158192195Y-31196873D01*
X158022775Y-32089529D01*
X157961726Y-32705116D01*
X157525995Y-32639863D01*
X157494942Y-32635611D01*
X157221960Y-32612673D01*
X156834589Y-32595339D01*
X156379891Y-32585233D01*
X155904931Y-32583977D01*
X155735216Y-32585803D01*
X155199832Y-32601465D01*
X154771620Y-32634946D01*
X154401967Y-32691238D01*
X154042264Y-32775337D01*
X153831400Y-32835562D01*
X152923235Y-33172922D01*
X152039397Y-33620583D01*
X151215862Y-34155803D01*
X150488604Y-34755841D01*
X149893597Y-35397954D01*
X149724107Y-35606146D01*
X149582624Y-35766220D01*
X149512597Y-35827485D01*
X149449357Y-35773301D01*
X149311409Y-35618351D01*
X149131597Y-35397954D01*
X149006909Y-35246057D01*
X148377934Y-34611700D01*
X147625074Y-34024708D01*
X146784304Y-33507822D01*
X145891598Y-33083784D01*
X144982931Y-32775337D01*
X144883761Y-32749539D01*
X144526163Y-32673461D01*
X144145455Y-32623838D01*
X143693026Y-32595675D01*
X143120264Y-32583977D01*
X143041300Y-32583500D01*
X142566787Y-32586321D01*
X142120680Y-32597678D01*
X141749940Y-32615960D01*
X141501530Y-32639554D01*
X141068130Y-32704497D01*
X141011214Y-32173887D01*
X140871915Y-31370198D01*
X140590817Y-30550106D01*
X140171669Y-29814233D01*
X139606597Y-29145610D01*
X139277141Y-28846237D01*
X138673460Y-28416243D01*
X138030146Y-28084007D01*
X137385061Y-27867721D01*
X136776064Y-27785576D01*
X136647230Y-27780869D01*
X136543150Y-27760067D01*
X136600931Y-27722076D01*
X136613984Y-27719313D01*
X136768068Y-27708786D01*
X137070683Y-27699865D01*
X137505071Y-27692682D01*
X138054475Y-27687365D01*
X138702136Y-27684046D01*
X139431299Y-27682854D01*
X140225205Y-27683920D01*
G37*
G36*
X26669131Y-30371700D02*
G01*
X27511023Y-30375154D01*
X31807857Y-30398585D01*
X31807857Y-30695373D01*
X31808843Y-30745399D01*
X31905681Y-31210038D01*
X32144140Y-31657671D01*
X32500455Y-32053618D01*
X32950857Y-32363199D01*
X33281275Y-32481112D01*
X33744377Y-32540114D01*
X34214767Y-32510771D01*
X34617374Y-32391797D01*
X34748342Y-32323648D01*
X34859379Y-32232875D01*
X34940319Y-32095162D01*
X35013043Y-31870968D01*
X35099433Y-31520754D01*
X35133250Y-31380185D01*
X35212325Y-31073328D01*
X35277328Y-30850225D01*
X35316749Y-30751609D01*
X35336300Y-30773671D01*
X35356162Y-30920385D01*
X35363857Y-31163112D01*
X35363857Y-31621723D01*
X35956523Y-31621723D01*
X36549190Y-31621723D01*
X36549190Y-31163112D01*
X36553373Y-30977066D01*
X36570135Y-30800391D01*
X36595341Y-30750651D01*
X36605856Y-30769222D01*
X36655976Y-30916927D01*
X36727590Y-31173509D01*
X36808879Y-31497631D01*
X36823991Y-31559259D01*
X36925826Y-31908108D01*
X37030596Y-32171432D01*
X37122562Y-32308539D01*
X37202771Y-32353413D01*
X37431629Y-32438781D01*
X37713367Y-32513009D01*
X38058054Y-32550452D01*
X38565015Y-32486088D01*
X39042525Y-32297188D01*
X39462848Y-32004631D01*
X39798247Y-31629297D01*
X40020987Y-31192067D01*
X40103331Y-30713821D01*
X40105190Y-30398585D01*
X44402023Y-30375154D01*
X44608456Y-30374096D01*
X45440314Y-30371230D01*
X46220146Y-30370720D01*
X46931195Y-30372436D01*
X47556704Y-30376249D01*
X48079916Y-30382027D01*
X48484072Y-30389642D01*
X48752416Y-30398961D01*
X48868190Y-30409856D01*
X48919915Y-30433107D01*
X48888634Y-30461385D01*
X48693057Y-30473356D01*
X48318986Y-30508688D01*
X47694974Y-30673476D01*
X47056427Y-30954980D01*
X46444202Y-31333930D01*
X45899156Y-31791057D01*
X45436579Y-32310666D01*
X44959805Y-33061623D01*
X44636121Y-33884653D01*
X44466701Y-34777309D01*
X44405652Y-35392896D01*
X43969921Y-35327643D01*
X43938868Y-35323391D01*
X43665886Y-35300453D01*
X43278515Y-35283119D01*
X42823817Y-35273013D01*
X42348857Y-35271757D01*
X42179142Y-35273583D01*
X41643758Y-35289245D01*
X41215546Y-35322726D01*
X40845893Y-35379018D01*
X40486190Y-35463117D01*
X40275326Y-35523342D01*
X39367161Y-35860702D01*
X38483323Y-36308363D01*
X37659788Y-36843583D01*
X36932530Y-37443621D01*
X36337523Y-38085734D01*
X36168033Y-38293926D01*
X36026550Y-38454000D01*
X35956523Y-38515265D01*
X35893283Y-38461081D01*
X35755335Y-38306131D01*
X35575523Y-38085734D01*
X35450835Y-37933837D01*
X34821860Y-37299480D01*
X34069000Y-36712488D01*
X33228230Y-36195602D01*
X32335524Y-35771564D01*
X31426857Y-35463117D01*
X31327687Y-35437319D01*
X30970089Y-35361241D01*
X30589381Y-35311618D01*
X30136952Y-35283455D01*
X29564190Y-35271757D01*
X29485226Y-35271280D01*
X29010713Y-35274101D01*
X28564606Y-35285458D01*
X28193866Y-35303740D01*
X27945456Y-35327334D01*
X27512056Y-35392277D01*
X27455140Y-34861667D01*
X27315841Y-34057978D01*
X27034743Y-33237886D01*
X26615595Y-32502013D01*
X26050523Y-31833390D01*
X25721067Y-31534017D01*
X25117386Y-31104023D01*
X24474072Y-30771787D01*
X23828987Y-30555501D01*
X23219990Y-30473356D01*
X23091156Y-30468649D01*
X22987076Y-30447847D01*
X23044857Y-30409856D01*
X23057910Y-30407093D01*
X23211994Y-30396566D01*
X23514609Y-30387645D01*
X23948997Y-30380462D01*
X24498401Y-30375145D01*
X25146062Y-30371826D01*
X25875225Y-30370634D01*
X26669131Y-30371700D01*
G37*
G36*
X207769766Y-103607098D02*
G01*
X207993458Y-103755864D01*
X208049207Y-103797532D01*
X208209696Y-103937996D01*
X208316579Y-104093501D01*
X208397292Y-104314660D01*
X208479271Y-104652088D01*
X208521712Y-104847183D01*
X208629689Y-105396050D01*
X208719837Y-105951126D01*
X208792772Y-106528683D01*
X208849112Y-107144993D01*
X208889475Y-107816330D01*
X208914478Y-108558964D01*
X208924739Y-109389169D01*
X208920876Y-110323216D01*
X208903506Y-111377378D01*
X208873247Y-112567928D01*
X208830717Y-113911137D01*
X208817099Y-114314800D01*
X208787130Y-115224580D01*
X208757659Y-116146495D01*
X208729600Y-117050316D01*
X208703871Y-117905818D01*
X208681387Y-118682773D01*
X208663065Y-119350955D01*
X208649819Y-119880137D01*
X208638181Y-120367051D01*
X208598688Y-121836286D01*
X208553060Y-123300773D01*
X208502191Y-124739940D01*
X208446974Y-126133214D01*
X208388302Y-127460022D01*
X208327068Y-128699791D01*
X208264166Y-129831949D01*
X208200490Y-130835921D01*
X208136932Y-131691137D01*
X208113932Y-131988642D01*
X208074943Y-132572983D01*
X208043512Y-133148878D01*
X208022401Y-133662946D01*
X208014369Y-134061804D01*
X208013299Y-134225487D01*
X208002662Y-134752738D01*
X207983228Y-135301477D01*
X207958128Y-135776304D01*
X207903463Y-136601804D01*
X206773233Y-136601804D01*
X205643002Y-136601804D01*
X205643309Y-135945637D01*
X205644247Y-135795908D01*
X205653030Y-135334763D01*
X205670040Y-134745867D01*
X205694034Y-134056219D01*
X205723772Y-133292818D01*
X205758009Y-132482666D01*
X205795506Y-131652761D01*
X205835019Y-130830103D01*
X205875306Y-130041692D01*
X205915127Y-129314528D01*
X205953238Y-128675611D01*
X205988397Y-128151940D01*
X206019364Y-127770516D01*
X206035617Y-127589862D01*
X206064472Y-127217469D01*
X206090898Y-126797401D01*
X206115247Y-126317493D01*
X206137872Y-125765581D01*
X206159125Y-125129497D01*
X206179359Y-124397077D01*
X206198928Y-123556155D01*
X206218183Y-122594566D01*
X206237478Y-121500143D01*
X206257164Y-120260722D01*
X206277596Y-118864137D01*
X206286055Y-118306631D01*
X206305728Y-117208061D01*
X206329618Y-116074183D01*
X206357176Y-114920737D01*
X206387853Y-113763461D01*
X206421100Y-112618097D01*
X206456369Y-111500384D01*
X206493111Y-110426061D01*
X206530777Y-109410869D01*
X206568819Y-108470546D01*
X206606688Y-107620833D01*
X206643835Y-106877469D01*
X206679712Y-106256195D01*
X206713769Y-105772749D01*
X206745459Y-105442871D01*
X206763221Y-105300064D01*
X206838461Y-104767177D01*
X206916902Y-104370046D01*
X207009302Y-104081552D01*
X207126419Y-103874576D01*
X207279011Y-103721998D01*
X207477838Y-103596698D01*
X207487501Y-103591644D01*
X207618355Y-103557681D01*
X207769766Y-103607098D01*
G37*
G36*
X187772480Y-60076560D02*
G01*
X188925724Y-60087705D01*
X189944383Y-60107734D01*
X190838383Y-60136935D01*
X191617651Y-60175600D01*
X192292115Y-60224017D01*
X192871701Y-60282477D01*
X193366336Y-60351271D01*
X193522674Y-60374987D01*
X193986068Y-60433528D01*
X194498555Y-60485922D01*
X194975002Y-60523079D01*
X195054853Y-60528137D01*
X195991978Y-60610176D01*
X196805113Y-60725220D01*
X197472669Y-60870266D01*
X197611210Y-60904159D01*
X197949727Y-60974454D01*
X198361073Y-61049568D01*
X198785002Y-61118122D01*
X198984605Y-61149374D01*
X199474125Y-61234320D01*
X199956491Y-61327513D01*
X200351336Y-61413784D01*
X200493991Y-61446602D01*
X200936813Y-61538300D01*
X201431882Y-61630133D01*
X201896361Y-61706412D01*
X202138060Y-61746182D01*
X202517398Y-61822259D01*
X202829610Y-61901210D01*
X203024236Y-61971188D01*
X203066303Y-61990645D01*
X203307090Y-62071906D01*
X203640493Y-62157550D01*
X204007681Y-62231977D01*
X204100555Y-62248675D01*
X204475567Y-62324817D01*
X204809340Y-62404891D01*
X205038806Y-62474088D01*
X205063698Y-62483139D01*
X205315794Y-62559948D01*
X205658095Y-62648445D01*
X206024002Y-62731247D01*
X206077901Y-62742813D01*
X206440169Y-62835257D01*
X206764836Y-62940392D01*
X206987239Y-63037650D01*
X207204399Y-63133759D01*
X207527530Y-63238106D01*
X207876239Y-63322836D01*
X208034152Y-63357781D01*
X208437488Y-63464323D01*
X208891935Y-63601105D01*
X209326002Y-63747200D01*
X209542759Y-63824950D01*
X209973261Y-63978651D01*
X210374180Y-64120969D01*
X210680669Y-64228848D01*
X210918675Y-64319528D01*
X211211580Y-64450567D01*
X211415909Y-64564787D01*
X211469525Y-64599579D01*
X211724773Y-64734118D01*
X212008575Y-64851948D01*
X212137778Y-64900237D01*
X212470901Y-65039263D01*
X212792793Y-65188833D01*
X212964418Y-65270268D01*
X213183891Y-65361603D01*
X213310318Y-65397137D01*
X213357597Y-65410056D01*
X213520943Y-65501272D01*
X213728669Y-65651137D01*
X213834771Y-65732065D01*
X214020306Y-65856228D01*
X214129783Y-65905137D01*
X214237965Y-65934823D01*
X214465307Y-66029702D01*
X214764826Y-66170282D01*
X215096435Y-66336412D01*
X215420050Y-66507936D01*
X215695584Y-66664702D01*
X215882952Y-66786556D01*
X215955790Y-66839117D01*
X216149365Y-66958243D01*
X216274751Y-67005804D01*
X216348354Y-67027862D01*
X216484396Y-67137695D01*
X216496790Y-67151479D01*
X216661413Y-67275308D01*
X216887154Y-67392134D01*
X216986032Y-67440271D01*
X217252228Y-67608240D01*
X217507971Y-67810576D01*
X217633066Y-67917387D01*
X217821931Y-68054722D01*
X217941080Y-68109911D01*
X217981649Y-68120627D01*
X218140538Y-68211442D01*
X218339804Y-68363911D01*
X218425180Y-68433381D01*
X218613918Y-68563036D01*
X218737170Y-68614470D01*
X218836497Y-68659014D01*
X218968884Y-68796479D01*
X218987181Y-68820744D01*
X219161512Y-68992371D01*
X219385373Y-69156312D01*
X219564444Y-69267806D01*
X219989207Y-69544600D01*
X220325890Y-69782733D01*
X220554546Y-69967622D01*
X220655225Y-70084683D01*
X220734743Y-70192816D01*
X220903043Y-70321748D01*
X221229287Y-70511763D01*
X221545140Y-70719216D01*
X221815464Y-70934832D01*
X222100246Y-71202757D01*
X222107425Y-71209854D01*
X222342508Y-71434004D01*
X222545801Y-71613750D01*
X222674009Y-71710757D01*
X222680007Y-71714229D01*
X222809391Y-71809886D01*
X223027040Y-71996903D01*
X223339174Y-72281031D01*
X223752011Y-72668019D01*
X224271770Y-73163620D01*
X224904669Y-73773583D01*
X225129617Y-73987379D01*
X225489222Y-74314205D01*
X225816110Y-74594077D01*
X226081407Y-74802604D01*
X226256237Y-74915392D01*
X226291156Y-74932722D01*
X226621529Y-75155582D01*
X226987877Y-75485488D01*
X227355509Y-75882274D01*
X227689732Y-76305775D01*
X227955855Y-76715826D01*
X228119185Y-77072261D01*
X228133263Y-77109512D01*
X228247375Y-77312383D01*
X228411251Y-77531200D01*
X228465155Y-77598807D01*
X228646580Y-77881772D01*
X228792326Y-78181804D01*
X228841293Y-78302357D01*
X228940886Y-78522748D01*
X229012202Y-78648498D01*
X229060780Y-78733412D01*
X229154601Y-78941935D01*
X229261853Y-79212285D01*
X229349863Y-79426291D01*
X229466971Y-79659552D01*
X229559893Y-79789273D01*
X229614573Y-79857534D01*
X229720872Y-80061018D01*
X229823692Y-80326153D01*
X229881619Y-80491626D01*
X229987475Y-80756567D01*
X230075018Y-80933470D01*
X230105248Y-80988214D01*
X230200195Y-81213094D01*
X230289052Y-81483804D01*
X230316169Y-81571869D01*
X230433471Y-81868384D01*
X230561343Y-82104955D01*
X230595895Y-82160883D01*
X230720532Y-82414678D01*
X230871746Y-82776613D01*
X231034079Y-83206409D01*
X231192073Y-83663788D01*
X231330269Y-84108470D01*
X231330503Y-84109276D01*
X231422216Y-84383151D01*
X231556218Y-84734468D01*
X231703585Y-85087381D01*
X231703850Y-85087984D01*
X231848311Y-85443140D01*
X231974461Y-85799628D01*
X232055018Y-86080357D01*
X232075812Y-86168346D01*
X232168096Y-86502561D01*
X232265480Y-86794779D01*
X232320019Y-86956870D01*
X232409944Y-87282683D01*
X232486380Y-87622137D01*
X232538181Y-87855684D01*
X232607583Y-88097381D01*
X232666311Y-88230064D01*
X232682045Y-88258174D01*
X232737665Y-88432607D01*
X232802075Y-88712742D01*
X232864306Y-89052994D01*
X232866597Y-89067028D01*
X232954876Y-89520908D01*
X233072148Y-90016202D01*
X233193680Y-90448157D01*
X233197237Y-90459455D01*
X233316147Y-90875231D01*
X233425337Y-91320067D01*
X233501580Y-91699561D01*
X233558034Y-92006747D01*
X233654229Y-92459990D01*
X233753917Y-92871470D01*
X233837699Y-93248131D01*
X233915766Y-93711451D01*
X233966429Y-94141470D01*
X233994025Y-94386457D01*
X234064338Y-94831650D01*
X234159423Y-95323270D01*
X234266756Y-95792470D01*
X234344599Y-96116130D01*
X234450341Y-96597522D01*
X234538991Y-97047934D01*
X234596956Y-97401137D01*
X234598399Y-97411811D01*
X234679596Y-97950304D01*
X234791327Y-98606138D01*
X234924840Y-99333059D01*
X235071379Y-100084810D01*
X235222191Y-100815138D01*
X235368520Y-101477788D01*
X235615002Y-102548772D01*
X235605624Y-108293454D01*
X235603781Y-109251898D01*
X235600966Y-110254770D01*
X235597291Y-111106257D01*
X235592540Y-111816147D01*
X235586500Y-112394229D01*
X235578957Y-112850292D01*
X235569696Y-113194126D01*
X235558504Y-113435520D01*
X235545166Y-113584262D01*
X235529468Y-113650141D01*
X235511195Y-113642948D01*
X235490135Y-113572470D01*
X235389315Y-113098792D01*
X235246138Y-112304458D01*
X235132999Y-111519999D01*
X235061637Y-110820804D01*
X235058487Y-110779435D01*
X235012587Y-110304244D01*
X234949318Y-109789335D01*
X234881383Y-109339137D01*
X234841108Y-109104266D01*
X234762035Y-108639049D01*
X234675816Y-108128043D01*
X234595057Y-107645804D01*
X234544585Y-107360550D01*
X234441415Y-106839720D01*
X234328968Y-106330200D01*
X234223953Y-105910137D01*
X234181494Y-105750638D01*
X234095402Y-105394939D01*
X234034791Y-105098203D01*
X234010723Y-104912200D01*
X233996977Y-104775234D01*
X233952411Y-104495042D01*
X233884623Y-104130814D01*
X233801435Y-103726867D01*
X233749097Y-103477722D01*
X233642253Y-102937106D01*
X233540690Y-102387239D01*
X233460793Y-101915248D01*
X233421421Y-101680620D01*
X233347002Y-101296691D01*
X233272990Y-100976579D01*
X233210752Y-100772248D01*
X233127854Y-100514322D01*
X233026832Y-100063085D01*
X232926718Y-99471634D01*
X232830497Y-98755804D01*
X232775310Y-98355894D01*
X232698459Y-97878169D01*
X232618836Y-97443470D01*
X232528917Y-96985657D01*
X232373248Y-96162231D01*
X232228870Y-95360693D01*
X232104297Y-94628841D01*
X232008043Y-94014470D01*
X231986031Y-93873328D01*
X231906353Y-93443762D01*
X231815066Y-93038236D01*
X231727876Y-92728815D01*
X231686184Y-92592472D01*
X231594820Y-92232931D01*
X231502604Y-91804935D01*
X231424253Y-91374149D01*
X231387845Y-91161290D01*
X231301886Y-90716947D01*
X231210596Y-90304887D01*
X231128471Y-89992804D01*
X231065712Y-89769577D01*
X230974432Y-89388494D01*
X230913029Y-89061470D01*
X230859440Y-88813245D01*
X230746967Y-88448823D01*
X230608732Y-88097259D01*
X230605351Y-88089726D01*
X230484679Y-87807452D01*
X230399142Y-87582248D01*
X230367065Y-87462259D01*
X230366197Y-87441816D01*
X230330627Y-87253994D01*
X230251574Y-86951162D01*
X230140732Y-86570228D01*
X230009797Y-86148099D01*
X229870463Y-85721684D01*
X229734425Y-85327891D01*
X229613376Y-85003628D01*
X229519012Y-84785804D01*
X229419062Y-84573640D01*
X229295034Y-84265336D01*
X229221509Y-84023804D01*
X229202944Y-83949950D01*
X229098572Y-83664663D01*
X228958407Y-83381365D01*
X228905081Y-83282250D01*
X228799125Y-83026249D01*
X228757002Y-82826441D01*
X228742840Y-82733456D01*
X228656600Y-82498253D01*
X228518038Y-82240814D01*
X228450863Y-82129123D01*
X228276352Y-81795409D01*
X228142708Y-81483404D01*
X227999575Y-81098875D01*
X227829495Y-80674424D01*
X227669218Y-80305358D01*
X227533976Y-80026542D01*
X227439003Y-79872840D01*
X227365544Y-79764920D01*
X227239518Y-79537219D01*
X227103751Y-79259007D01*
X226989452Y-79030797D01*
X226874708Y-78845544D01*
X226799142Y-78774470D01*
X226787636Y-78772198D01*
X226697930Y-78680359D01*
X226599918Y-78495781D01*
X226595155Y-78484681D01*
X226452156Y-78261085D01*
X226274924Y-78105479D01*
X226120719Y-77987619D01*
X225974170Y-77791502D01*
X225894046Y-77657382D01*
X225806735Y-77589137D01*
X225772944Y-77573049D01*
X225657231Y-77454630D01*
X225512943Y-77258867D01*
X225494996Y-77233423D01*
X225353026Y-77062530D01*
X225119620Y-76805881D01*
X224812193Y-76480777D01*
X224448164Y-76104520D01*
X224044950Y-75694412D01*
X223619967Y-75267755D01*
X223190634Y-74841851D01*
X222774366Y-74434002D01*
X222388583Y-74061509D01*
X222050699Y-73741674D01*
X221778134Y-73491799D01*
X221588303Y-73329186D01*
X221498625Y-73271137D01*
X221427563Y-73237697D01*
X221293314Y-73126636D01*
X221078742Y-72922349D01*
X220766586Y-72609229D01*
X220692784Y-72536560D01*
X220483449Y-72350240D01*
X220317744Y-72228229D01*
X220267460Y-72197657D01*
X220033723Y-72039880D01*
X219735209Y-71823689D01*
X219422789Y-71586563D01*
X219147336Y-71365979D01*
X219101669Y-71328012D01*
X218756201Y-71046019D01*
X218515285Y-70861813D01*
X218359709Y-70761488D01*
X218270259Y-70731137D01*
X218199470Y-70699272D01*
X218092631Y-70568584D01*
X218087391Y-70559452D01*
X217941565Y-70421779D01*
X217723715Y-70312989D01*
X217643815Y-70280189D01*
X217392194Y-70126546D01*
X217156123Y-69925209D01*
X217058998Y-69829405D01*
X216892464Y-69686643D01*
X216792211Y-69630470D01*
X216714737Y-69605684D01*
X216514938Y-69501282D01*
X216239802Y-69335346D01*
X215925146Y-69129752D01*
X215606785Y-68906378D01*
X215493553Y-68825956D01*
X215222577Y-68646623D01*
X214998669Y-68514221D01*
X214853019Y-68437006D01*
X214576016Y-68288992D01*
X214279002Y-68129337D01*
X214245144Y-68111095D01*
X213998564Y-67979588D01*
X213734369Y-67841570D01*
X213419050Y-67679835D01*
X213019098Y-67477176D01*
X212501002Y-67216388D01*
X212379879Y-67157400D01*
X212111362Y-67037583D01*
X211908336Y-66960870D01*
X211893663Y-66956173D01*
X211673911Y-66853589D01*
X211442669Y-66705092D01*
X211397142Y-66673029D01*
X211123758Y-66526145D01*
X210827564Y-66417335D01*
X210768705Y-66400666D01*
X210459415Y-66289985D01*
X210192564Y-66163735D01*
X210190449Y-66162523D01*
X209911106Y-66033846D01*
X209623938Y-65944650D01*
X209411411Y-65878141D01*
X209108319Y-65752470D01*
X208791406Y-65597779D01*
X208788867Y-65596433D01*
X208489837Y-65453343D01*
X208221628Y-65351355D01*
X208042026Y-65312470D01*
X208032780Y-65312302D01*
X207839466Y-65282653D01*
X207550065Y-65211882D01*
X207223557Y-65114270D01*
X206874658Y-65006674D01*
X206407052Y-64874541D01*
X205981669Y-64765503D01*
X205974889Y-64763891D01*
X205610619Y-64667497D01*
X205263567Y-64559598D01*
X205008002Y-64463249D01*
X204811088Y-64389443D01*
X204471014Y-64291686D01*
X204119002Y-64215323D01*
X203855634Y-64164060D01*
X203481711Y-64077771D01*
X203178645Y-63993338D01*
X203165130Y-63989037D01*
X202876272Y-63910521D01*
X202502213Y-63825374D01*
X202120312Y-63751289D01*
X201579040Y-63655737D01*
X200708830Y-63495379D01*
X199965045Y-63349000D01*
X199361499Y-63219363D01*
X198912002Y-63109234D01*
X198317575Y-62967746D01*
X197427400Y-62816420D01*
X196419936Y-62709325D01*
X195271336Y-62643410D01*
X194986260Y-62630980D01*
X194441365Y-62599139D01*
X193922670Y-62559411D01*
X193477872Y-62515664D01*
X193154669Y-62471766D01*
X192888022Y-62433989D01*
X192466133Y-62388143D01*
X191954073Y-62342114D01*
X191393565Y-62299619D01*
X190826336Y-62264374D01*
X190366835Y-62238189D01*
X189637376Y-62193599D01*
X188856386Y-62143077D01*
X188091740Y-62091045D01*
X187411318Y-62041925D01*
X187157840Y-62023634D01*
X185877007Y-61951956D01*
X184591294Y-61912467D01*
X183343414Y-61905514D01*
X182176080Y-61931446D01*
X181132002Y-61990614D01*
X180743200Y-62020699D01*
X180137953Y-62066603D01*
X179465841Y-62116788D01*
X178784194Y-62166979D01*
X178150343Y-62212903D01*
X178040991Y-62220832D01*
X177526906Y-62260568D01*
X177074917Y-62299426D01*
X176711742Y-62334840D01*
X176464096Y-62364242D01*
X176358700Y-62385065D01*
X176339905Y-62394344D01*
X176169148Y-62443649D01*
X175880036Y-62504568D01*
X175512773Y-62570264D01*
X175107567Y-62633900D01*
X174704624Y-62688637D01*
X174344151Y-62727640D01*
X174277510Y-62734301D01*
X173876385Y-62793542D01*
X173418180Y-62884375D01*
X172989484Y-62990027D01*
X172941575Y-63003246D01*
X172471246Y-63122221D01*
X171956427Y-63237799D01*
X171500250Y-63326667D01*
X171375844Y-63348790D01*
X171017124Y-63419443D01*
X170715708Y-63488264D01*
X170526584Y-63543035D01*
X170469347Y-63562459D01*
X170231234Y-63628382D01*
X169901257Y-63708102D01*
X169532669Y-63788470D01*
X169382355Y-63820157D01*
X169027253Y-63900365D01*
X168734638Y-63973609D01*
X168556376Y-64027206D01*
X168533969Y-64035118D01*
X168324840Y-64090338D01*
X168016587Y-64154863D01*
X167667376Y-64216321D01*
X167638850Y-64220954D01*
X167255006Y-64297526D01*
X166887279Y-64392892D01*
X166611669Y-64487527D01*
X166562255Y-64508000D01*
X166268797Y-64615133D01*
X165895560Y-64736247D01*
X165511002Y-64848864D01*
X165415249Y-64875459D01*
X165037587Y-64985434D01*
X164695327Y-65092142D01*
X164452669Y-65175753D01*
X164375162Y-65204293D01*
X164144328Y-65277581D01*
X163992505Y-65308754D01*
X163981054Y-65309985D01*
X163832125Y-65359440D01*
X163588116Y-65466240D01*
X163295704Y-65610190D01*
X162951363Y-65767495D01*
X162600055Y-65894373D01*
X162318598Y-65962984D01*
X162216254Y-65980182D01*
X161907398Y-66061531D01*
X161660733Y-66164570D01*
X161419337Y-66285344D01*
X161193002Y-66372438D01*
X161099603Y-66410569D01*
X160871989Y-66542873D01*
X160628420Y-66719798D01*
X160487982Y-66826426D01*
X160284440Y-66955451D01*
X160153229Y-67005804D01*
X160108822Y-67014466D01*
X159936084Y-67097028D01*
X159724034Y-67238637D01*
X159576616Y-67350582D01*
X159288308Y-67569841D01*
X159000566Y-67788970D01*
X158802370Y-67935007D01*
X158618678Y-68058861D01*
X158525480Y-68106470D01*
X158497671Y-68115583D01*
X158372662Y-68208269D01*
X158154082Y-68408266D01*
X157831798Y-68724599D01*
X157574189Y-68986006D01*
X157363348Y-69213039D01*
X157248451Y-69359250D01*
X157213669Y-69443035D01*
X157159528Y-69535297D01*
X157013206Y-69657677D01*
X156924347Y-69733042D01*
X156746041Y-69940877D01*
X156574242Y-70196581D01*
X156475517Y-70359404D01*
X156328540Y-70582112D01*
X156224372Y-70716018D01*
X156167301Y-70786596D01*
X156113002Y-70921018D01*
X156093038Y-70996328D01*
X155997590Y-71147803D01*
X155948160Y-71220420D01*
X155838984Y-71436168D01*
X155730035Y-71704804D01*
X155668014Y-71862346D01*
X155555760Y-72092624D01*
X155461971Y-72223948D01*
X155403821Y-72303384D01*
X155288655Y-72536160D01*
X155140842Y-72890441D01*
X154969274Y-73342553D01*
X154782841Y-73868823D01*
X154590435Y-74445575D01*
X154400946Y-75049137D01*
X154359446Y-75194672D01*
X154237916Y-75820415D01*
X154204260Y-76429167D01*
X154258485Y-76978345D01*
X154400598Y-77425368D01*
X154466512Y-77565077D01*
X154554520Y-77771083D01*
X154589002Y-77882271D01*
X154631624Y-77990281D01*
X154743674Y-78181787D01*
X154893904Y-78409907D01*
X155051035Y-78629159D01*
X155183784Y-78794062D01*
X155260873Y-78859137D01*
X155284762Y-78868827D01*
X155414683Y-78964115D01*
X155620562Y-79139429D01*
X155870180Y-79367867D01*
X155955548Y-79448385D01*
X156218385Y-79695906D01*
X156439684Y-79903773D01*
X156578669Y-80033669D01*
X156726392Y-80144816D01*
X156939431Y-80250606D01*
X157110260Y-80363324D01*
X157257496Y-80555359D01*
X157276447Y-80589764D01*
X157452962Y-80775897D01*
X157743401Y-80892103D01*
X157825803Y-80914440D01*
X158160820Y-81020408D01*
X158483669Y-81140178D01*
X158569117Y-81173230D01*
X158917051Y-81283184D01*
X159245669Y-81357779D01*
X159326944Y-81372645D01*
X159630165Y-81451624D01*
X159875950Y-81546828D01*
X160109977Y-81648182D01*
X160479962Y-81773167D01*
X160882844Y-81883365D01*
X161255604Y-81961877D01*
X161535224Y-81991804D01*
X161622490Y-81996999D01*
X161896629Y-82036663D01*
X162252715Y-82106873D01*
X162636161Y-82197434D01*
X162801511Y-82238916D01*
X163210337Y-82334365D01*
X163584641Y-82412961D01*
X163860002Y-82460841D01*
X163989698Y-82479864D01*
X164270499Y-82529685D01*
X164611544Y-82601874D01*
X165047177Y-82703933D01*
X165611746Y-82843361D01*
X165626860Y-82846869D01*
X165826902Y-82878487D01*
X166160121Y-82917839D01*
X166595008Y-82961718D01*
X167100053Y-83006915D01*
X167643746Y-83050223D01*
X167646252Y-83050410D01*
X168222984Y-83095522D01*
X168792081Y-83143605D01*
X169313220Y-83190994D01*
X169746077Y-83234023D01*
X170050328Y-83269025D01*
X170186642Y-83285624D01*
X170741146Y-83316444D01*
X171210989Y-83271744D01*
X171484914Y-83232444D01*
X171792609Y-83239152D01*
X172132664Y-83318703D01*
X172228240Y-83344738D01*
X172382204Y-83375272D01*
X172572664Y-83398033D01*
X172818588Y-83413444D01*
X173138942Y-83421932D01*
X173552693Y-83423921D01*
X174078809Y-83419836D01*
X174736257Y-83410102D01*
X175544002Y-83395145D01*
X176071644Y-83383829D01*
X176770796Y-83365851D01*
X177421619Y-83345817D01*
X177999914Y-83324635D01*
X178481486Y-83303213D01*
X178842137Y-83282458D01*
X179057669Y-83263279D01*
X179082689Y-83260134D01*
X179334151Y-83237227D01*
X179723146Y-83210687D01*
X180222235Y-83182002D01*
X180803978Y-83152659D01*
X181440936Y-83124148D01*
X182105669Y-83097957D01*
X182502672Y-83082982D01*
X183383811Y-83045528D01*
X184131458Y-83006132D01*
X184771185Y-82962634D01*
X185328563Y-82912871D01*
X185829166Y-82854684D01*
X186298567Y-82785910D01*
X186762336Y-82704389D01*
X186787937Y-82699632D01*
X187132083Y-82643625D01*
X187583721Y-82580092D01*
X188087144Y-82516489D01*
X188586644Y-82460268D01*
X188643361Y-82454260D01*
X189138917Y-82395679D01*
X189625753Y-82328662D01*
X190050552Y-82261019D01*
X190359998Y-82200558D01*
X190739627Y-82123167D01*
X191198293Y-82045773D01*
X191626023Y-81987457D01*
X191734915Y-81973700D01*
X192174022Y-81901506D01*
X192662136Y-81802167D01*
X193112336Y-81692910D01*
X193246029Y-81657857D01*
X193706075Y-81548335D01*
X194168788Y-81451794D01*
X194551669Y-81385835D01*
X194917106Y-81320951D01*
X195389584Y-81212746D01*
X195811310Y-81093396D01*
X195864047Y-81076478D01*
X196177011Y-80982469D01*
X196431313Y-80916209D01*
X196576144Y-80891137D01*
X196602599Y-80887978D01*
X196781685Y-80828005D01*
X197067225Y-80704380D01*
X197427651Y-80533458D01*
X197831394Y-80331595D01*
X198246887Y-80115148D01*
X198642561Y-79900472D01*
X198986848Y-79703924D01*
X199248179Y-79541860D01*
X199394987Y-79430637D01*
X199434143Y-79392239D01*
X199604643Y-79253787D01*
X199725662Y-79197803D01*
X199764862Y-79188995D01*
X199925840Y-79106456D01*
X200131677Y-78965220D01*
X200180298Y-78928953D01*
X200389970Y-78805783D01*
X200619948Y-78747309D01*
X200944002Y-78732386D01*
X201452002Y-78732137D01*
X201437562Y-79142854D01*
X201394712Y-79463200D01*
X201257642Y-79735521D01*
X201129034Y-79897961D01*
X200984534Y-80129137D01*
X200751712Y-80503687D01*
X200310173Y-81007249D01*
X199755307Y-81477492D01*
X199119200Y-81888199D01*
X198433941Y-82213152D01*
X198280659Y-82273444D01*
X197847706Y-82446749D01*
X197427082Y-82618751D01*
X197091669Y-82759771D01*
X196804466Y-82870140D01*
X196377733Y-83003547D01*
X195993222Y-83094115D01*
X195719934Y-83148952D01*
X195453755Y-83215845D01*
X195293469Y-83272614D01*
X195274008Y-83281022D01*
X195101358Y-83327030D01*
X194805494Y-83386876D01*
X194422250Y-83453750D01*
X193987460Y-83520840D01*
X193492910Y-83599313D01*
X192946145Y-83698374D01*
X192434337Y-83802264D01*
X192024037Y-83898191D01*
X191823272Y-83948512D01*
X191456521Y-84031297D01*
X191150804Y-84089001D01*
X190957161Y-84111424D01*
X190931061Y-84112208D01*
X190701480Y-84134190D01*
X190378029Y-84179840D01*
X190022002Y-84240685D01*
X189660073Y-84307832D01*
X189168909Y-84396434D01*
X188775010Y-84462043D01*
X188435407Y-84510558D01*
X188107129Y-84547875D01*
X187747206Y-84579892D01*
X187312669Y-84612506D01*
X187287734Y-84614304D01*
X186761032Y-84655191D01*
X186144736Y-84707287D01*
X185513507Y-84764085D01*
X184942002Y-84819079D01*
X184877277Y-84825454D01*
X184372615Y-84869429D01*
X183755684Y-84915654D01*
X183075822Y-84960821D01*
X182382370Y-85001622D01*
X181724669Y-85034750D01*
X181558212Y-85042316D01*
X180925195Y-85071715D01*
X180296171Y-85101807D01*
X179712434Y-85130564D01*
X179215280Y-85155962D01*
X178846002Y-85175975D01*
X178553577Y-85189313D01*
X178058773Y-85204059D01*
X177482424Y-85214935D01*
X176874267Y-85221055D01*
X176284040Y-85221537D01*
X175871098Y-85221965D01*
X175338786Y-85230631D01*
X174903729Y-85247857D01*
X174589926Y-85272583D01*
X174421373Y-85303751D01*
X174224168Y-85347482D01*
X173920988Y-85377295D01*
X173580625Y-85385816D01*
X173552481Y-85385549D01*
X173250913Y-85394713D01*
X173024041Y-85422553D01*
X172919100Y-85463518D01*
X172904370Y-85564920D01*
X172889063Y-85813366D01*
X172874198Y-86185454D01*
X172860548Y-86658150D01*
X172848891Y-87208417D01*
X172840000Y-87813222D01*
X172826574Y-88613802D01*
X172793740Y-89691682D01*
X172745921Y-90658050D01*
X172684044Y-91498545D01*
X172609035Y-92198805D01*
X172521821Y-92744470D01*
X172479986Y-92971260D01*
X172415538Y-93374924D01*
X172363537Y-93760470D01*
X172311255Y-94187728D01*
X172192531Y-95032867D01*
X172062703Y-95776611D01*
X171913086Y-96465767D01*
X171734991Y-97147137D01*
X171718783Y-97209015D01*
X171651943Y-97547568D01*
X171594012Y-97961407D01*
X171556027Y-98374804D01*
X171546620Y-98508882D01*
X171511135Y-98877926D01*
X171468059Y-99190723D01*
X171424692Y-99390804D01*
X171413265Y-99429541D01*
X171362551Y-99666621D01*
X171308879Y-99997960D01*
X171262117Y-100364470D01*
X171203803Y-100878526D01*
X171112269Y-101629761D01*
X171017348Y-102351253D01*
X170923033Y-103015246D01*
X170833318Y-103593984D01*
X170752197Y-104059714D01*
X170683664Y-104384679D01*
X170668758Y-104457206D01*
X170629993Y-104723251D01*
X170587048Y-105101266D01*
X170544171Y-105551869D01*
X170505608Y-106035679D01*
X170497631Y-106142812D01*
X170447994Y-106708850D01*
X170386085Y-107296165D01*
X170319017Y-107841301D01*
X170253904Y-108280804D01*
X170212795Y-108535507D01*
X170141461Y-109028366D01*
X170081418Y-109504674D01*
X170042517Y-109889470D01*
X170012329Y-110177640D01*
X169950397Y-110629230D01*
X169870252Y-111128208D01*
X169781750Y-111609570D01*
X169702760Y-112032886D01*
X169636385Y-112437661D01*
X169591498Y-112768252D01*
X169575002Y-112978944D01*
X169572670Y-113068005D01*
X169544053Y-113389202D01*
X169493295Y-113714178D01*
X169451931Y-113921534D01*
X169353471Y-114422583D01*
X169275853Y-114835058D01*
X169208901Y-115216102D01*
X169142441Y-115622858D01*
X169066301Y-116112470D01*
X169003224Y-116546900D01*
X168950834Y-116951977D01*
X168914884Y-117280460D01*
X168900822Y-117487088D01*
X168899557Y-117535757D01*
X168870905Y-117848900D01*
X168817371Y-118164422D01*
X168805298Y-118220712D01*
X168735539Y-118607283D01*
X168660906Y-119104996D01*
X168587458Y-119665227D01*
X168521254Y-120239353D01*
X168468351Y-120778753D01*
X168434807Y-121234804D01*
X168418362Y-121532696D01*
X168350146Y-122724685D01*
X168287304Y-123748310D01*
X168229849Y-124603353D01*
X168177797Y-125289591D01*
X168131162Y-125806804D01*
X168047135Y-126661247D01*
X167924928Y-128000391D01*
X167811850Y-129353705D01*
X167712886Y-130660597D01*
X167633023Y-131860470D01*
X167616807Y-132270475D01*
X167611270Y-132882720D01*
X167619845Y-133574348D01*
X167641029Y-134296491D01*
X167673319Y-135000277D01*
X167715211Y-135636838D01*
X167765202Y-136157304D01*
X167818547Y-136601804D01*
X166283775Y-136601804D01*
X165819678Y-136600506D01*
X165391192Y-136596622D01*
X165052169Y-136590625D01*
X164829231Y-136582994D01*
X164749002Y-136574208D01*
X164758876Y-136495815D01*
X164791015Y-136265658D01*
X164842959Y-135902035D01*
X164912141Y-135422789D01*
X164995996Y-134845764D01*
X165091959Y-134188804D01*
X165103199Y-134105005D01*
X165138227Y-133784686D01*
X165177627Y-133358099D01*
X165217356Y-132870832D01*
X165253372Y-132368470D01*
X165306931Y-131571099D01*
X165363627Y-130757410D01*
X165412897Y-130090749D01*
X165455780Y-129559080D01*
X165493319Y-129150365D01*
X165526552Y-128852567D01*
X165556522Y-128653649D01*
X165584269Y-128541574D01*
X165610478Y-128430075D01*
X165647984Y-128168042D01*
X165684440Y-127815071D01*
X165714715Y-127415470D01*
X165730948Y-127184814D01*
X165789731Y-126546423D01*
X165871402Y-125830139D01*
X165970679Y-125071197D01*
X166082279Y-124304830D01*
X166200919Y-123566274D01*
X166321315Y-122890761D01*
X166438185Y-122313526D01*
X166546246Y-121869804D01*
X166639668Y-121495238D01*
X166729363Y-121058704D01*
X166788023Y-120684470D01*
X166789766Y-120669625D01*
X166878250Y-119929095D01*
X166950436Y-119353042D01*
X167006860Y-118937522D01*
X167048056Y-118678588D01*
X167074559Y-118572297D01*
X167082119Y-118554569D01*
X167120471Y-118398626D01*
X167173504Y-118124561D01*
X167235115Y-117770831D01*
X167299206Y-117375893D01*
X167359674Y-116978203D01*
X167410419Y-116616216D01*
X167445340Y-116328391D01*
X167458336Y-116153182D01*
X167458145Y-116131257D01*
X167437446Y-115932068D01*
X167392987Y-115828076D01*
X167337753Y-115844096D01*
X167173255Y-115946700D01*
X166932439Y-116123060D01*
X166645164Y-116352246D01*
X166063081Y-116833307D01*
X165512942Y-117284897D01*
X165064053Y-117646473D01*
X164700946Y-117927621D01*
X164408152Y-118137924D01*
X164170204Y-118286968D01*
X163971632Y-118384339D01*
X163796969Y-118439620D01*
X163630747Y-118462397D01*
X163457495Y-118462256D01*
X163261748Y-118448780D01*
X162780075Y-118374840D01*
X162298660Y-118233404D01*
X161886868Y-118044519D01*
X161594396Y-117826726D01*
X161419637Y-117604537D01*
X161230255Y-117265875D01*
X161036923Y-116811819D01*
X160832343Y-116225050D01*
X160609220Y-115488249D01*
X160553197Y-115290179D01*
X160458888Y-114938087D01*
X160370382Y-114576675D01*
X160283212Y-114183361D01*
X160192909Y-113735559D01*
X160095008Y-113210687D01*
X159985039Y-112586159D01*
X159858536Y-111839393D01*
X159711031Y-110947804D01*
X159648381Y-110543362D01*
X159571531Y-109969246D01*
X159499565Y-109329413D01*
X159429863Y-108597983D01*
X159359805Y-107749073D01*
X159286772Y-106756804D01*
X159283422Y-106709482D01*
X159238138Y-106120491D01*
X159187573Y-105540225D01*
X159135625Y-105008759D01*
X159086192Y-104566164D01*
X159043172Y-104252515D01*
X159017075Y-104085817D01*
X158982079Y-103834245D01*
X158947638Y-103546238D01*
X158912034Y-103202865D01*
X158873547Y-102785198D01*
X158830460Y-102274305D01*
X158781052Y-101651258D01*
X158723605Y-100897126D01*
X158656400Y-99992980D01*
X158646866Y-99865824D01*
X158610355Y-99439899D01*
X158572943Y-99142892D01*
X158527905Y-98942447D01*
X158468516Y-98806206D01*
X158388052Y-98701814D01*
X158382517Y-98695966D01*
X158223859Y-98558636D01*
X158102339Y-98501804D01*
X158054625Y-98489634D01*
X157883234Y-98380241D01*
X157650452Y-98182226D01*
X157386883Y-97926208D01*
X157123132Y-97642807D01*
X156889803Y-97362639D01*
X156717501Y-97116324D01*
X156442654Y-96584185D01*
X156161256Y-95762738D01*
X155993473Y-94834074D01*
X155936605Y-93786680D01*
X155936599Y-93783931D01*
X155939693Y-93379787D01*
X155957524Y-93092835D01*
X155999990Y-92871298D01*
X156076992Y-92663398D01*
X156198431Y-92417359D01*
X156462052Y-91910827D01*
X156233746Y-91290482D01*
X156163551Y-91099191D01*
X155917305Y-90415303D01*
X155726795Y-89859592D01*
X155585166Y-89409217D01*
X155485566Y-89041338D01*
X155421143Y-88733114D01*
X155385044Y-88461705D01*
X155368264Y-88236244D01*
X155379188Y-87944503D01*
X155460524Y-87765019D01*
X155633459Y-87663896D01*
X155919182Y-87607239D01*
X156049848Y-87598954D01*
X156303008Y-87642564D01*
X156548866Y-87776875D01*
X156796864Y-88013769D01*
X157056440Y-88365125D01*
X157337037Y-88842825D01*
X157648093Y-89458750D01*
X157999049Y-90224779D01*
X158533479Y-91432137D01*
X159022777Y-91592243D01*
X159192538Y-91645880D01*
X159409180Y-91698513D01*
X159539129Y-91693676D01*
X159628261Y-91634577D01*
X159682598Y-91525538D01*
X159770427Y-91277688D01*
X159881422Y-90920767D01*
X160006807Y-90483048D01*
X160137808Y-89992804D01*
X160219348Y-89681483D01*
X160456714Y-88835819D01*
X160678386Y-88148429D01*
X160888627Y-87611992D01*
X161091703Y-87219188D01*
X161291879Y-86962696D01*
X161493419Y-86835196D01*
X161700589Y-86829367D01*
X161917654Y-86937890D01*
X161946599Y-86961214D01*
X162017156Y-87056560D01*
X162063010Y-87213426D01*
X162091726Y-87467746D01*
X162110873Y-87855454D01*
X162115523Y-88146850D01*
X162096574Y-88613536D01*
X162041338Y-89116413D01*
X161945117Y-89686463D01*
X161803211Y-90354670D01*
X161610923Y-91152018D01*
X161518379Y-91536058D01*
X161437371Y-91904493D01*
X161382515Y-92191823D01*
X161362336Y-92356735D01*
X161363817Y-92385333D01*
X161402739Y-92593451D01*
X161483768Y-92893066D01*
X161592489Y-93229521D01*
X161666546Y-93449370D01*
X161736699Y-93699125D01*
X161782401Y-93948046D01*
X161808905Y-94238666D01*
X161821461Y-94613519D01*
X161825322Y-95115137D01*
X161824918Y-95302716D01*
X161803533Y-95963271D01*
X161741360Y-96505214D01*
X161626208Y-96967597D01*
X161445883Y-97389472D01*
X161188192Y-97809893D01*
X160840942Y-98267910D01*
X160653522Y-98499684D01*
X160809442Y-99495577D01*
X160843302Y-99732709D01*
X160881855Y-100075575D01*
X160914927Y-100473975D01*
X160943460Y-100946875D01*
X160968395Y-101513240D01*
X160990671Y-102192039D01*
X161011231Y-103002238D01*
X161031013Y-103962804D01*
X161035603Y-104195877D01*
X161053310Y-104965625D01*
X161073879Y-105697815D01*
X161096455Y-106370488D01*
X161120179Y-106961684D01*
X161144194Y-107449441D01*
X161167643Y-107811801D01*
X161189669Y-108026804D01*
X161223654Y-108268524D01*
X161273842Y-108688313D01*
X161323805Y-109165149D01*
X161366554Y-109635470D01*
X161402592Y-110060469D01*
X161474248Y-110827448D01*
X161544689Y-111466457D01*
X161617132Y-112005305D01*
X161694797Y-112471804D01*
X161707120Y-112535931D01*
X161783078Y-112881846D01*
X161889188Y-113314517D01*
X162017462Y-113806069D01*
X162159909Y-114328629D01*
X162308541Y-114854324D01*
X162455370Y-115355280D01*
X162592406Y-115803624D01*
X162711661Y-116171482D01*
X162805146Y-116430980D01*
X162864872Y-116554246D01*
X162868886Y-116558794D01*
X163004740Y-116652115D01*
X163172159Y-116607943D01*
X163172807Y-116607612D01*
X163382616Y-116475619D01*
X163694508Y-116246983D01*
X164086607Y-115940238D01*
X164537034Y-115573916D01*
X165023909Y-115166552D01*
X165525356Y-114736677D01*
X166019494Y-114302826D01*
X166484445Y-113883530D01*
X166898332Y-113497323D01*
X167239275Y-113162738D01*
X167327008Y-113073246D01*
X167565702Y-112822309D01*
X167714546Y-112638161D01*
X167796837Y-112479638D01*
X167835869Y-112305573D01*
X167854940Y-112074800D01*
X167891888Y-111554581D01*
X167943344Y-110980743D01*
X168001328Y-110453592D01*
X168062074Y-110003734D01*
X168121818Y-109661779D01*
X168176794Y-109458333D01*
X168180894Y-109448235D01*
X168263842Y-109169096D01*
X168351217Y-108745755D01*
X168438712Y-108201880D01*
X168522019Y-107561137D01*
X168541646Y-107414620D01*
X168611340Y-107011274D01*
X168693168Y-106639352D01*
X168703794Y-106596274D01*
X168771820Y-106266645D01*
X168840448Y-105859880D01*
X168896304Y-105454019D01*
X168907462Y-105360169D01*
X168991952Y-104666541D01*
X169063374Y-104117705D01*
X169124999Y-103692487D01*
X169180101Y-103369714D01*
X169231953Y-103128211D01*
X169283826Y-102946804D01*
X169380926Y-102575239D01*
X169473727Y-102063267D01*
X169556940Y-101443123D01*
X169625801Y-100745470D01*
X169631612Y-100678279D01*
X169668377Y-100338427D01*
X169710148Y-100056934D01*
X169748971Y-99889111D01*
X169758787Y-99855781D01*
X169796899Y-99659619D01*
X169845390Y-99343124D01*
X169899048Y-98942040D01*
X169952662Y-98492111D01*
X169959181Y-98434781D01*
X170025097Y-97915993D01*
X170102401Y-97390789D01*
X170181997Y-96917504D01*
X170254790Y-96554470D01*
X170263387Y-96516019D01*
X170333202Y-96135983D01*
X170403082Y-95652425D01*
X170465345Y-95123444D01*
X170512307Y-94607137D01*
X170522944Y-94469496D01*
X170563476Y-94004556D01*
X170606717Y-93583707D01*
X170648125Y-93248580D01*
X170683159Y-93040804D01*
X170740311Y-92740374D01*
X170808544Y-92222775D01*
X170868078Y-91591584D01*
X170917157Y-90878287D01*
X170954023Y-90114372D01*
X170976918Y-89331328D01*
X170984086Y-88560643D01*
X170973768Y-87833804D01*
X170967444Y-87613462D01*
X170946467Y-86949573D01*
X170925309Y-86430449D01*
X170901659Y-86037025D01*
X170873204Y-85750238D01*
X170837634Y-85551021D01*
X170792636Y-85420312D01*
X170735900Y-85339044D01*
X170665114Y-85288155D01*
X170642100Y-85279442D01*
X170465394Y-85245062D01*
X170155621Y-85204540D01*
X169740415Y-85160865D01*
X169247411Y-85117027D01*
X168704243Y-85076016D01*
X168655712Y-85072641D01*
X168056746Y-85027368D01*
X167460474Y-84976352D01*
X166908481Y-84923550D01*
X166442351Y-84872923D01*
X166103669Y-84828428D01*
X166007415Y-84813756D01*
X165523205Y-84742352D01*
X165015506Y-84670554D01*
X164579669Y-84611911D01*
X164534204Y-84605868D01*
X164113379Y-84537615D01*
X163690953Y-84451251D01*
X163352002Y-84363959D01*
X163260663Y-84337923D01*
X162897987Y-84253016D01*
X162466075Y-84171028D01*
X162039669Y-84106616D01*
X161882122Y-84084776D01*
X161476964Y-84014434D01*
X161113170Y-83933256D01*
X160854336Y-83854754D01*
X160833168Y-83846619D01*
X160547004Y-83753044D01*
X160176422Y-83651225D01*
X159796002Y-83561806D01*
X159759641Y-83554005D01*
X159376808Y-83461926D01*
X159011283Y-83358872D01*
X158737669Y-83265716D01*
X158646438Y-83231013D01*
X158316111Y-83125323D01*
X158018002Y-83054127D01*
X157949050Y-83039730D01*
X157636824Y-82938541D01*
X157340669Y-82799165D01*
X157277918Y-82764429D01*
X156948531Y-82611024D01*
X156621002Y-82492655D01*
X156547171Y-82469548D01*
X156217006Y-82338511D01*
X155924185Y-82186987D01*
X155841082Y-82137379D01*
X155642259Y-82033267D01*
X155522262Y-81991804D01*
X155473886Y-81975014D01*
X155318386Y-81874005D01*
X155118413Y-81712013D01*
X155117510Y-81711218D01*
X154879603Y-81524577D01*
X154561995Y-81304399D01*
X154233184Y-81098179D01*
X154190139Y-81072496D01*
X153908790Y-80887504D01*
X153686824Y-80713646D01*
X153569076Y-80585531D01*
X153558118Y-80567206D01*
X153403289Y-80408607D01*
X153184061Y-80269401D01*
X153137830Y-80245829D01*
X152965433Y-80123885D01*
X152895669Y-80013874D01*
X152871767Y-79927628D01*
X152758744Y-79782233D01*
X152683329Y-79683662D01*
X152652030Y-79508146D01*
X152668488Y-79216417D01*
X152670477Y-79196034D01*
X152670321Y-78775340D01*
X152602988Y-78391530D01*
X152429058Y-77628426D01*
X152336663Y-76657482D01*
X152363498Y-75642698D01*
X152508170Y-74623909D01*
X152769284Y-73640945D01*
X152856443Y-73388537D01*
X152995327Y-73012833D01*
X153121803Y-72699454D01*
X153216487Y-72497945D01*
X153286820Y-72362130D01*
X153424053Y-72063026D01*
X153553355Y-71747137D01*
X153805725Y-71138722D01*
X154075667Y-70619862D01*
X154346224Y-70241357D01*
X154406634Y-70168944D01*
X154537332Y-69983348D01*
X154589824Y-69860357D01*
X154615152Y-69787612D01*
X154722830Y-69608239D01*
X154886158Y-69385722D01*
X155006546Y-69227926D01*
X155132721Y-69042767D01*
X155181669Y-68941202D01*
X155184223Y-68931048D01*
X155261955Y-68820831D01*
X155426217Y-68634613D01*
X155647336Y-68406470D01*
X155694902Y-68358828D01*
X155907296Y-68133641D01*
X156056605Y-67954773D01*
X156113002Y-67857396D01*
X156158557Y-67766048D01*
X156300711Y-67596917D01*
X156499123Y-67397118D01*
X156712213Y-67205860D01*
X156898400Y-67062353D01*
X157016104Y-67005804D01*
X157112805Y-66959050D01*
X157221736Y-66810243D01*
X157325206Y-66683413D01*
X157539332Y-66510298D01*
X157810384Y-66340056D01*
X158063481Y-66193973D01*
X158264331Y-66064501D01*
X158359463Y-65985283D01*
X158401121Y-65946753D01*
X158552966Y-65905137D01*
X158657592Y-65873834D01*
X158797403Y-65744265D01*
X158879114Y-65657667D01*
X159084753Y-65507658D01*
X159346936Y-65357877D01*
X159545157Y-65257267D01*
X159780423Y-65134869D01*
X159923002Y-65056880D01*
X159975766Y-65027614D01*
X160235164Y-64905986D01*
X160591445Y-64757902D01*
X160995207Y-64602009D01*
X161397045Y-64456953D01*
X161747556Y-64341382D01*
X161997336Y-64273943D01*
X162268999Y-64209889D01*
X162644276Y-64106943D01*
X163013336Y-63993649D01*
X163347619Y-63892222D01*
X163702796Y-63799135D01*
X163978379Y-63742009D01*
X164046759Y-63730420D01*
X164356878Y-63658743D01*
X164618122Y-63572968D01*
X164657418Y-63557925D01*
X164899462Y-63486667D01*
X165233792Y-63407895D01*
X165600412Y-63336076D01*
X165659739Y-63325377D01*
X166062487Y-63239547D01*
X166450842Y-63137779D01*
X166748162Y-63039854D01*
X166757818Y-63036069D01*
X167067504Y-62932255D01*
X167458585Y-62823941D01*
X167848829Y-62733979D01*
X167906683Y-62722137D01*
X168252963Y-62645059D01*
X168550979Y-62569215D01*
X168741623Y-62509467D01*
X168763086Y-62501318D01*
X168974927Y-62435205D01*
X169283747Y-62352257D01*
X169630623Y-62268447D01*
X170029292Y-62166650D01*
X170480718Y-62033157D01*
X170866698Y-61901808D01*
X171183281Y-61792078D01*
X171529397Y-61689751D01*
X171798031Y-61628627D01*
X172041251Y-61582460D01*
X172391372Y-61505296D01*
X172750002Y-61417804D01*
X173075422Y-61338792D01*
X173439187Y-61259956D01*
X173723669Y-61208135D01*
X173765986Y-61201332D01*
X174023549Y-61151820D01*
X174391937Y-61073376D01*
X174828353Y-60975322D01*
X175290002Y-60866979D01*
X175333617Y-60856569D01*
X175846348Y-60741057D01*
X176374376Y-60632724D01*
X176857954Y-60543305D01*
X177237336Y-60484532D01*
X177301027Y-60476184D01*
X177758234Y-60409698D01*
X178233774Y-60331596D01*
X178634336Y-60257071D01*
X178661517Y-60251705D01*
X178838813Y-60223652D01*
X179065764Y-60199218D01*
X179355668Y-60177999D01*
X179721822Y-60159589D01*
X180177524Y-60143582D01*
X180736072Y-60129573D01*
X181410763Y-60117156D01*
X182214894Y-60105927D01*
X183161764Y-60095479D01*
X184264669Y-60085408D01*
X185022527Y-60079758D01*
X186474723Y-60074007D01*
X187772480Y-60076560D01*
G37*
G36*
X171843800Y-69529449D02*
G01*
X172151494Y-69541942D01*
X172199654Y-69541285D01*
X172478897Y-69547100D01*
X172870163Y-69564532D01*
X173328345Y-69591315D01*
X173808336Y-69625182D01*
X174123702Y-69647047D01*
X174724047Y-69677821D01*
X175352702Y-69698341D01*
X175984987Y-69708865D01*
X176596221Y-69709651D01*
X177161723Y-69700955D01*
X177656813Y-69683035D01*
X178056810Y-69656150D01*
X178337033Y-69620556D01*
X178472802Y-69576510D01*
X178502653Y-69554750D01*
X178657924Y-69503261D01*
X178920128Y-69483631D01*
X179319469Y-69492877D01*
X179567217Y-69501908D01*
X179867662Y-69496994D01*
X180058980Y-69463568D01*
X180177914Y-69397550D01*
X180196796Y-69381276D01*
X180328330Y-69313661D01*
X180456669Y-69378130D01*
X180569566Y-69441661D01*
X180686857Y-69389815D01*
X180728349Y-69377604D01*
X180922848Y-69358644D01*
X181258012Y-69341858D01*
X181715827Y-69327261D01*
X182278275Y-69314868D01*
X182927342Y-69304694D01*
X183645012Y-69296754D01*
X184413269Y-69291063D01*
X185214099Y-69287636D01*
X186029484Y-69286488D01*
X186841410Y-69287634D01*
X187631861Y-69291089D01*
X188382822Y-69296868D01*
X189076276Y-69304986D01*
X189694209Y-69315459D01*
X190218604Y-69328300D01*
X190631446Y-69343525D01*
X190914720Y-69361149D01*
X191050409Y-69381187D01*
X191252446Y-69427203D01*
X191479561Y-69366716D01*
X191591186Y-69318508D01*
X191722030Y-69332858D01*
X191884975Y-69461425D01*
X191916434Y-69489964D01*
X192044436Y-69579780D01*
X192096336Y-69568942D01*
X192126269Y-69528155D01*
X192264887Y-69492608D01*
X192453165Y-69491193D01*
X192620237Y-69522158D01*
X192695240Y-69583750D01*
X192720436Y-69954092D01*
X192746772Y-70409737D01*
X192755775Y-70735098D01*
X192745883Y-70953602D01*
X192715530Y-71088676D01*
X192663153Y-71163749D01*
X192587187Y-71202246D01*
X192395450Y-71263101D01*
X192589999Y-71335070D01*
X192629417Y-71351806D01*
X192731611Y-71446569D01*
X192696460Y-71522257D01*
X192539162Y-71522766D01*
X192504110Y-71518886D01*
X192319672Y-71563573D01*
X192102355Y-71678882D01*
X192062579Y-71706835D01*
X191885505Y-71866337D01*
X191755007Y-72067268D01*
X191664691Y-72335082D01*
X191608160Y-72695234D01*
X191579021Y-73173179D01*
X191575072Y-73474399D01*
X191570877Y-73794372D01*
X191569207Y-74169267D01*
X191564525Y-74371804D01*
X191559921Y-74570984D01*
X191541261Y-74831954D01*
X191511831Y-74968888D01*
X191470233Y-74998502D01*
X191443518Y-75003160D01*
X191371867Y-75115208D01*
X191297459Y-75334966D01*
X191231026Y-75619724D01*
X191183297Y-75926773D01*
X191165002Y-76213403D01*
X191164998Y-76216101D01*
X191139466Y-76417281D01*
X191079053Y-76531596D01*
X191064172Y-76543254D01*
X190968244Y-76681739D01*
X190862443Y-76900865D01*
X190776881Y-77131612D01*
X190741669Y-77304959D01*
X190709015Y-77434671D01*
X190594901Y-77646197D01*
X190436174Y-77861918D01*
X190272301Y-78029632D01*
X190142748Y-78097137D01*
X190141391Y-78097139D01*
X189982505Y-78136142D01*
X189942617Y-78221158D01*
X190043655Y-78305979D01*
X190112144Y-78335654D01*
X190137831Y-78389169D01*
X190026987Y-78484184D01*
X189893833Y-78569622D01*
X189766127Y-78591284D01*
X189725669Y-78478137D01*
X189714855Y-78419540D01*
X189630419Y-78351137D01*
X189574528Y-78411118D01*
X189585969Y-78605137D01*
X189598274Y-78674871D01*
X189592232Y-78819595D01*
X189504074Y-78859137D01*
X189503851Y-78859137D01*
X189346928Y-78908972D01*
X189156106Y-79028470D01*
X189153211Y-79030740D01*
X188970087Y-79148809D01*
X188830052Y-79197804D01*
X188744044Y-79226326D01*
X188608637Y-79347274D01*
X188418906Y-79516351D01*
X188069770Y-79656918D01*
X187626185Y-79709756D01*
X187407479Y-79721493D01*
X187041222Y-79762395D01*
X186677669Y-79821782D01*
X186427625Y-79863405D01*
X186010771Y-79909724D01*
X185573643Y-79937034D01*
X185153896Y-79944912D01*
X184789188Y-79932932D01*
X184517177Y-79900672D01*
X184375518Y-79847706D01*
X184231946Y-79787310D01*
X183924033Y-79743320D01*
X183463826Y-79720995D01*
X183268861Y-79714519D01*
X182939900Y-79691565D01*
X182695905Y-79658591D01*
X182579059Y-79620393D01*
X182456146Y-79563379D01*
X182249088Y-79536470D01*
X182070733Y-79504028D01*
X181836543Y-79324804D01*
X181834875Y-79322691D01*
X181683360Y-79174618D01*
X181552063Y-79113137D01*
X181511206Y-79109369D01*
X181310646Y-79048992D01*
X181067528Y-78940405D01*
X180849855Y-78816700D01*
X180725629Y-78710970D01*
X180674166Y-78659707D01*
X180509729Y-78605137D01*
X180411508Y-78590679D01*
X180230228Y-78462145D01*
X180158336Y-78243831D01*
X180128071Y-78136823D01*
X180000956Y-78135676D01*
X179946932Y-78144918D01*
X179790737Y-78098112D01*
X179686247Y-77981111D01*
X179690377Y-77846846D01*
X179692197Y-77794412D01*
X179583788Y-77758470D01*
X179413856Y-77701771D01*
X179235465Y-77552378D01*
X179140731Y-77377470D01*
X179074524Y-77210899D01*
X178867169Y-77056243D01*
X178788584Y-77006245D01*
X178719002Y-76864031D01*
X178672916Y-76701091D01*
X178561574Y-76501540D01*
X178344413Y-76133927D01*
X178174426Y-75655118D01*
X178082035Y-75075991D01*
X178029904Y-74669988D01*
X177950841Y-74282452D01*
X177857736Y-73981701D01*
X177761028Y-73808940D01*
X177733449Y-73763838D01*
X177703002Y-73606059D01*
X177684327Y-73515182D01*
X177603618Y-73396435D01*
X177890425Y-73396435D01*
X177900558Y-73496915D01*
X177926024Y-73510160D01*
X177957002Y-73440470D01*
X177950892Y-73395648D01*
X177900558Y-73384026D01*
X177890425Y-73396435D01*
X177603618Y-73396435D01*
X177576002Y-73355804D01*
X177491279Y-73223728D01*
X177449002Y-73009749D01*
X177421057Y-72844558D01*
X177280669Y-72679005D01*
X177164831Y-72577682D01*
X177059824Y-72379693D01*
X177054756Y-72360104D01*
X177010793Y-72255718D01*
X176922222Y-72197967D01*
X176747477Y-72172273D01*
X176444991Y-72164057D01*
X176178241Y-72160354D01*
X175723766Y-72152191D01*
X175308701Y-72142890D01*
X174734732Y-72128137D01*
X174650296Y-72441827D01*
X174639492Y-72479615D01*
X174545743Y-72717061D01*
X174441098Y-72880279D01*
X174371910Y-72969218D01*
X174316336Y-73121907D01*
X174290034Y-73228361D01*
X174192029Y-73403121D01*
X174156801Y-73465742D01*
X174091394Y-73704792D01*
X174071344Y-73938393D01*
X174065029Y-74011970D01*
X174054350Y-74195159D01*
X174014478Y-74381458D01*
X173960963Y-74461360D01*
X173910825Y-74415281D01*
X173881082Y-74223637D01*
X173873430Y-74170800D01*
X173849112Y-74209854D01*
X173813140Y-74381550D01*
X173769197Y-74663886D01*
X173720964Y-75034860D01*
X173672123Y-75472470D01*
X173636158Y-75723826D01*
X173572426Y-75970323D01*
X173500120Y-76090511D01*
X173450247Y-76132642D01*
X173385002Y-76287058D01*
X173341703Y-76428748D01*
X173202880Y-76588134D01*
X173035450Y-76657804D01*
X172976906Y-76671814D01*
X173019609Y-76749610D01*
X173026022Y-76756331D01*
X173080095Y-76920104D01*
X173017217Y-77096793D01*
X172862378Y-77212778D01*
X172763508Y-77266022D01*
X172638687Y-77420495D01*
X172578230Y-77532606D01*
X172567105Y-77546804D01*
X172394074Y-77767623D01*
X172140651Y-78033343D01*
X171979629Y-78180422D01*
X171860940Y-78288833D01*
X171597921Y-78493159D01*
X171394573Y-78605389D01*
X171348928Y-78621321D01*
X171171055Y-78704312D01*
X171099002Y-78775331D01*
X171056393Y-78833051D01*
X170908502Y-78902347D01*
X170654769Y-78982862D01*
X170308755Y-79123242D01*
X170062746Y-79263970D01*
X169949770Y-79388304D01*
X169872455Y-79486471D01*
X169652815Y-79536470D01*
X169449518Y-79556683D01*
X169256354Y-79615842D01*
X169235381Y-79625825D01*
X169024481Y-79683440D01*
X168683890Y-79739733D01*
X168246689Y-79792518D01*
X167745956Y-79839607D01*
X167214772Y-79878813D01*
X166686215Y-79907950D01*
X166193366Y-79924830D01*
X165769304Y-79927267D01*
X165447108Y-79913072D01*
X165259859Y-79880061D01*
X165237578Y-79871985D01*
X165027958Y-79819112D01*
X164718627Y-79762004D01*
X164368002Y-79711691D01*
X164060390Y-79672851D01*
X163664695Y-79616290D01*
X163399020Y-79564761D01*
X163239188Y-79511609D01*
X163161019Y-79450181D01*
X163140336Y-79373821D01*
X163129709Y-79338148D01*
X163014815Y-79217776D01*
X162819966Y-79088749D01*
X162603200Y-78985835D01*
X162422552Y-78943804D01*
X162400621Y-78937113D01*
X162278314Y-78848503D01*
X162111599Y-78689804D01*
X162054453Y-78631856D01*
X161897278Y-78491822D01*
X161801941Y-78435804D01*
X161791561Y-78432985D01*
X161716132Y-78337599D01*
X161667360Y-78229134D01*
X171522336Y-78229134D01*
X171538218Y-78246836D01*
X171654333Y-78266470D01*
X171714754Y-78254052D01*
X171733149Y-78180422D01*
X171696012Y-78148343D01*
X171584377Y-78150105D01*
X171522336Y-78229134D01*
X161667360Y-78229134D01*
X161631235Y-78148793D01*
X161630731Y-78147403D01*
X161506221Y-77929125D01*
X161349852Y-77815340D01*
X161297878Y-77798541D01*
X161207755Y-77708489D01*
X161208822Y-77546804D01*
X161362336Y-77546804D01*
X161404669Y-77589137D01*
X161447002Y-77546804D01*
X161404669Y-77504470D01*
X161362336Y-77546804D01*
X161208822Y-77546804D01*
X161209009Y-77518462D01*
X161212645Y-77341742D01*
X161146514Y-77306113D01*
X161117388Y-77305459D01*
X161013767Y-77212628D01*
X160904365Y-77022168D01*
X160879797Y-76967366D01*
X160763596Y-76719691D01*
X160669366Y-76534649D01*
X160620369Y-76401849D01*
X160683048Y-76333900D01*
X160744023Y-76299226D01*
X160685690Y-76234895D01*
X160629093Y-76130268D01*
X160574877Y-75903911D01*
X160537335Y-75607864D01*
X160505301Y-75322873D01*
X160462553Y-75100977D01*
X160419228Y-74999526D01*
X160372674Y-74905740D01*
X160354398Y-74701896D01*
X160372489Y-74459180D01*
X160426317Y-74244804D01*
X160452608Y-74126083D01*
X160425445Y-73942360D01*
X160408959Y-73890633D01*
X160376583Y-73683144D01*
X160348793Y-73374750D01*
X160330248Y-73011027D01*
X160330088Y-73006172D01*
X160315323Y-72635511D01*
X160294905Y-72400969D01*
X160260211Y-72269716D01*
X160202617Y-72208920D01*
X160113502Y-72185748D01*
X159991434Y-72140311D01*
X159923002Y-71987653D01*
X159914429Y-71935521D01*
X168503729Y-71935521D01*
X168527061Y-72192843D01*
X168549915Y-72325562D01*
X168605976Y-72518116D01*
X168664340Y-72593804D01*
X168675022Y-72594160D01*
X168849890Y-72641356D01*
X169086989Y-72747009D01*
X169331309Y-72881160D01*
X169527836Y-73013847D01*
X169621560Y-73115112D01*
X169656951Y-73186636D01*
X169788465Y-73302444D01*
X169842585Y-73342266D01*
X169862406Y-73475544D01*
X169848447Y-73540042D01*
X169883703Y-73711582D01*
X169930353Y-73824415D01*
X169970894Y-74033137D01*
X170001056Y-74311692D01*
X170064803Y-74595504D01*
X170160307Y-74749037D01*
X170297354Y-74795137D01*
X170432399Y-74803817D01*
X170615494Y-74842339D01*
X170622926Y-74845086D01*
X170802890Y-74835121D01*
X170943096Y-74672438D01*
X171039540Y-74369406D01*
X171088217Y-73938393D01*
X171085123Y-73391769D01*
X171076128Y-73238911D01*
X171043097Y-72936471D01*
X170990400Y-72757582D01*
X170910016Y-72669155D01*
X170838349Y-72603178D01*
X170815494Y-72463913D01*
X170816296Y-72461799D01*
X170807259Y-72371260D01*
X170663811Y-72360319D01*
X170533709Y-72351629D01*
X170452602Y-72255137D01*
X170448003Y-72204090D01*
X170431435Y-72022304D01*
X170407630Y-71970159D01*
X176532646Y-71970159D01*
X176602336Y-72001137D01*
X176647158Y-71995027D01*
X176655430Y-71959199D01*
X186537673Y-71959199D01*
X186576422Y-72297470D01*
X186665471Y-72483476D01*
X186845272Y-72580326D01*
X186984085Y-72619892D01*
X187163120Y-72728492D01*
X187244067Y-72792777D01*
X187387461Y-72847804D01*
X187420593Y-72854673D01*
X187562998Y-72966524D01*
X187735882Y-73184780D01*
X187897292Y-73440470D01*
X187915763Y-73469730D01*
X188079160Y-73781667D01*
X188202590Y-74080880D01*
X188262570Y-74327660D01*
X188351167Y-74604206D01*
X188550538Y-74777499D01*
X188836669Y-74813226D01*
X189031459Y-74773750D01*
X189156431Y-74718626D01*
X189172364Y-74684986D01*
X189208428Y-74510288D01*
X189231438Y-74327768D01*
X191352425Y-74327768D01*
X191362558Y-74428248D01*
X191388024Y-74441494D01*
X191419002Y-74371804D01*
X191412892Y-74326981D01*
X191362558Y-74315359D01*
X191352425Y-74327768D01*
X189231438Y-74327768D01*
X189243988Y-74228216D01*
X189273246Y-73880372D01*
X189274340Y-73863658D01*
X189293391Y-73474399D01*
X189287487Y-73210593D01*
X189253003Y-73031159D01*
X189186317Y-72895013D01*
X189091355Y-72725100D01*
X189048336Y-72593960D01*
X189011368Y-72498566D01*
X188862223Y-72318262D01*
X188634033Y-72110364D01*
X188365083Y-71908813D01*
X188093657Y-71747552D01*
X188006092Y-71704634D01*
X187785116Y-71615098D01*
X187626181Y-71601514D01*
X187465762Y-71654464D01*
X187368518Y-71695055D01*
X187233010Y-71710284D01*
X187135483Y-71623715D01*
X187096167Y-71576306D01*
X186988568Y-71531690D01*
X186812510Y-71589636D01*
X186637047Y-71716345D01*
X186543609Y-71944692D01*
X186537673Y-71959199D01*
X176655430Y-71959199D01*
X176658780Y-71944692D01*
X176646371Y-71934559D01*
X176545891Y-71944692D01*
X176532646Y-71970159D01*
X170407630Y-71970159D01*
X170407070Y-71968932D01*
X170280169Y-71916470D01*
X170180432Y-71896809D01*
X170005003Y-71797442D01*
X169892166Y-71736875D01*
X169649154Y-71660656D01*
X169350080Y-71600611D01*
X169225222Y-71582980D01*
X168958384Y-71560873D01*
X168784505Y-71584226D01*
X168650464Y-71657345D01*
X168629972Y-71673221D01*
X168533386Y-71782477D01*
X168503729Y-71935521D01*
X159914429Y-71935521D01*
X159908015Y-71896514D01*
X159773781Y-71699974D01*
X159540208Y-71554419D01*
X159256252Y-71495954D01*
X159225599Y-71495611D01*
X159052181Y-71479685D01*
X159002924Y-71404238D01*
X159037453Y-71217970D01*
X159038163Y-71215031D01*
X159081456Y-70929371D01*
X159092580Y-70628934D01*
X159091792Y-70582187D01*
X159113843Y-70373663D01*
X159168280Y-70260973D01*
X159198709Y-70210322D01*
X159117643Y-70105856D01*
X159038555Y-69992536D01*
X159031735Y-69792790D01*
X159117060Y-69595647D01*
X159233605Y-69503470D01*
X169151669Y-69503470D01*
X169194002Y-69545804D01*
X169236336Y-69503470D01*
X169194002Y-69461137D01*
X169151669Y-69503470D01*
X159233605Y-69503470D01*
X159277564Y-69468702D01*
X159319993Y-69456702D01*
X159547209Y-69432542D01*
X159818762Y-69441588D01*
X159879069Y-69446558D01*
X160136046Y-69436785D01*
X160300183Y-69379640D01*
X160432328Y-69322954D01*
X160612043Y-69382736D01*
X160768035Y-69441035D01*
X160836178Y-69388611D01*
X160867017Y-69345495D01*
X160991770Y-69297089D01*
X161128607Y-69306455D01*
X161193002Y-69376470D01*
X161196448Y-69399676D01*
X161282666Y-69461137D01*
X161313290Y-69454489D01*
X161320002Y-69376470D01*
X161323497Y-69369617D01*
X161445035Y-69349087D01*
X161734596Y-69331664D01*
X162191194Y-69317365D01*
X162813846Y-69306211D01*
X163601567Y-69298219D01*
X164553375Y-69293411D01*
X165668284Y-69291804D01*
X166072484Y-69291918D01*
X167030789Y-69293408D01*
X167835267Y-69296837D01*
X168497169Y-69302471D01*
X169027745Y-69310580D01*
X169438246Y-69321432D01*
X169739923Y-69335295D01*
X169944025Y-69352438D01*
X170061805Y-69373129D01*
X170104512Y-69397637D01*
X170159403Y-69459610D01*
X170273443Y-69393459D01*
X170313521Y-69369022D01*
X170528493Y-69322895D01*
X170831090Y-69324282D01*
X171165063Y-69370179D01*
X171474160Y-69457582D01*
X171564309Y-69484761D01*
X171681320Y-69503470D01*
X171843800Y-69529449D01*
G37*
G36*
X85714661Y-108676682D02*
G01*
X85938353Y-108825448D01*
X85994102Y-108867116D01*
X86154591Y-109007580D01*
X86261474Y-109163085D01*
X86342187Y-109384244D01*
X86424166Y-109721672D01*
X86466607Y-109916767D01*
X86574584Y-110465634D01*
X86664732Y-111020710D01*
X86737667Y-111598267D01*
X86794007Y-112214577D01*
X86834370Y-112885914D01*
X86859373Y-113628548D01*
X86869634Y-114458753D01*
X86865771Y-115392800D01*
X86848401Y-116446962D01*
X86818142Y-117637512D01*
X86775612Y-118980721D01*
X86761994Y-119384384D01*
X86732025Y-120294164D01*
X86702554Y-121216079D01*
X86674495Y-122119900D01*
X86648766Y-122975402D01*
X86626282Y-123752357D01*
X86607960Y-124420539D01*
X86594714Y-124949721D01*
X86583076Y-125436635D01*
X86543583Y-126905870D01*
X86497955Y-128370357D01*
X86447086Y-129809524D01*
X86391869Y-131202798D01*
X86333197Y-132529606D01*
X86271963Y-133769375D01*
X86209061Y-134901533D01*
X86145385Y-135905505D01*
X86081827Y-136760721D01*
X86058827Y-137058226D01*
X86019838Y-137642567D01*
X85988407Y-138218462D01*
X85967296Y-138732530D01*
X85959264Y-139131388D01*
X85958194Y-139295071D01*
X85947557Y-139822322D01*
X85928123Y-140371061D01*
X85903023Y-140845888D01*
X85848358Y-141671388D01*
X84718128Y-141671388D01*
X83587897Y-141671388D01*
X83588204Y-141015221D01*
X83589142Y-140865492D01*
X83597925Y-140404347D01*
X83614935Y-139815451D01*
X83638929Y-139125803D01*
X83668667Y-138362402D01*
X83702904Y-137552250D01*
X83740401Y-136722345D01*
X83779914Y-135899687D01*
X83820201Y-135111276D01*
X83860022Y-134384112D01*
X83898133Y-133745195D01*
X83933292Y-133221524D01*
X83964259Y-132840100D01*
X83980512Y-132659446D01*
X84009367Y-132287053D01*
X84035793Y-131866985D01*
X84060142Y-131387077D01*
X84082767Y-130835165D01*
X84104020Y-130199081D01*
X84124254Y-129466661D01*
X84143823Y-128625739D01*
X84163078Y-127664150D01*
X84182373Y-126569727D01*
X84202059Y-125330306D01*
X84222491Y-123933721D01*
X84230950Y-123376215D01*
X84250623Y-122277645D01*
X84274513Y-121143767D01*
X84302071Y-119990321D01*
X84332748Y-118833045D01*
X84365995Y-117687681D01*
X84401264Y-116569968D01*
X84438006Y-115495645D01*
X84475672Y-114480453D01*
X84513714Y-113540130D01*
X84551583Y-112690417D01*
X84588730Y-111947053D01*
X84624607Y-111325779D01*
X84658664Y-110842333D01*
X84690354Y-110512455D01*
X84708116Y-110369648D01*
X84783356Y-109836761D01*
X84861797Y-109439630D01*
X84954197Y-109151136D01*
X85071314Y-108944160D01*
X85223906Y-108791582D01*
X85422733Y-108666282D01*
X85432396Y-108661228D01*
X85563250Y-108627265D01*
X85714661Y-108676682D01*
G37*
G36*
X65717375Y-65146144D02*
G01*
X66870619Y-65157289D01*
X67889278Y-65177318D01*
X68783278Y-65206519D01*
X69562546Y-65245184D01*
X70237010Y-65293601D01*
X70816596Y-65352061D01*
X71311231Y-65420855D01*
X71467569Y-65444571D01*
X71930963Y-65503112D01*
X72443450Y-65555506D01*
X72919897Y-65592663D01*
X72999748Y-65597721D01*
X73936873Y-65679760D01*
X74750008Y-65794804D01*
X75417564Y-65939850D01*
X75556105Y-65973743D01*
X75894622Y-66044038D01*
X76305968Y-66119152D01*
X76729897Y-66187706D01*
X76929500Y-66218958D01*
X77419020Y-66303904D01*
X77901386Y-66397097D01*
X78296231Y-66483368D01*
X78438886Y-66516186D01*
X78881708Y-66607884D01*
X79376777Y-66699717D01*
X79841256Y-66775996D01*
X80082955Y-66815766D01*
X80462293Y-66891843D01*
X80774505Y-66970794D01*
X80969131Y-67040772D01*
X81011198Y-67060229D01*
X81251985Y-67141490D01*
X81585388Y-67227134D01*
X81952576Y-67301561D01*
X82045450Y-67318259D01*
X82420462Y-67394401D01*
X82754235Y-67474475D01*
X82983701Y-67543672D01*
X83008593Y-67552723D01*
X83260689Y-67629532D01*
X83602990Y-67718029D01*
X83968897Y-67800831D01*
X84022796Y-67812397D01*
X84385064Y-67904841D01*
X84709731Y-68009976D01*
X84932134Y-68107234D01*
X85149294Y-68203343D01*
X85472425Y-68307690D01*
X85821134Y-68392420D01*
X85979047Y-68427365D01*
X86382383Y-68533907D01*
X86836830Y-68670689D01*
X87270897Y-68816784D01*
X87487654Y-68894534D01*
X87918156Y-69048235D01*
X88319075Y-69190553D01*
X88625564Y-69298432D01*
X88863570Y-69389112D01*
X89156475Y-69520151D01*
X89360804Y-69634371D01*
X89414420Y-69669163D01*
X89669668Y-69803702D01*
X89953470Y-69921532D01*
X90082673Y-69969821D01*
X90415796Y-70108847D01*
X90737688Y-70258417D01*
X90909313Y-70339852D01*
X91128786Y-70431187D01*
X91255213Y-70466721D01*
X91302492Y-70479640D01*
X91465838Y-70570856D01*
X91673564Y-70720721D01*
X91779666Y-70801649D01*
X91965201Y-70925812D01*
X92074678Y-70974721D01*
X92182860Y-71004407D01*
X92410202Y-71099286D01*
X92709721Y-71239866D01*
X93041330Y-71405996D01*
X93364945Y-71577520D01*
X93640479Y-71734286D01*
X93827847Y-71856140D01*
X93900685Y-71908701D01*
X94094260Y-72027827D01*
X94219646Y-72075388D01*
X94293249Y-72097446D01*
X94429291Y-72207279D01*
X94441685Y-72221063D01*
X94606308Y-72344892D01*
X94832049Y-72461718D01*
X94930927Y-72509855D01*
X95197123Y-72677824D01*
X95452866Y-72880160D01*
X95577961Y-72986971D01*
X95766826Y-73124306D01*
X95885975Y-73179495D01*
X95926544Y-73190211D01*
X96085433Y-73281026D01*
X96284699Y-73433495D01*
X96370075Y-73502965D01*
X96558813Y-73632620D01*
X96682065Y-73684054D01*
X96781392Y-73728598D01*
X96913779Y-73866063D01*
X96932076Y-73890328D01*
X97106407Y-74061955D01*
X97330268Y-74225896D01*
X97509339Y-74337390D01*
X97934102Y-74614184D01*
X98270785Y-74852317D01*
X98499441Y-75037206D01*
X98600120Y-75154267D01*
X98679638Y-75262400D01*
X98847938Y-75391332D01*
X99174182Y-75581347D01*
X99490035Y-75788800D01*
X99760359Y-76004416D01*
X100045141Y-76272341D01*
X100052320Y-76279438D01*
X100287403Y-76503588D01*
X100490696Y-76683334D01*
X100618904Y-76780341D01*
X100624902Y-76783813D01*
X100754286Y-76879470D01*
X100971935Y-77066487D01*
X101284069Y-77350615D01*
X101696906Y-77737603D01*
X102216665Y-78233204D01*
X102849564Y-78843167D01*
X103074512Y-79056963D01*
X103434117Y-79383789D01*
X103761005Y-79663661D01*
X104026302Y-79872188D01*
X104201132Y-79984976D01*
X104236051Y-80002306D01*
X104566424Y-80225166D01*
X104932772Y-80555072D01*
X105300404Y-80951858D01*
X105634627Y-81375359D01*
X105900750Y-81785410D01*
X106064080Y-82141845D01*
X106078158Y-82179096D01*
X106192270Y-82381967D01*
X106356146Y-82600784D01*
X106410050Y-82668391D01*
X106591475Y-82951356D01*
X106737221Y-83251388D01*
X106786188Y-83371941D01*
X106885781Y-83592332D01*
X106957097Y-83718082D01*
X107005675Y-83802996D01*
X107099496Y-84011519D01*
X107206748Y-84281869D01*
X107294758Y-84495875D01*
X107411866Y-84729136D01*
X107504788Y-84858857D01*
X107559468Y-84927118D01*
X107665767Y-85130602D01*
X107768587Y-85395737D01*
X107826514Y-85561210D01*
X107932370Y-85826151D01*
X108019913Y-86003054D01*
X108050143Y-86057798D01*
X108145090Y-86282678D01*
X108233947Y-86553388D01*
X108261064Y-86641453D01*
X108378366Y-86937968D01*
X108506238Y-87174539D01*
X108540790Y-87230467D01*
X108665427Y-87484262D01*
X108816641Y-87846197D01*
X108978974Y-88275993D01*
X109136968Y-88733372D01*
X109275164Y-89178054D01*
X109275398Y-89178860D01*
X109367111Y-89452735D01*
X109501113Y-89804052D01*
X109648480Y-90156965D01*
X109648745Y-90157568D01*
X109793206Y-90512724D01*
X109919356Y-90869212D01*
X109999913Y-91149941D01*
X110020707Y-91237930D01*
X110112991Y-91572145D01*
X110210375Y-91864363D01*
X110264914Y-92026454D01*
X110354839Y-92352267D01*
X110431275Y-92691721D01*
X110483076Y-92925268D01*
X110552478Y-93166965D01*
X110611206Y-93299648D01*
X110626940Y-93327758D01*
X110682560Y-93502191D01*
X110746970Y-93782326D01*
X110809201Y-94122578D01*
X110811492Y-94136612D01*
X110899771Y-94590492D01*
X111017043Y-95085786D01*
X111138575Y-95517741D01*
X111142132Y-95529039D01*
X111261042Y-95944815D01*
X111370232Y-96389651D01*
X111446475Y-96769145D01*
X111502929Y-97076331D01*
X111599124Y-97529574D01*
X111698812Y-97941054D01*
X111782594Y-98317715D01*
X111860661Y-98781035D01*
X111911324Y-99211054D01*
X111938920Y-99456041D01*
X112009233Y-99901234D01*
X112104318Y-100392854D01*
X112211651Y-100862054D01*
X112289494Y-101185714D01*
X112395236Y-101667106D01*
X112483886Y-102117518D01*
X112541851Y-102470721D01*
X112543294Y-102481395D01*
X112624491Y-103019888D01*
X112736222Y-103675722D01*
X112869735Y-104402643D01*
X113016274Y-105154394D01*
X113167086Y-105884722D01*
X113313415Y-106547372D01*
X113559897Y-107618356D01*
X113550519Y-113363038D01*
X113548676Y-114321482D01*
X113545861Y-115324354D01*
X113542186Y-116175841D01*
X113537435Y-116885731D01*
X113531395Y-117463813D01*
X113523852Y-117919876D01*
X113514591Y-118263710D01*
X113503399Y-118505104D01*
X113490061Y-118653846D01*
X113474363Y-118719725D01*
X113456090Y-118712532D01*
X113435030Y-118642054D01*
X113334210Y-118168376D01*
X113191033Y-117374042D01*
X113077894Y-116589583D01*
X113006532Y-115890388D01*
X113003382Y-115849019D01*
X112957482Y-115373828D01*
X112894213Y-114858919D01*
X112826278Y-114408721D01*
X112786003Y-114173850D01*
X112706930Y-113708633D01*
X112620711Y-113197627D01*
X112539952Y-112715388D01*
X112489480Y-112430134D01*
X112386310Y-111909304D01*
X112273863Y-111399784D01*
X112168848Y-110979721D01*
X112126389Y-110820222D01*
X112040297Y-110464523D01*
X111979686Y-110167787D01*
X111955618Y-109981784D01*
X111941872Y-109844818D01*
X111897306Y-109564626D01*
X111829518Y-109200398D01*
X111746330Y-108796451D01*
X111693992Y-108547306D01*
X111587148Y-108006690D01*
X111485585Y-107456823D01*
X111405688Y-106984832D01*
X111366316Y-106750204D01*
X111291897Y-106366275D01*
X111217885Y-106046163D01*
X111155647Y-105841832D01*
X111072749Y-105583906D01*
X110971727Y-105132669D01*
X110871613Y-104541218D01*
X110775392Y-103825388D01*
X110720205Y-103425478D01*
X110643354Y-102947753D01*
X110563731Y-102513054D01*
X110473812Y-102055241D01*
X110318143Y-101231815D01*
X110173765Y-100430277D01*
X110049192Y-99698425D01*
X109952938Y-99084054D01*
X109930926Y-98942912D01*
X109851248Y-98513346D01*
X109759961Y-98107820D01*
X109672771Y-97798399D01*
X109631079Y-97662056D01*
X109539715Y-97302515D01*
X109447499Y-96874519D01*
X109369148Y-96443733D01*
X109332740Y-96230874D01*
X109246781Y-95786531D01*
X109155491Y-95374471D01*
X109073366Y-95062388D01*
X109010607Y-94839161D01*
X108919327Y-94458078D01*
X108857924Y-94131054D01*
X108804335Y-93882829D01*
X108691862Y-93518407D01*
X108553627Y-93166843D01*
X108550246Y-93159310D01*
X108429574Y-92877036D01*
X108344037Y-92651832D01*
X108311960Y-92531843D01*
X108311092Y-92511400D01*
X108275522Y-92323578D01*
X108196469Y-92020746D01*
X108085627Y-91639812D01*
X107954692Y-91217683D01*
X107815358Y-90791268D01*
X107679320Y-90397475D01*
X107558271Y-90073212D01*
X107463907Y-89855388D01*
X107363957Y-89643224D01*
X107239929Y-89334920D01*
X107166404Y-89093388D01*
X107147839Y-89019534D01*
X107043467Y-88734247D01*
X106903302Y-88450949D01*
X106849976Y-88351834D01*
X106744020Y-88095833D01*
X106701897Y-87896025D01*
X106687735Y-87803040D01*
X106601495Y-87567837D01*
X106462933Y-87310398D01*
X106395758Y-87198707D01*
X106221247Y-86864993D01*
X106087603Y-86552988D01*
X105944470Y-86168459D01*
X105774390Y-85744008D01*
X105614113Y-85374942D01*
X105478871Y-85096126D01*
X105383898Y-84942424D01*
X105310439Y-84834504D01*
X105184413Y-84606803D01*
X105048646Y-84328591D01*
X104934347Y-84100381D01*
X104819603Y-83915128D01*
X104744037Y-83844054D01*
X104732531Y-83841782D01*
X104642825Y-83749943D01*
X104544813Y-83565365D01*
X104540050Y-83554265D01*
X104397051Y-83330669D01*
X104219819Y-83175063D01*
X104065614Y-83057203D01*
X103919065Y-82861086D01*
X103838941Y-82726966D01*
X103751630Y-82658721D01*
X103717839Y-82642633D01*
X103602126Y-82524214D01*
X103457838Y-82328451D01*
X103439891Y-82303007D01*
X103297921Y-82132114D01*
X103064515Y-81875465D01*
X102757088Y-81550361D01*
X102393059Y-81174104D01*
X101989845Y-80763996D01*
X101564862Y-80337339D01*
X101135529Y-79911435D01*
X100719261Y-79503586D01*
X100333478Y-79131093D01*
X99995594Y-78811258D01*
X99723029Y-78561383D01*
X99533198Y-78398770D01*
X99443520Y-78340721D01*
X99372458Y-78307281D01*
X99238209Y-78196220D01*
X99023637Y-77991933D01*
X98711481Y-77678813D01*
X98637679Y-77606144D01*
X98428344Y-77419824D01*
X98262639Y-77297813D01*
X98212355Y-77267241D01*
X97978618Y-77109464D01*
X97680104Y-76893273D01*
X97367684Y-76656147D01*
X97092231Y-76435563D01*
X97046564Y-76397596D01*
X96701096Y-76115603D01*
X96460180Y-75931397D01*
X96304604Y-75831072D01*
X96215154Y-75800721D01*
X96144365Y-75768856D01*
X96037526Y-75638168D01*
X96032286Y-75629036D01*
X95886460Y-75491363D01*
X95668610Y-75382573D01*
X95588710Y-75349773D01*
X95337089Y-75196130D01*
X95101018Y-74994793D01*
X95003893Y-74898989D01*
X94837359Y-74756227D01*
X94737106Y-74700054D01*
X94659632Y-74675268D01*
X94459833Y-74570866D01*
X94184697Y-74404930D01*
X93870041Y-74199336D01*
X93551680Y-73975962D01*
X93438448Y-73895540D01*
X93167472Y-73716207D01*
X92943564Y-73583805D01*
X92797914Y-73506590D01*
X92520911Y-73358576D01*
X92223897Y-73198921D01*
X92190039Y-73180679D01*
X91943459Y-73049172D01*
X91679264Y-72911154D01*
X91363945Y-72749419D01*
X90963993Y-72546760D01*
X90445897Y-72285972D01*
X90324774Y-72226984D01*
X90056257Y-72107167D01*
X89853231Y-72030454D01*
X89838558Y-72025757D01*
X89618806Y-71923173D01*
X89387564Y-71774676D01*
X89342037Y-71742613D01*
X89068653Y-71595729D01*
X88772459Y-71486919D01*
X88713600Y-71470250D01*
X88404310Y-71359569D01*
X88137459Y-71233319D01*
X88135344Y-71232107D01*
X87856001Y-71103430D01*
X87568833Y-71014234D01*
X87356306Y-70947725D01*
X87053214Y-70822054D01*
X86736301Y-70667363D01*
X86733762Y-70666017D01*
X86434732Y-70522927D01*
X86166523Y-70420939D01*
X85986921Y-70382054D01*
X85977675Y-70381886D01*
X85784361Y-70352237D01*
X85494960Y-70281466D01*
X85168452Y-70183854D01*
X84819553Y-70076258D01*
X84351947Y-69944125D01*
X83926564Y-69835087D01*
X83919784Y-69833475D01*
X83555514Y-69737081D01*
X83208462Y-69629182D01*
X82952897Y-69532833D01*
X82755983Y-69459027D01*
X82415909Y-69361270D01*
X82063897Y-69284907D01*
X81800529Y-69233644D01*
X81426606Y-69147355D01*
X81123540Y-69062922D01*
X81110025Y-69058621D01*
X80821167Y-68980105D01*
X80447108Y-68894958D01*
X80065207Y-68820873D01*
X79523935Y-68725321D01*
X78653725Y-68564963D01*
X77909940Y-68418584D01*
X77306394Y-68288947D01*
X76856897Y-68178818D01*
X76262470Y-68037330D01*
X75372295Y-67886004D01*
X74364831Y-67778909D01*
X73216231Y-67712994D01*
X72931155Y-67700564D01*
X72386260Y-67668723D01*
X71867565Y-67628995D01*
X71422767Y-67585248D01*
X71099564Y-67541350D01*
X70832917Y-67503573D01*
X70411028Y-67457727D01*
X69898968Y-67411698D01*
X69338460Y-67369203D01*
X68771231Y-67333958D01*
X68311730Y-67307773D01*
X67582271Y-67263183D01*
X66801281Y-67212661D01*
X66036635Y-67160629D01*
X65356213Y-67111509D01*
X65102735Y-67093218D01*
X63821902Y-67021540D01*
X62536189Y-66982051D01*
X61288309Y-66975098D01*
X60120975Y-67001030D01*
X59076897Y-67060198D01*
X58688095Y-67090283D01*
X58082848Y-67136187D01*
X57410736Y-67186372D01*
X56729089Y-67236563D01*
X56095238Y-67282487D01*
X55985886Y-67290416D01*
X55471801Y-67330152D01*
X55019812Y-67369010D01*
X54656637Y-67404424D01*
X54408991Y-67433826D01*
X54303595Y-67454649D01*
X54284800Y-67463928D01*
X54114043Y-67513233D01*
X53824931Y-67574152D01*
X53457668Y-67639848D01*
X53052462Y-67703484D01*
X52649519Y-67758221D01*
X52289046Y-67797224D01*
X52222405Y-67803885D01*
X51821280Y-67863126D01*
X51363075Y-67953959D01*
X50934379Y-68059611D01*
X50886470Y-68072830D01*
X50416141Y-68191805D01*
X49901322Y-68307383D01*
X49445145Y-68396251D01*
X49320739Y-68418374D01*
X48962019Y-68489027D01*
X48660603Y-68557848D01*
X48471479Y-68612619D01*
X48414242Y-68632043D01*
X48176129Y-68697966D01*
X47846152Y-68777686D01*
X47477564Y-68858054D01*
X47327250Y-68889741D01*
X46972148Y-68969949D01*
X46679533Y-69043193D01*
X46501271Y-69096790D01*
X46478864Y-69104702D01*
X46269735Y-69159922D01*
X45961482Y-69224447D01*
X45612271Y-69285905D01*
X45583745Y-69290538D01*
X45199901Y-69367110D01*
X44832174Y-69462476D01*
X44556564Y-69557111D01*
X44507150Y-69577584D01*
X44213692Y-69684717D01*
X43840455Y-69805831D01*
X43455897Y-69918448D01*
X43360144Y-69945043D01*
X42982482Y-70055018D01*
X42640222Y-70161726D01*
X42397564Y-70245337D01*
X42320057Y-70273877D01*
X42089223Y-70347165D01*
X41937400Y-70378338D01*
X41925949Y-70379569D01*
X41777020Y-70429024D01*
X41533011Y-70535824D01*
X41240599Y-70679774D01*
X40896258Y-70837079D01*
X40544950Y-70963957D01*
X40263493Y-71032568D01*
X40161149Y-71049766D01*
X39852293Y-71131115D01*
X39605628Y-71234154D01*
X39364232Y-71354928D01*
X39137897Y-71442022D01*
X39044498Y-71480153D01*
X38816884Y-71612457D01*
X38573315Y-71789382D01*
X38432877Y-71896010D01*
X38229335Y-72025035D01*
X38098124Y-72075388D01*
X38053717Y-72084050D01*
X37880979Y-72166612D01*
X37668929Y-72308221D01*
X37521511Y-72420166D01*
X37233203Y-72639425D01*
X36945461Y-72858554D01*
X36747265Y-73004591D01*
X36563573Y-73128445D01*
X36470375Y-73176054D01*
X36442566Y-73185167D01*
X36317557Y-73277853D01*
X36098977Y-73477850D01*
X35776693Y-73794183D01*
X35519084Y-74055590D01*
X35308243Y-74282623D01*
X35193346Y-74428834D01*
X35158564Y-74512619D01*
X35104423Y-74604881D01*
X34958101Y-74727261D01*
X34869242Y-74802626D01*
X34690936Y-75010461D01*
X34519137Y-75266165D01*
X34420412Y-75428988D01*
X34273435Y-75651696D01*
X34169267Y-75785602D01*
X34112196Y-75856180D01*
X34057897Y-75990602D01*
X34037933Y-76065912D01*
X33942485Y-76217387D01*
X33893055Y-76290004D01*
X33783879Y-76505752D01*
X33674930Y-76774388D01*
X33612909Y-76931930D01*
X33500655Y-77162208D01*
X33406866Y-77293532D01*
X33348716Y-77372968D01*
X33233550Y-77605744D01*
X33085737Y-77960025D01*
X32914169Y-78412137D01*
X32727736Y-78938407D01*
X32535330Y-79515159D01*
X32345841Y-80118721D01*
X32304341Y-80264256D01*
X32182811Y-80889999D01*
X32149155Y-81498751D01*
X32203380Y-82047929D01*
X32345493Y-82494952D01*
X32411407Y-82634661D01*
X32499415Y-82840667D01*
X32533897Y-82951855D01*
X32576519Y-83059865D01*
X32688569Y-83251371D01*
X32838799Y-83479491D01*
X32995930Y-83698743D01*
X33128679Y-83863646D01*
X33205768Y-83928721D01*
X33229657Y-83938411D01*
X33359578Y-84033699D01*
X33565457Y-84209013D01*
X33815075Y-84437451D01*
X33900443Y-84517969D01*
X34163280Y-84765490D01*
X34384579Y-84973357D01*
X34523564Y-85103253D01*
X34671287Y-85214400D01*
X34884326Y-85320190D01*
X35055155Y-85432908D01*
X35202391Y-85624943D01*
X35221342Y-85659348D01*
X35397857Y-85845481D01*
X35688296Y-85961687D01*
X35770698Y-85984024D01*
X36105715Y-86089992D01*
X36428564Y-86209762D01*
X36514012Y-86242814D01*
X36861946Y-86352768D01*
X37190564Y-86427363D01*
X37271839Y-86442229D01*
X37575060Y-86521208D01*
X37820845Y-86616412D01*
X38054872Y-86717766D01*
X38424857Y-86842751D01*
X38827739Y-86952949D01*
X39200499Y-87031461D01*
X39480119Y-87061388D01*
X39567385Y-87066583D01*
X39841524Y-87106247D01*
X40197610Y-87176457D01*
X40581056Y-87267018D01*
X40746406Y-87308500D01*
X41155232Y-87403949D01*
X41529536Y-87482545D01*
X41804897Y-87530425D01*
X41934593Y-87549448D01*
X42215394Y-87599269D01*
X42556439Y-87671458D01*
X42992072Y-87773517D01*
X43556641Y-87912945D01*
X43571755Y-87916453D01*
X43771797Y-87948071D01*
X44105016Y-87987423D01*
X44539903Y-88031302D01*
X45044948Y-88076499D01*
X45588641Y-88119807D01*
X45591147Y-88119994D01*
X46167879Y-88165106D01*
X46736976Y-88213189D01*
X47258115Y-88260578D01*
X47690972Y-88303607D01*
X47995223Y-88338609D01*
X48131537Y-88355208D01*
X48686041Y-88386028D01*
X49155884Y-88341328D01*
X49429809Y-88302028D01*
X49737504Y-88308736D01*
X50077559Y-88388287D01*
X50173135Y-88414322D01*
X50327099Y-88444856D01*
X50517559Y-88467617D01*
X50763483Y-88483028D01*
X51083837Y-88491516D01*
X51497588Y-88493505D01*
X52023704Y-88489420D01*
X52681152Y-88479686D01*
X53488897Y-88464729D01*
X54016539Y-88453413D01*
X54715691Y-88435435D01*
X55366514Y-88415401D01*
X55944809Y-88394219D01*
X56426381Y-88372797D01*
X56787032Y-88352042D01*
X57002564Y-88332863D01*
X57027584Y-88329718D01*
X57279046Y-88306811D01*
X57668041Y-88280271D01*
X58167130Y-88251586D01*
X58748873Y-88222243D01*
X59385831Y-88193732D01*
X60050564Y-88167541D01*
X60447567Y-88152566D01*
X61328706Y-88115112D01*
X62076353Y-88075716D01*
X62716080Y-88032218D01*
X63273458Y-87982455D01*
X63774061Y-87924268D01*
X64243462Y-87855494D01*
X64707231Y-87773973D01*
X64732832Y-87769216D01*
X65076978Y-87713209D01*
X65528616Y-87649676D01*
X66032039Y-87586073D01*
X66531539Y-87529852D01*
X66588256Y-87523844D01*
X67083812Y-87465263D01*
X67570648Y-87398246D01*
X67995447Y-87330603D01*
X68304893Y-87270142D01*
X68684522Y-87192751D01*
X69143188Y-87115357D01*
X69570918Y-87057041D01*
X69679810Y-87043284D01*
X70118917Y-86971090D01*
X70607031Y-86871751D01*
X71057231Y-86762494D01*
X71190924Y-86727441D01*
X71650970Y-86617919D01*
X72113683Y-86521378D01*
X72496564Y-86455419D01*
X72862001Y-86390535D01*
X73334479Y-86282330D01*
X73756205Y-86162980D01*
X73808942Y-86146062D01*
X74121906Y-86052053D01*
X74376208Y-85985793D01*
X74521039Y-85960721D01*
X74547494Y-85957562D01*
X74726580Y-85897589D01*
X75012120Y-85773964D01*
X75372546Y-85603042D01*
X75776289Y-85401179D01*
X76191782Y-85184732D01*
X76587456Y-84970056D01*
X76931743Y-84773508D01*
X77193074Y-84611444D01*
X77339882Y-84500221D01*
X77379038Y-84461823D01*
X77549538Y-84323371D01*
X77670557Y-84267387D01*
X77709757Y-84258579D01*
X77870735Y-84176040D01*
X78076572Y-84034804D01*
X78125193Y-83998537D01*
X78334865Y-83875367D01*
X78564843Y-83816893D01*
X78888897Y-83801970D01*
X79396897Y-83801721D01*
X79382457Y-84212438D01*
X79339607Y-84532784D01*
X79202537Y-84805105D01*
X79073929Y-84967545D01*
X78929429Y-85198721D01*
X78696607Y-85573271D01*
X78255068Y-86076833D01*
X77700202Y-86547076D01*
X77064095Y-86957783D01*
X76378836Y-87282736D01*
X76225554Y-87343028D01*
X75792601Y-87516333D01*
X75371977Y-87688335D01*
X75036564Y-87829355D01*
X74749361Y-87939724D01*
X74322628Y-88073131D01*
X73938117Y-88163699D01*
X73664829Y-88218536D01*
X73398650Y-88285429D01*
X73238364Y-88342198D01*
X73218903Y-88350606D01*
X73046253Y-88396614D01*
X72750389Y-88456460D01*
X72367145Y-88523334D01*
X71932355Y-88590424D01*
X71437805Y-88668897D01*
X70891040Y-88767958D01*
X70379232Y-88871848D01*
X69968932Y-88967775D01*
X69768167Y-89018096D01*
X69401416Y-89100881D01*
X69095699Y-89158585D01*
X68902056Y-89181008D01*
X68875956Y-89181792D01*
X68646375Y-89203774D01*
X68322924Y-89249424D01*
X67966897Y-89310269D01*
X67604968Y-89377416D01*
X67113804Y-89466018D01*
X66719905Y-89531627D01*
X66380302Y-89580142D01*
X66052024Y-89617459D01*
X65692101Y-89649476D01*
X65257564Y-89682090D01*
X65232629Y-89683888D01*
X64705927Y-89724775D01*
X64089631Y-89776871D01*
X63458402Y-89833669D01*
X62886897Y-89888663D01*
X62822172Y-89895038D01*
X62317510Y-89939013D01*
X61700579Y-89985238D01*
X61020717Y-90030405D01*
X60327265Y-90071206D01*
X59669564Y-90104334D01*
X59503107Y-90111900D01*
X58870090Y-90141299D01*
X58241066Y-90171391D01*
X57657329Y-90200148D01*
X57160175Y-90225546D01*
X56790897Y-90245559D01*
X56498472Y-90258897D01*
X56003668Y-90273643D01*
X55427319Y-90284519D01*
X54819162Y-90290639D01*
X54228935Y-90291121D01*
X53815993Y-90291549D01*
X53283681Y-90300215D01*
X52848624Y-90317441D01*
X52534821Y-90342167D01*
X52366268Y-90373335D01*
X52169063Y-90417066D01*
X51865883Y-90446879D01*
X51525520Y-90455400D01*
X51497376Y-90455133D01*
X51195808Y-90464297D01*
X50968936Y-90492137D01*
X50863995Y-90533102D01*
X50849265Y-90634504D01*
X50833958Y-90882950D01*
X50819093Y-91255038D01*
X50805443Y-91727734D01*
X50793786Y-92278001D01*
X50784895Y-92882806D01*
X50771469Y-93683386D01*
X50738635Y-94761266D01*
X50690816Y-95727634D01*
X50628939Y-96568129D01*
X50553930Y-97268389D01*
X50466716Y-97814054D01*
X50424881Y-98040844D01*
X50360433Y-98444508D01*
X50308432Y-98830054D01*
X50256150Y-99257312D01*
X50137426Y-100102451D01*
X50007598Y-100846195D01*
X49857981Y-101535351D01*
X49679886Y-102216721D01*
X49663678Y-102278599D01*
X49596838Y-102617152D01*
X49538907Y-103030991D01*
X49500922Y-103444388D01*
X49491515Y-103578466D01*
X49456030Y-103947510D01*
X49412954Y-104260307D01*
X49369587Y-104460388D01*
X49358160Y-104499125D01*
X49307446Y-104736205D01*
X49253774Y-105067544D01*
X49207012Y-105434054D01*
X49148698Y-105948110D01*
X49057164Y-106699345D01*
X48962243Y-107420837D01*
X48867928Y-108084830D01*
X48778213Y-108663568D01*
X48697092Y-109129298D01*
X48628559Y-109454263D01*
X48613653Y-109526790D01*
X48574888Y-109792835D01*
X48531943Y-110170850D01*
X48489066Y-110621453D01*
X48450503Y-111105263D01*
X48442526Y-111212396D01*
X48392889Y-111778434D01*
X48330980Y-112365749D01*
X48263912Y-112910885D01*
X48198799Y-113350388D01*
X48157690Y-113605091D01*
X48086356Y-114097950D01*
X48026313Y-114574258D01*
X47987412Y-114959054D01*
X47957224Y-115247224D01*
X47895292Y-115698814D01*
X47815147Y-116197792D01*
X47726645Y-116679154D01*
X47647655Y-117102470D01*
X47581280Y-117507245D01*
X47536393Y-117837836D01*
X47519897Y-118048528D01*
X47517565Y-118137589D01*
X47488948Y-118458786D01*
X47438190Y-118783762D01*
X47396826Y-118991118D01*
X47298366Y-119492167D01*
X47220748Y-119904642D01*
X47153796Y-120285686D01*
X47087336Y-120692442D01*
X47011196Y-121182054D01*
X46948119Y-121616484D01*
X46895729Y-122021561D01*
X46859779Y-122350044D01*
X46845717Y-122556672D01*
X46844452Y-122605341D01*
X46815800Y-122918484D01*
X46762266Y-123234006D01*
X46750193Y-123290296D01*
X46680434Y-123676867D01*
X46605801Y-124174580D01*
X46532353Y-124734811D01*
X46466149Y-125308937D01*
X46413246Y-125848337D01*
X46379702Y-126304388D01*
X46363257Y-126602280D01*
X46295041Y-127794269D01*
X46232199Y-128817894D01*
X46174744Y-129672937D01*
X46122692Y-130359175D01*
X46076057Y-130876388D01*
X45992030Y-131730831D01*
X45869823Y-133069975D01*
X45756745Y-134423289D01*
X45657781Y-135730181D01*
X45577918Y-136930054D01*
X45561702Y-137340059D01*
X45556165Y-137952304D01*
X45564740Y-138643932D01*
X45585924Y-139366075D01*
X45618214Y-140069861D01*
X45660106Y-140706422D01*
X45710097Y-141226888D01*
X45763442Y-141671388D01*
X44228670Y-141671388D01*
X43764573Y-141670090D01*
X43336087Y-141666206D01*
X42997064Y-141660209D01*
X42774126Y-141652578D01*
X42693897Y-141643792D01*
X42703771Y-141565399D01*
X42735910Y-141335242D01*
X42787854Y-140971619D01*
X42857036Y-140492373D01*
X42940891Y-139915348D01*
X43036854Y-139258388D01*
X43048094Y-139174589D01*
X43083122Y-138854270D01*
X43122522Y-138427683D01*
X43162251Y-137940416D01*
X43198267Y-137438054D01*
X43251826Y-136640683D01*
X43308522Y-135826994D01*
X43357792Y-135160333D01*
X43400675Y-134628664D01*
X43438214Y-134219949D01*
X43471447Y-133922151D01*
X43501417Y-133723233D01*
X43529164Y-133611158D01*
X43555373Y-133499659D01*
X43592879Y-133237626D01*
X43629335Y-132884655D01*
X43659610Y-132485054D01*
X43675843Y-132254398D01*
X43734626Y-131616007D01*
X43816297Y-130899723D01*
X43915574Y-130140781D01*
X44027174Y-129374414D01*
X44145814Y-128635858D01*
X44266210Y-127960345D01*
X44383080Y-127383110D01*
X44491141Y-126939388D01*
X44584563Y-126564822D01*
X44674258Y-126128288D01*
X44732918Y-125754054D01*
X44734661Y-125739209D01*
X44823145Y-124998679D01*
X44895331Y-124422626D01*
X44951755Y-124007106D01*
X44992951Y-123748172D01*
X45019454Y-123641881D01*
X45027014Y-123624153D01*
X45065366Y-123468210D01*
X45118399Y-123194145D01*
X45180010Y-122840415D01*
X45244101Y-122445477D01*
X45304569Y-122047787D01*
X45355314Y-121685800D01*
X45390235Y-121397975D01*
X45403231Y-121222766D01*
X45403040Y-121200841D01*
X45382341Y-121001652D01*
X45337882Y-120897660D01*
X45282648Y-120913680D01*
X45118150Y-121016284D01*
X44877334Y-121192644D01*
X44590059Y-121421830D01*
X44007976Y-121902891D01*
X43457837Y-122354481D01*
X43008948Y-122716057D01*
X42645841Y-122997205D01*
X42353047Y-123207508D01*
X42115099Y-123356552D01*
X41916527Y-123453923D01*
X41741864Y-123509204D01*
X41575642Y-123531981D01*
X41402390Y-123531840D01*
X41206643Y-123518364D01*
X40724970Y-123444424D01*
X40243555Y-123302988D01*
X39831763Y-123114103D01*
X39539291Y-122896310D01*
X39364532Y-122674121D01*
X39175150Y-122335459D01*
X38981818Y-121881403D01*
X38777238Y-121294634D01*
X38554115Y-120557833D01*
X38498092Y-120359763D01*
X38403783Y-120007671D01*
X38315277Y-119646259D01*
X38228107Y-119252945D01*
X38137804Y-118805143D01*
X38039903Y-118280271D01*
X37929934Y-117655743D01*
X37803431Y-116908977D01*
X37655926Y-116017388D01*
X37593276Y-115612946D01*
X37516426Y-115038830D01*
X37444460Y-114398997D01*
X37374758Y-113667567D01*
X37304700Y-112818657D01*
X37231667Y-111826388D01*
X37228317Y-111779066D01*
X37183033Y-111190075D01*
X37132468Y-110609809D01*
X37080520Y-110078343D01*
X37031087Y-109635748D01*
X36988067Y-109322099D01*
X36961970Y-109155401D01*
X36926974Y-108903829D01*
X36892533Y-108615822D01*
X36856929Y-108272449D01*
X36818442Y-107854782D01*
X36775355Y-107343889D01*
X36725947Y-106720842D01*
X36668500Y-105966710D01*
X36601295Y-105062564D01*
X36591761Y-104935408D01*
X36555250Y-104509483D01*
X36517838Y-104212476D01*
X36472800Y-104012031D01*
X36413411Y-103875790D01*
X36332947Y-103771398D01*
X36327412Y-103765550D01*
X36168754Y-103628220D01*
X36047234Y-103571388D01*
X35999520Y-103559218D01*
X35828129Y-103449825D01*
X35595347Y-103251810D01*
X35331778Y-102995792D01*
X35068027Y-102712391D01*
X34834698Y-102432223D01*
X34662396Y-102185908D01*
X34387549Y-101653769D01*
X34106151Y-100832322D01*
X33938368Y-99903658D01*
X33881500Y-98856264D01*
X33881494Y-98853515D01*
X33884588Y-98449371D01*
X33902419Y-98162419D01*
X33944885Y-97940882D01*
X34021887Y-97732982D01*
X34143326Y-97486943D01*
X34406947Y-96980411D01*
X34178641Y-96360066D01*
X34108446Y-96168775D01*
X33862200Y-95484887D01*
X33671690Y-94929176D01*
X33530061Y-94478801D01*
X33430461Y-94110922D01*
X33366038Y-93802698D01*
X33329939Y-93531289D01*
X33313159Y-93305828D01*
X33324083Y-93014087D01*
X33405419Y-92834603D01*
X33578354Y-92733480D01*
X33864077Y-92676823D01*
X33994743Y-92668538D01*
X34247903Y-92712148D01*
X34493761Y-92846459D01*
X34741759Y-93083353D01*
X35001335Y-93434709D01*
X35281932Y-93912409D01*
X35592988Y-94528334D01*
X35943944Y-95294363D01*
X36478374Y-96501721D01*
X36967672Y-96661827D01*
X37137433Y-96715464D01*
X37354075Y-96768097D01*
X37484024Y-96763260D01*
X37573156Y-96704161D01*
X37627493Y-96595122D01*
X37715322Y-96347272D01*
X37826317Y-95990351D01*
X37951702Y-95552632D01*
X38082703Y-95062388D01*
X38164243Y-94751067D01*
X38401609Y-93905403D01*
X38623281Y-93218013D01*
X38833522Y-92681576D01*
X39036598Y-92288772D01*
X39236774Y-92032280D01*
X39438314Y-91904780D01*
X39645484Y-91898951D01*
X39862549Y-92007474D01*
X39891494Y-92030798D01*
X39962051Y-92126144D01*
X40007905Y-92283010D01*
X40036621Y-92537330D01*
X40055768Y-92925038D01*
X40060418Y-93216434D01*
X40041469Y-93683120D01*
X39986233Y-94185997D01*
X39890012Y-94756047D01*
X39748106Y-95424254D01*
X39555818Y-96221602D01*
X39463274Y-96605642D01*
X39382266Y-96974077D01*
X39327410Y-97261407D01*
X39307231Y-97426319D01*
X39308712Y-97454917D01*
X39347634Y-97663035D01*
X39428663Y-97962650D01*
X39537384Y-98299105D01*
X39611441Y-98518954D01*
X39681594Y-98768709D01*
X39727296Y-99017630D01*
X39753800Y-99308250D01*
X39766356Y-99683103D01*
X39770217Y-100184721D01*
X39769813Y-100372300D01*
X39748428Y-101032855D01*
X39686255Y-101574798D01*
X39571103Y-102037181D01*
X39390778Y-102459056D01*
X39133087Y-102879477D01*
X38785837Y-103337494D01*
X38598417Y-103569268D01*
X38754337Y-104565161D01*
X38788197Y-104802293D01*
X38826750Y-105145159D01*
X38859822Y-105543559D01*
X38888355Y-106016459D01*
X38913290Y-106582824D01*
X38935566Y-107261623D01*
X38956126Y-108071822D01*
X38975908Y-109032388D01*
X38980498Y-109265461D01*
X38998205Y-110035209D01*
X39018774Y-110767399D01*
X39041350Y-111440072D01*
X39065074Y-112031268D01*
X39089089Y-112519025D01*
X39112538Y-112881385D01*
X39134564Y-113096388D01*
X39168549Y-113338108D01*
X39218737Y-113757897D01*
X39268700Y-114234733D01*
X39311449Y-114705054D01*
X39347487Y-115130053D01*
X39419143Y-115897032D01*
X39489584Y-116536041D01*
X39562027Y-117074889D01*
X39639692Y-117541388D01*
X39652015Y-117605515D01*
X39727973Y-117951430D01*
X39834083Y-118384101D01*
X39962357Y-118875653D01*
X40104804Y-119398213D01*
X40253436Y-119923908D01*
X40400265Y-120424864D01*
X40537301Y-120873208D01*
X40656556Y-121241066D01*
X40750041Y-121500564D01*
X40809767Y-121623830D01*
X40813781Y-121628378D01*
X40949635Y-121721699D01*
X41117054Y-121677527D01*
X41117702Y-121677196D01*
X41327511Y-121545203D01*
X41639403Y-121316567D01*
X42031502Y-121009822D01*
X42481929Y-120643500D01*
X42968804Y-120236136D01*
X43470251Y-119806261D01*
X43964389Y-119372410D01*
X44429340Y-118953114D01*
X44843227Y-118566907D01*
X45184170Y-118232322D01*
X45271903Y-118142830D01*
X45510597Y-117891893D01*
X45659441Y-117707745D01*
X45741732Y-117549222D01*
X45780764Y-117375157D01*
X45799835Y-117144384D01*
X45836783Y-116624165D01*
X45888239Y-116050327D01*
X45946223Y-115523176D01*
X46006969Y-115073318D01*
X46066713Y-114731363D01*
X46121689Y-114527917D01*
X46125789Y-114517819D01*
X46208737Y-114238680D01*
X46296112Y-113815339D01*
X46383607Y-113271464D01*
X46466914Y-112630721D01*
X46486541Y-112484204D01*
X46556235Y-112080858D01*
X46638063Y-111708936D01*
X46648689Y-111665858D01*
X46716715Y-111336229D01*
X46785343Y-110929464D01*
X46841199Y-110523603D01*
X46852357Y-110429753D01*
X46936847Y-109736125D01*
X47008269Y-109187289D01*
X47069894Y-108762071D01*
X47124996Y-108439298D01*
X47176848Y-108197795D01*
X47228721Y-108016388D01*
X47325821Y-107644823D01*
X47418622Y-107132851D01*
X47501835Y-106512707D01*
X47570696Y-105815054D01*
X47576507Y-105747863D01*
X47613272Y-105408011D01*
X47655043Y-105126518D01*
X47693866Y-104958695D01*
X47703682Y-104925365D01*
X47741794Y-104729203D01*
X47790285Y-104412708D01*
X47843943Y-104011624D01*
X47897557Y-103561695D01*
X47904076Y-103504365D01*
X47969992Y-102985577D01*
X48047296Y-102460373D01*
X48126892Y-101987088D01*
X48199685Y-101624054D01*
X48208282Y-101585603D01*
X48278097Y-101205567D01*
X48347977Y-100722009D01*
X48410240Y-100193028D01*
X48457202Y-99676721D01*
X48467839Y-99539080D01*
X48508371Y-99074140D01*
X48551612Y-98653291D01*
X48593020Y-98318164D01*
X48628054Y-98110388D01*
X48685206Y-97809958D01*
X48753439Y-97292359D01*
X48812973Y-96661168D01*
X48862052Y-95947871D01*
X48898918Y-95183956D01*
X48921813Y-94400912D01*
X48928981Y-93630227D01*
X48918663Y-92903388D01*
X48912339Y-92683046D01*
X48891362Y-92019157D01*
X48870204Y-91500033D01*
X48846554Y-91106609D01*
X48818099Y-90819822D01*
X48782529Y-90620605D01*
X48737531Y-90489896D01*
X48680795Y-90408628D01*
X48610009Y-90357739D01*
X48586995Y-90349026D01*
X48410289Y-90314646D01*
X48100516Y-90274124D01*
X47685310Y-90230449D01*
X47192306Y-90186611D01*
X46649138Y-90145600D01*
X46600607Y-90142225D01*
X46001641Y-90096952D01*
X45405369Y-90045936D01*
X44853376Y-89993134D01*
X44387246Y-89942507D01*
X44048564Y-89898012D01*
X43952310Y-89883340D01*
X43468100Y-89811936D01*
X42960401Y-89740138D01*
X42524564Y-89681495D01*
X42479099Y-89675452D01*
X42058274Y-89607199D01*
X41635848Y-89520835D01*
X41296897Y-89433543D01*
X41205558Y-89407507D01*
X40842882Y-89322600D01*
X40410970Y-89240612D01*
X39984564Y-89176200D01*
X39827017Y-89154360D01*
X39421859Y-89084018D01*
X39058065Y-89002840D01*
X38799231Y-88924338D01*
X38778063Y-88916203D01*
X38491899Y-88822628D01*
X38121317Y-88720809D01*
X37740897Y-88631390D01*
X37704536Y-88623589D01*
X37321703Y-88531510D01*
X36956178Y-88428456D01*
X36682564Y-88335300D01*
X36591333Y-88300597D01*
X36261006Y-88194907D01*
X35962897Y-88123711D01*
X35893945Y-88109314D01*
X35581719Y-88008125D01*
X35285564Y-87868749D01*
X35222813Y-87834013D01*
X34893426Y-87680608D01*
X34565897Y-87562239D01*
X34492066Y-87539132D01*
X34161901Y-87408095D01*
X33869080Y-87256571D01*
X33785977Y-87206963D01*
X33587154Y-87102851D01*
X33467157Y-87061388D01*
X33418781Y-87044598D01*
X33263281Y-86943589D01*
X33063308Y-86781597D01*
X33062405Y-86780802D01*
X32824498Y-86594161D01*
X32506890Y-86373983D01*
X32178079Y-86167763D01*
X32135034Y-86142080D01*
X31853685Y-85957088D01*
X31631719Y-85783230D01*
X31513971Y-85655115D01*
X31503013Y-85636790D01*
X31348184Y-85478191D01*
X31128956Y-85338985D01*
X31082725Y-85315413D01*
X30910328Y-85193469D01*
X30840564Y-85083458D01*
X30816662Y-84997212D01*
X30703639Y-84851817D01*
X30628224Y-84753246D01*
X30596925Y-84577730D01*
X30613383Y-84286001D01*
X30615372Y-84265618D01*
X30615216Y-83844924D01*
X30547883Y-83461114D01*
X30373953Y-82698010D01*
X30281558Y-81727066D01*
X30308393Y-80712282D01*
X30453065Y-79693493D01*
X30714179Y-78710529D01*
X30801338Y-78458121D01*
X30940222Y-78082417D01*
X31066698Y-77769038D01*
X31161382Y-77567529D01*
X31231715Y-77431714D01*
X31368948Y-77132610D01*
X31498250Y-76816721D01*
X31750620Y-76208306D01*
X32020562Y-75689446D01*
X32291119Y-75310941D01*
X32351529Y-75238528D01*
X32482227Y-75052932D01*
X32534719Y-74929941D01*
X32560047Y-74857196D01*
X32667725Y-74677823D01*
X32831053Y-74455306D01*
X32951441Y-74297510D01*
X33077616Y-74112351D01*
X33126564Y-74010786D01*
X33129118Y-74000632D01*
X33206850Y-73890415D01*
X33371112Y-73704197D01*
X33592231Y-73476054D01*
X33639797Y-73428412D01*
X33852191Y-73203225D01*
X34001500Y-73024357D01*
X34057897Y-72926980D01*
X34103452Y-72835632D01*
X34245606Y-72666501D01*
X34444018Y-72466702D01*
X34657108Y-72275444D01*
X34843295Y-72131937D01*
X34960999Y-72075388D01*
X35057700Y-72028634D01*
X35166631Y-71879827D01*
X35270101Y-71752997D01*
X35484227Y-71579882D01*
X35755279Y-71409640D01*
X36008376Y-71263557D01*
X36209226Y-71134085D01*
X36304358Y-71054867D01*
X36346016Y-71016337D01*
X36497861Y-70974721D01*
X36602487Y-70943418D01*
X36742298Y-70813849D01*
X36824009Y-70727251D01*
X37029648Y-70577242D01*
X37291831Y-70427461D01*
X37490052Y-70326851D01*
X37725318Y-70204453D01*
X37867897Y-70126464D01*
X37920661Y-70097198D01*
X38180059Y-69975570D01*
X38536340Y-69827486D01*
X38940102Y-69671593D01*
X39341940Y-69526537D01*
X39692451Y-69410966D01*
X39942231Y-69343527D01*
X40213894Y-69279473D01*
X40589171Y-69176527D01*
X40958231Y-69063233D01*
X41292514Y-68961806D01*
X41647691Y-68868719D01*
X41923274Y-68811593D01*
X41991654Y-68800004D01*
X42301773Y-68728327D01*
X42563017Y-68642552D01*
X42602313Y-68627509D01*
X42844357Y-68556251D01*
X43178687Y-68477479D01*
X43545307Y-68405660D01*
X43604634Y-68394961D01*
X44007382Y-68309131D01*
X44395737Y-68207363D01*
X44693057Y-68109438D01*
X44702713Y-68105653D01*
X45012399Y-68001839D01*
X45403480Y-67893525D01*
X45793724Y-67803563D01*
X45851578Y-67791721D01*
X46197858Y-67714643D01*
X46495874Y-67638799D01*
X46686518Y-67579051D01*
X46707981Y-67570902D01*
X46919822Y-67504789D01*
X47228642Y-67421841D01*
X47575518Y-67338031D01*
X47974187Y-67236234D01*
X48425613Y-67102741D01*
X48811593Y-66971392D01*
X49128176Y-66861662D01*
X49474292Y-66759335D01*
X49742926Y-66698211D01*
X49986146Y-66652044D01*
X50336267Y-66574880D01*
X50694897Y-66487388D01*
X51020317Y-66408376D01*
X51384082Y-66329540D01*
X51668564Y-66277719D01*
X51710881Y-66270916D01*
X51968444Y-66221404D01*
X52336832Y-66142960D01*
X52773248Y-66044906D01*
X53234897Y-65936563D01*
X53278512Y-65926153D01*
X53791243Y-65810641D01*
X54319271Y-65702308D01*
X54802849Y-65612889D01*
X55182231Y-65554116D01*
X55245922Y-65545768D01*
X55703129Y-65479282D01*
X56178669Y-65401180D01*
X56579231Y-65326655D01*
X56606412Y-65321289D01*
X56783708Y-65293236D01*
X57010659Y-65268802D01*
X57300563Y-65247583D01*
X57666717Y-65229173D01*
X58122419Y-65213166D01*
X58680967Y-65199157D01*
X59355658Y-65186740D01*
X60159789Y-65175511D01*
X61106659Y-65165063D01*
X62209564Y-65154992D01*
X62967422Y-65149342D01*
X64419618Y-65143591D01*
X65717375Y-65146144D01*
G37*
G36*
X49788695Y-74599033D02*
G01*
X50096389Y-74611526D01*
X50144549Y-74610869D01*
X50423792Y-74616684D01*
X50815058Y-74634116D01*
X51273240Y-74660899D01*
X51753231Y-74694766D01*
X52068597Y-74716631D01*
X52668942Y-74747405D01*
X53297597Y-74767925D01*
X53929882Y-74778449D01*
X54541116Y-74779235D01*
X55106618Y-74770539D01*
X55601708Y-74752619D01*
X56001705Y-74725734D01*
X56281928Y-74690140D01*
X56417697Y-74646094D01*
X56447548Y-74624334D01*
X56602819Y-74572845D01*
X56865023Y-74553215D01*
X57264364Y-74562461D01*
X57512112Y-74571492D01*
X57812557Y-74566578D01*
X58003875Y-74533152D01*
X58122809Y-74467134D01*
X58141691Y-74450860D01*
X58273225Y-74383245D01*
X58401564Y-74447714D01*
X58514461Y-74511245D01*
X58631752Y-74459399D01*
X58673244Y-74447188D01*
X58867743Y-74428228D01*
X59202907Y-74411442D01*
X59660722Y-74396845D01*
X60223170Y-74384452D01*
X60872237Y-74374278D01*
X61589907Y-74366338D01*
X62358164Y-74360647D01*
X63158994Y-74357220D01*
X63974379Y-74356072D01*
X64786305Y-74357218D01*
X65576756Y-74360673D01*
X66327717Y-74366452D01*
X67021171Y-74374570D01*
X67639104Y-74385043D01*
X68163499Y-74397884D01*
X68576341Y-74413109D01*
X68859615Y-74430733D01*
X68995304Y-74450771D01*
X69197341Y-74496787D01*
X69424456Y-74436300D01*
X69536081Y-74388092D01*
X69666925Y-74402442D01*
X69829870Y-74531009D01*
X69861329Y-74559548D01*
X69989331Y-74649364D01*
X70041231Y-74638526D01*
X70071164Y-74597739D01*
X70209782Y-74562192D01*
X70398060Y-74560777D01*
X70565132Y-74591742D01*
X70640135Y-74653334D01*
X70665331Y-75023676D01*
X70691667Y-75479321D01*
X70700670Y-75804682D01*
X70690778Y-76023186D01*
X70660425Y-76158260D01*
X70608048Y-76233333D01*
X70532082Y-76271830D01*
X70340345Y-76332685D01*
X70534894Y-76404654D01*
X70574312Y-76421390D01*
X70676506Y-76516153D01*
X70641355Y-76591841D01*
X70484057Y-76592350D01*
X70449005Y-76588470D01*
X70264567Y-76633157D01*
X70047250Y-76748466D01*
X70007474Y-76776419D01*
X69830400Y-76935921D01*
X69699902Y-77136852D01*
X69609586Y-77404666D01*
X69553055Y-77764818D01*
X69523916Y-78242763D01*
X69519967Y-78543983D01*
X69515772Y-78863956D01*
X69514102Y-79238851D01*
X69509420Y-79441388D01*
X69504816Y-79640568D01*
X69486156Y-79901538D01*
X69456726Y-80038472D01*
X69415128Y-80068086D01*
X69388413Y-80072744D01*
X69316762Y-80184792D01*
X69242354Y-80404550D01*
X69175921Y-80689308D01*
X69128192Y-80996357D01*
X69109897Y-81282987D01*
X69109893Y-81285685D01*
X69084361Y-81486865D01*
X69023948Y-81601180D01*
X69009067Y-81612838D01*
X68913139Y-81751323D01*
X68807338Y-81970449D01*
X68721776Y-82201196D01*
X68686564Y-82374543D01*
X68653910Y-82504255D01*
X68539796Y-82715781D01*
X68381069Y-82931502D01*
X68217196Y-83099216D01*
X68087643Y-83166721D01*
X68086286Y-83166723D01*
X67927400Y-83205726D01*
X67887512Y-83290742D01*
X67988550Y-83375563D01*
X68057039Y-83405238D01*
X68082726Y-83458753D01*
X67971882Y-83553768D01*
X67838728Y-83639206D01*
X67711022Y-83660868D01*
X67670564Y-83547721D01*
X67659750Y-83489124D01*
X67575314Y-83420721D01*
X67519423Y-83480702D01*
X67530864Y-83674721D01*
X67543169Y-83744455D01*
X67537127Y-83889179D01*
X67448969Y-83928721D01*
X67448746Y-83928721D01*
X67291823Y-83978556D01*
X67101001Y-84098054D01*
X67098106Y-84100324D01*
X66914982Y-84218393D01*
X66774947Y-84267388D01*
X66688939Y-84295910D01*
X66553532Y-84416858D01*
X66363801Y-84585935D01*
X66014665Y-84726502D01*
X65571080Y-84779340D01*
X65352374Y-84791077D01*
X64986117Y-84831979D01*
X64622564Y-84891366D01*
X64372520Y-84932989D01*
X63955666Y-84979308D01*
X63518538Y-85006618D01*
X63098791Y-85014496D01*
X62734083Y-85002516D01*
X62462072Y-84970256D01*
X62320413Y-84917290D01*
X62176841Y-84856894D01*
X61868928Y-84812904D01*
X61408721Y-84790579D01*
X61213756Y-84784103D01*
X60884795Y-84761149D01*
X60640800Y-84728175D01*
X60523954Y-84689977D01*
X60401041Y-84632963D01*
X60193983Y-84606054D01*
X60015628Y-84573612D01*
X59781438Y-84394388D01*
X59779770Y-84392275D01*
X59628255Y-84244202D01*
X59496958Y-84182721D01*
X59456101Y-84178953D01*
X59255541Y-84118576D01*
X59012423Y-84009989D01*
X58794750Y-83886284D01*
X58670524Y-83780554D01*
X58619061Y-83729291D01*
X58454624Y-83674721D01*
X58356403Y-83660263D01*
X58175123Y-83531729D01*
X58103231Y-83313415D01*
X58072966Y-83206407D01*
X57945851Y-83205260D01*
X57891827Y-83214502D01*
X57735632Y-83167696D01*
X57631142Y-83050695D01*
X57635272Y-82916430D01*
X57637092Y-82863996D01*
X57528683Y-82828054D01*
X57358751Y-82771355D01*
X57180360Y-82621962D01*
X57085626Y-82447054D01*
X57019419Y-82280483D01*
X56812064Y-82125827D01*
X56733479Y-82075829D01*
X56663897Y-81933615D01*
X56617811Y-81770675D01*
X56506469Y-81571124D01*
X56289308Y-81203511D01*
X56119321Y-80724702D01*
X56026930Y-80145575D01*
X55974799Y-79739572D01*
X55895736Y-79352036D01*
X55802631Y-79051285D01*
X55705923Y-78878524D01*
X55678344Y-78833422D01*
X55647897Y-78675643D01*
X55629222Y-78584766D01*
X55548513Y-78466019D01*
X55835320Y-78466019D01*
X55845453Y-78566499D01*
X55870919Y-78579744D01*
X55901897Y-78510054D01*
X55895787Y-78465232D01*
X55845453Y-78453610D01*
X55835320Y-78466019D01*
X55548513Y-78466019D01*
X55520897Y-78425388D01*
X55436174Y-78293312D01*
X55393897Y-78079333D01*
X55365952Y-77914142D01*
X55225564Y-77748589D01*
X55109726Y-77647266D01*
X55004719Y-77449277D01*
X54999651Y-77429688D01*
X54955688Y-77325302D01*
X54867117Y-77267551D01*
X54692372Y-77241857D01*
X54389886Y-77233641D01*
X54123136Y-77229938D01*
X53668661Y-77221775D01*
X53253596Y-77212474D01*
X52679627Y-77197721D01*
X52595191Y-77511411D01*
X52584387Y-77549199D01*
X52490638Y-77786645D01*
X52385993Y-77949863D01*
X52316805Y-78038802D01*
X52261231Y-78191491D01*
X52234929Y-78297945D01*
X52136924Y-78472705D01*
X52101696Y-78535326D01*
X52036289Y-78774376D01*
X52016239Y-79007977D01*
X52009924Y-79081554D01*
X51999245Y-79264743D01*
X51959373Y-79451042D01*
X51905858Y-79530944D01*
X51855720Y-79484865D01*
X51825977Y-79293221D01*
X51818325Y-79240384D01*
X51794007Y-79279438D01*
X51758035Y-79451134D01*
X51714092Y-79733470D01*
X51665859Y-80104444D01*
X51617018Y-80542054D01*
X51581053Y-80793410D01*
X51517321Y-81039907D01*
X51445015Y-81160095D01*
X51395142Y-81202226D01*
X51329897Y-81356642D01*
X51286598Y-81498332D01*
X51147775Y-81657718D01*
X50980345Y-81727388D01*
X50921801Y-81741398D01*
X50964504Y-81819194D01*
X50970917Y-81825915D01*
X51024990Y-81989688D01*
X50962112Y-82166377D01*
X50807273Y-82282362D01*
X50708403Y-82335606D01*
X50583582Y-82490079D01*
X50523125Y-82602190D01*
X50512000Y-82616388D01*
X50338969Y-82837207D01*
X50085546Y-83102927D01*
X49924524Y-83250006D01*
X49805835Y-83358417D01*
X49542816Y-83562743D01*
X49339468Y-83674973D01*
X49293823Y-83690905D01*
X49115950Y-83773896D01*
X49043897Y-83844915D01*
X49001288Y-83902635D01*
X48853397Y-83971931D01*
X48599664Y-84052446D01*
X48253650Y-84192826D01*
X48007641Y-84333554D01*
X47894665Y-84457888D01*
X47817350Y-84556055D01*
X47597710Y-84606054D01*
X47394413Y-84626267D01*
X47201249Y-84685426D01*
X47180276Y-84695409D01*
X46969376Y-84753024D01*
X46628785Y-84809317D01*
X46191584Y-84862102D01*
X45690851Y-84909191D01*
X45159667Y-84948397D01*
X44631110Y-84977534D01*
X44138261Y-84994414D01*
X43714199Y-84996851D01*
X43392003Y-84982656D01*
X43204754Y-84949645D01*
X43182473Y-84941569D01*
X42972853Y-84888696D01*
X42663522Y-84831588D01*
X42312897Y-84781275D01*
X42005285Y-84742435D01*
X41609590Y-84685874D01*
X41343915Y-84634345D01*
X41184083Y-84581193D01*
X41105914Y-84519765D01*
X41085231Y-84443405D01*
X41074604Y-84407732D01*
X40959710Y-84287360D01*
X40764861Y-84158333D01*
X40548095Y-84055419D01*
X40367447Y-84013388D01*
X40345516Y-84006697D01*
X40223209Y-83918087D01*
X40056494Y-83759388D01*
X39999348Y-83701440D01*
X39842173Y-83561406D01*
X39746836Y-83505388D01*
X39736456Y-83502569D01*
X39661027Y-83407183D01*
X39612255Y-83298718D01*
X49467231Y-83298718D01*
X49483113Y-83316420D01*
X49599228Y-83336054D01*
X49659649Y-83323636D01*
X49678044Y-83250006D01*
X49640907Y-83217927D01*
X49529272Y-83219689D01*
X49467231Y-83298718D01*
X39612255Y-83298718D01*
X39576130Y-83218377D01*
X39575626Y-83216987D01*
X39451116Y-82998709D01*
X39294747Y-82884924D01*
X39242773Y-82868125D01*
X39152650Y-82778073D01*
X39153717Y-82616388D01*
X39307231Y-82616388D01*
X39349564Y-82658721D01*
X39391897Y-82616388D01*
X39349564Y-82574054D01*
X39307231Y-82616388D01*
X39153717Y-82616388D01*
X39153904Y-82588046D01*
X39157540Y-82411326D01*
X39091409Y-82375697D01*
X39062283Y-82375043D01*
X38958662Y-82282212D01*
X38849260Y-82091752D01*
X38824692Y-82036950D01*
X38708491Y-81789275D01*
X38614261Y-81604233D01*
X38565264Y-81471433D01*
X38627943Y-81403484D01*
X38688918Y-81368810D01*
X38630585Y-81304479D01*
X38573988Y-81199852D01*
X38519772Y-80973495D01*
X38482230Y-80677448D01*
X38450196Y-80392457D01*
X38407448Y-80170561D01*
X38364123Y-80069110D01*
X38317569Y-79975324D01*
X38299293Y-79771480D01*
X38317384Y-79528764D01*
X38371212Y-79314388D01*
X38397503Y-79195667D01*
X38370340Y-79011944D01*
X38353854Y-78960217D01*
X38321478Y-78752728D01*
X38293688Y-78444334D01*
X38275143Y-78080611D01*
X38274983Y-78075756D01*
X38260218Y-77705095D01*
X38239800Y-77470553D01*
X38205106Y-77339300D01*
X38147512Y-77278504D01*
X38058397Y-77255332D01*
X37936329Y-77209895D01*
X37867897Y-77057237D01*
X37859324Y-77005105D01*
X46448624Y-77005105D01*
X46471956Y-77262427D01*
X46494810Y-77395146D01*
X46550871Y-77587700D01*
X46609235Y-77663388D01*
X46619917Y-77663744D01*
X46794785Y-77710940D01*
X47031884Y-77816593D01*
X47276204Y-77950744D01*
X47472731Y-78083431D01*
X47566455Y-78184696D01*
X47601846Y-78256220D01*
X47733360Y-78372028D01*
X47787480Y-78411850D01*
X47807301Y-78545128D01*
X47793342Y-78609626D01*
X47828598Y-78781166D01*
X47875248Y-78893999D01*
X47915789Y-79102721D01*
X47945951Y-79381276D01*
X48009698Y-79665088D01*
X48105202Y-79818621D01*
X48242249Y-79864721D01*
X48377294Y-79873401D01*
X48560389Y-79911923D01*
X48567821Y-79914670D01*
X48747785Y-79904705D01*
X48887991Y-79742022D01*
X48984435Y-79438990D01*
X49033112Y-79007977D01*
X49030018Y-78461353D01*
X49021023Y-78308495D01*
X48987992Y-78006055D01*
X48935295Y-77827166D01*
X48854911Y-77738739D01*
X48783244Y-77672762D01*
X48760389Y-77533497D01*
X48761191Y-77531383D01*
X48752154Y-77440844D01*
X48608706Y-77429903D01*
X48478604Y-77421213D01*
X48397497Y-77324721D01*
X48392898Y-77273674D01*
X48376330Y-77091888D01*
X48352525Y-77039743D01*
X54477541Y-77039743D01*
X54547231Y-77070721D01*
X54592053Y-77064611D01*
X54600325Y-77028783D01*
X64482568Y-77028783D01*
X64521317Y-77367054D01*
X64610366Y-77553060D01*
X64790167Y-77649910D01*
X64928980Y-77689476D01*
X65108015Y-77798076D01*
X65188962Y-77862361D01*
X65332356Y-77917388D01*
X65365488Y-77924257D01*
X65507893Y-78036108D01*
X65680777Y-78254364D01*
X65842187Y-78510054D01*
X65860658Y-78539314D01*
X66024055Y-78851251D01*
X66147485Y-79150464D01*
X66207465Y-79397244D01*
X66296062Y-79673790D01*
X66495433Y-79847083D01*
X66781564Y-79882810D01*
X66976354Y-79843334D01*
X67101326Y-79788210D01*
X67117259Y-79754570D01*
X67153323Y-79579872D01*
X67176333Y-79397352D01*
X69297320Y-79397352D01*
X69307453Y-79497832D01*
X69332919Y-79511078D01*
X69363897Y-79441388D01*
X69357787Y-79396565D01*
X69307453Y-79384943D01*
X69297320Y-79397352D01*
X67176333Y-79397352D01*
X67188883Y-79297800D01*
X67218141Y-78949956D01*
X67219235Y-78933242D01*
X67238286Y-78543983D01*
X67232382Y-78280177D01*
X67197898Y-78100743D01*
X67131212Y-77964597D01*
X67036250Y-77794684D01*
X66993231Y-77663544D01*
X66956263Y-77568150D01*
X66807118Y-77387846D01*
X66578928Y-77179948D01*
X66309978Y-76978397D01*
X66038552Y-76817136D01*
X65950987Y-76774218D01*
X65730011Y-76684682D01*
X65571076Y-76671098D01*
X65410657Y-76724048D01*
X65313413Y-76764639D01*
X65177905Y-76779868D01*
X65080378Y-76693299D01*
X65041062Y-76645890D01*
X64933463Y-76601274D01*
X64757405Y-76659220D01*
X64581942Y-76785929D01*
X64488504Y-77014276D01*
X64482568Y-77028783D01*
X54600325Y-77028783D01*
X54603675Y-77014276D01*
X54591266Y-77004143D01*
X54490786Y-77014276D01*
X54477541Y-77039743D01*
X48352525Y-77039743D01*
X48351965Y-77038516D01*
X48225064Y-76986054D01*
X48125327Y-76966393D01*
X47949898Y-76867026D01*
X47837061Y-76806459D01*
X47594049Y-76730240D01*
X47294975Y-76670195D01*
X47170117Y-76652564D01*
X46903279Y-76630457D01*
X46729400Y-76653810D01*
X46595359Y-76726929D01*
X46574867Y-76742805D01*
X46478281Y-76852061D01*
X46448624Y-77005105D01*
X37859324Y-77005105D01*
X37852910Y-76966098D01*
X37718676Y-76769558D01*
X37485103Y-76624003D01*
X37201147Y-76565538D01*
X37170494Y-76565195D01*
X36997076Y-76549269D01*
X36947819Y-76473822D01*
X36982348Y-76287554D01*
X36983058Y-76284615D01*
X37026351Y-75998955D01*
X37037475Y-75698518D01*
X37036687Y-75651771D01*
X37058738Y-75443247D01*
X37113175Y-75330557D01*
X37143604Y-75279906D01*
X37062538Y-75175440D01*
X36983450Y-75062120D01*
X36976630Y-74862374D01*
X37061955Y-74665231D01*
X37178500Y-74573054D01*
X47096564Y-74573054D01*
X47138897Y-74615388D01*
X47181231Y-74573054D01*
X47138897Y-74530721D01*
X47096564Y-74573054D01*
X37178500Y-74573054D01*
X37222459Y-74538286D01*
X37264888Y-74526286D01*
X37492104Y-74502126D01*
X37763657Y-74511172D01*
X37823964Y-74516142D01*
X38080941Y-74506369D01*
X38245078Y-74449224D01*
X38377223Y-74392538D01*
X38556938Y-74452320D01*
X38712930Y-74510619D01*
X38781073Y-74458195D01*
X38811912Y-74415079D01*
X38936665Y-74366673D01*
X39073502Y-74376039D01*
X39137897Y-74446054D01*
X39141343Y-74469260D01*
X39227561Y-74530721D01*
X39258185Y-74524073D01*
X39264897Y-74446054D01*
X39268392Y-74439201D01*
X39389930Y-74418671D01*
X39679491Y-74401248D01*
X40136089Y-74386949D01*
X40758741Y-74375795D01*
X41546462Y-74367803D01*
X42498270Y-74362995D01*
X43613179Y-74361388D01*
X44017379Y-74361502D01*
X44975684Y-74362992D01*
X45780162Y-74366421D01*
X46442064Y-74372055D01*
X46972640Y-74380164D01*
X47383141Y-74391016D01*
X47684818Y-74404879D01*
X47888920Y-74422022D01*
X48006700Y-74442713D01*
X48049407Y-74467221D01*
X48104298Y-74529194D01*
X48218338Y-74463043D01*
X48258416Y-74438606D01*
X48473388Y-74392479D01*
X48775985Y-74393866D01*
X49109958Y-74439763D01*
X49419055Y-74527166D01*
X49509204Y-74554345D01*
X49626215Y-74573054D01*
X49788695Y-74599033D01*
G37*
G36*
X26373543Y-174986349D02*
G01*
X27215435Y-174989803D01*
X31512269Y-175013234D01*
X31512269Y-175310022D01*
X31513255Y-175360048D01*
X31610093Y-175824687D01*
X31848552Y-176272320D01*
X32204867Y-176668267D01*
X32655269Y-176977848D01*
X32985687Y-177095761D01*
X33448789Y-177154763D01*
X33919179Y-177125420D01*
X34321786Y-177006446D01*
X34452754Y-176938297D01*
X34563791Y-176847524D01*
X34644731Y-176709811D01*
X34717455Y-176485617D01*
X34803845Y-176135403D01*
X34837662Y-175994834D01*
X34916737Y-175687977D01*
X34981740Y-175464874D01*
X35021161Y-175366258D01*
X35040712Y-175388320D01*
X35060574Y-175535034D01*
X35068269Y-175777761D01*
X35068269Y-176236372D01*
X35660935Y-176236372D01*
X36253602Y-176236372D01*
X36253602Y-175777761D01*
X36257785Y-175591715D01*
X36274547Y-175415040D01*
X36299753Y-175365300D01*
X36310268Y-175383871D01*
X36360388Y-175531576D01*
X36432002Y-175788158D01*
X36513291Y-176112280D01*
X36528403Y-176173908D01*
X36630238Y-176522757D01*
X36735008Y-176786081D01*
X36826974Y-176923188D01*
X36907183Y-176968062D01*
X37136041Y-177053430D01*
X37417779Y-177127658D01*
X37762466Y-177165101D01*
X38269427Y-177100737D01*
X38746937Y-176911837D01*
X39167260Y-176619280D01*
X39502659Y-176243946D01*
X39725399Y-175806716D01*
X39807743Y-175328470D01*
X39809602Y-175013234D01*
X44106435Y-174989803D01*
X44312868Y-174988745D01*
X45144726Y-174985879D01*
X45924558Y-174985369D01*
X46635607Y-174987085D01*
X47261116Y-174990898D01*
X47784328Y-174996676D01*
X48188484Y-175004291D01*
X48456828Y-175013610D01*
X48572602Y-175024505D01*
X48624327Y-175047756D01*
X48593046Y-175076034D01*
X48397469Y-175088005D01*
X48023398Y-175123337D01*
X47399386Y-175288125D01*
X46760839Y-175569629D01*
X46148614Y-175948579D01*
X45603568Y-176405706D01*
X45140991Y-176925315D01*
X44664217Y-177676272D01*
X44340533Y-178499302D01*
X44171113Y-179391958D01*
X44110064Y-180007545D01*
X43674333Y-179942292D01*
X43643280Y-179938040D01*
X43370298Y-179915102D01*
X42982927Y-179897768D01*
X42528229Y-179887662D01*
X42053269Y-179886406D01*
X41883554Y-179888232D01*
X41348170Y-179903894D01*
X40919958Y-179937375D01*
X40550305Y-179993667D01*
X40190602Y-180077766D01*
X39979738Y-180137991D01*
X39071573Y-180475351D01*
X38187735Y-180923012D01*
X37364200Y-181458232D01*
X36636942Y-182058270D01*
X36041935Y-182700383D01*
X35872445Y-182908575D01*
X35730962Y-183068649D01*
X35660935Y-183129914D01*
X35597695Y-183075730D01*
X35459747Y-182920780D01*
X35279935Y-182700383D01*
X35155247Y-182548486D01*
X34526272Y-181914129D01*
X33773412Y-181327137D01*
X32932642Y-180810251D01*
X32039936Y-180386213D01*
X31131269Y-180077766D01*
X31032099Y-180051968D01*
X30674501Y-179975890D01*
X30293793Y-179926267D01*
X29841364Y-179898104D01*
X29268602Y-179886406D01*
X29189638Y-179885929D01*
X28715125Y-179888750D01*
X28269018Y-179900107D01*
X27898278Y-179918389D01*
X27649868Y-179941983D01*
X27216468Y-180006926D01*
X27159552Y-179476316D01*
X27020253Y-178672627D01*
X26739155Y-177852535D01*
X26320007Y-177116662D01*
X25754935Y-176448039D01*
X25425479Y-176148666D01*
X24821798Y-175718672D01*
X24178484Y-175386436D01*
X23533399Y-175170150D01*
X22924402Y-175088005D01*
X22795568Y-175083298D01*
X22691488Y-175062496D01*
X22749269Y-175024505D01*
X22762322Y-175021742D01*
X22916406Y-175011215D01*
X23219021Y-175002294D01*
X23653409Y-174995111D01*
X24202813Y-174989794D01*
X24850474Y-174986475D01*
X25579637Y-174985283D01*
X26373543Y-174986349D01*
G37*
%TD*%
M02*
