M48
; DRILL file KiCad 10.0.1 date 2026-06-23T13:56:18
; FORMAT={-:-/ absolute / metric / decimal}
; #@! TF.CreationDate,2026-06-23T13:56:18+05:30
; #@! TF.GenerationSoftware,Kicad,Pcbnew,10.0.1
; #@! TF.FileFunction,Plated,1,2,PTH
FMAT,2
METRIC
; #@! TA.AperFunction,Plated,PTH,ViaDrill
T1C0.300
; #@! TA.AperFunction,Plated,PTH,ComponentDrill
T2C0.800
; #@! TA.AperFunction,Plated,PTH,ComponentDrill
T3C1.000
; #@! TA.AperFunction,Plated,PTH,ComponentDrill
T4C1.500
; #@! TA.AperFunction,Plated,PTH,ComponentDrill
T5C2.000
%
G90
G05
T1
X80.445Y-138.29
X85.13Y-150.158
X85.414Y-93.426
X88.978Y-130.273
X88.978Y-132.106
X89.376Y-127.318
X91.061Y-142.201
X97.963Y-132.077
X99.367Y-129.478
X102.918Y-96.532
X118.51Y-97.095
X120.094Y-94.484
X126.907Y-43.008
X127.279Y-70.508
X129.03Y-37.831
X130.154Y-90.753
X136.654Y-151.16
X221.724Y-91.269
X222.327Y-113.474
X238.504Y-95.561
X240.234Y-64.032
T2
X45.735Y-154.276
X45.735Y-157.826
X45.735Y-161.376
X45.735Y-164.926
X45.735Y-168.476
X53.355Y-154.276
X53.355Y-157.826
X53.355Y-161.376
X53.355Y-164.926
X53.355Y-168.476
X56.505Y-154.276
X56.505Y-157.826
X56.505Y-161.376
X56.505Y-164.926
X56.505Y-168.476
X64.125Y-154.276
X64.125Y-157.826
X64.125Y-161.376
X64.125Y-164.926
X64.125Y-168.476
X67.275Y-154.276
X67.275Y-157.826
X67.275Y-161.376
X67.275Y-164.926
X67.275Y-168.476
X74.895Y-154.276
X74.895Y-157.826
X74.895Y-161.376
X74.895Y-164.926
X74.895Y-168.476
X82.505Y-154.426
X82.505Y-157.976
X82.505Y-161.526
X82.505Y-168.476
X90.125Y-154.426
X90.125Y-157.976
X90.125Y-161.526
X90.125Y-168.476
X93.275Y-154.426
X93.275Y-157.976
X93.275Y-161.526
X100.895Y-154.426
X100.895Y-157.976
X100.895Y-161.526
X209.265Y-152.599
X209.265Y-156.149
X209.265Y-159.699
X209.265Y-163.249
X209.575Y-170.149
X216.885Y-152.599
X216.885Y-156.149
X216.885Y-159.699
X216.885Y-163.249
X217.195Y-170.149
X220.035Y-152.599
X220.035Y-156.149
X220.035Y-159.699
X220.035Y-163.249
X227.655Y-152.599
X227.655Y-156.149
X227.655Y-159.699
X227.655Y-163.249
X230.805Y-152.599
X230.805Y-156.149
X230.805Y-159.699
X230.805Y-163.249
X238.425Y-152.599
X238.425Y-156.149
X238.425Y-159.699
X238.425Y-163.249
X246.075Y-169.649
X246.115Y-152.649
X246.115Y-156.199
X246.115Y-159.749
X246.115Y-163.299
X253.695Y-169.649
X253.735Y-152.649
X253.735Y-156.199
X253.735Y-159.749
X253.735Y-163.299
X256.885Y-152.649
X256.885Y-156.199
X256.885Y-159.749
X256.885Y-163.299
X264.505Y-152.649
X264.505Y-156.199
X264.505Y-159.749
X264.505Y-163.299
T3
X60.195Y-38.476
X62.735Y-38.476
X65.275Y-38.476
X67.815Y-38.476
X105.005Y-114.976
X105.005Y-117.476
X105.005Y-119.976
X119.505Y-114.976
X119.505Y-119.976
X129.505Y-53.996
X129.505Y-56.536
X129.505Y-59.076
X129.505Y-61.616
X129.505Y-64.156
X129.505Y-66.696
X129.505Y-69.236
X129.505Y-71.776
X129.505Y-74.316
X129.505Y-76.856
X129.505Y-79.396
X129.505Y-81.936
X129.505Y-84.476
X129.505Y-87.016
X129.505Y-89.556
X129.505Y-92.096
X129.505Y-94.636
X129.505Y-97.176
X129.505Y-99.716
X129.505Y-102.256
X147.285Y-53.996
X147.285Y-56.536
X147.285Y-59.076
X147.285Y-61.616
X147.285Y-64.156
X147.285Y-66.696
X147.285Y-69.236
X147.285Y-71.776
X147.285Y-74.316
X147.285Y-76.856
X147.285Y-79.396
X147.285Y-81.936
X147.285Y-84.476
X147.285Y-87.016
X147.285Y-89.556
X147.285Y-92.096
X147.285Y-94.636
X147.285Y-97.176
X147.285Y-99.716
X147.285Y-102.256
X160.185Y-53.169
X160.185Y-55.709
X160.185Y-58.249
X160.185Y-60.789
X160.185Y-63.329
X160.185Y-65.869
X160.185Y-68.409
X160.185Y-70.949
X160.185Y-73.489
X160.185Y-76.029
X160.185Y-78.569
X160.185Y-81.109
X160.185Y-83.649
X160.185Y-86.189
X160.185Y-88.729
X160.185Y-91.269
X160.185Y-93.809
X160.185Y-96.349
X160.185Y-98.889
X160.185Y-101.429
X177.965Y-53.169
X177.965Y-55.709
X177.965Y-58.249
X177.965Y-60.789
X177.965Y-63.329
X177.965Y-65.869
X177.965Y-68.409
X177.965Y-70.949
X177.965Y-73.489
X177.965Y-76.029
X177.965Y-78.569
X177.965Y-81.109
X177.965Y-83.649
X177.965Y-86.189
X177.965Y-88.729
X177.965Y-91.269
X177.965Y-93.809
X177.965Y-96.349
X177.965Y-98.889
X177.965Y-101.429
X185.385Y-116.249
X185.385Y-118.749
X185.385Y-121.249
X199.885Y-116.249
X199.885Y-121.249
X237.385Y-37.649
X239.925Y-37.649
X242.465Y-37.649
X245.005Y-37.649
T4
X50.03Y-135.701
X50.155Y-96.516
X50.155Y-115.926
X50.28Y-77.016
X56.38Y-133.161
X56.505Y-93.976
X56.505Y-113.386
X56.63Y-74.476
X69.485Y-135.656
X69.61Y-96.471
X69.61Y-115.881
X69.735Y-76.971
X75.835Y-133.116
X75.96Y-93.931
X75.96Y-113.341
X76.085Y-74.431
X88.98Y-135.861
X89.105Y-116.266
X89.23Y-96.581
X89.355Y-57.396
X89.355Y-76.806
X89.48Y-37.896
X95.33Y-133.321
X95.455Y-113.726
X95.58Y-94.041
X95.705Y-54.856
X95.705Y-74.266
X95.83Y-35.356
X109.005Y-96.581
X109.13Y-57.396
X109.13Y-76.806
X109.255Y-37.896
X110.07Y-156.531
X110.195Y-136.936
X115.355Y-94.041
X115.48Y-54.856
X115.48Y-74.266
X115.605Y-35.356
X116.42Y-153.991
X116.545Y-134.396
X129.525Y-156.486
X129.65Y-136.891
X135.875Y-153.946
X136.0Y-134.351
X169.995Y-135.609
X170.155Y-155.109
X176.345Y-133.069
X176.505Y-152.569
X189.655Y-135.609
X189.885Y-155.149
X190.075Y-96.829
X190.155Y-37.694
X190.155Y-57.329
X190.155Y-77.054
X196.005Y-133.069
X196.235Y-152.609
X196.425Y-94.289
X196.505Y-35.154
X196.505Y-54.789
X196.505Y-74.514
X209.55Y-116.014
X209.55Y-135.109
X209.63Y-96.829
X209.71Y-37.694
X209.71Y-57.329
X209.71Y-77.054
X215.9Y-113.474
X215.9Y-132.569
X215.98Y-94.289
X216.06Y-35.154
X216.06Y-54.789
X216.06Y-74.514
X229.455Y-136.189
X229.535Y-77.054
X229.535Y-96.689
X229.535Y-116.414
X235.805Y-133.649
X235.885Y-74.514
X235.885Y-94.149
X235.885Y-113.874
X249.23Y-136.189
X249.31Y-77.054
X249.31Y-96.689
X249.31Y-116.414
X255.58Y-133.649
X255.66Y-74.514
X255.66Y-94.149
X255.66Y-113.874
T5
X53.005Y-38.976
X53.005Y-60.976
X75.005Y-38.976
X75.005Y-60.976
X230.195Y-38.149
X230.195Y-60.149
X252.195Y-38.149
X252.195Y-60.149
T4
G00X111.855Y-111.876
M15
G01X113.155Y-111.876
M16
G05
G00X111.855Y-123.076
M15
G01X113.155Y-123.076
M16
G05
G00X192.235Y-113.149
M15
G01X193.535Y-113.149
M16
G05
G00X192.235Y-124.349
M15
G01X193.535Y-124.349
M16
G05
M30
