M48
; DRILL file KiCad 10.0.1 date 2026-06-24T13:17:53
; FORMAT={-:-/ absolute / metric / decimal}
; #@! TF.CreationDate,2026-06-24T13:17:53+05:30
; #@! TF.GenerationSoftware,Kicad,Pcbnew,10.0.1
; #@! TF.FileFunction,NonPlated,1,2,NPTH
FMAT,2
METRIC
; #@! TA.AperFunction,NonPlated,NPTH,ComponentDrill
T1C1.700
; #@! TA.AperFunction,NonPlated,NPTH,ComponentDrill
T2C1.850
; #@! TA.AperFunction,NonPlated,NPTH,ComponentDrill
T3C2.200
; #@! TA.AperFunction,NonPlated,NPTH,ComponentDrill
T4C4.000
%
G90
G05
T1
X27.29Y-117.0
X27.42Y-59.5
X27.42Y-78.5
X27.42Y-97.5
X27.42Y-136.5
X37.45Y-117.0
X37.58Y-59.5
X37.58Y-78.5
X37.58Y-97.5
X37.58Y-136.5
X46.51Y-117.0
X46.64Y-40.14
X46.64Y-59.5
X46.64Y-78.5
X46.64Y-97.5
X46.64Y-136.5
X56.67Y-117.0
X56.8Y-40.14
X56.8Y-59.5
X56.8Y-78.5
X56.8Y-97.5
X56.8Y-136.5
X65.79Y-155.0
X65.92Y-78.14
X65.92Y-97.5
X65.92Y-116.5
X65.92Y-135.5
X75.95Y-155.0
X76.08Y-78.14
X76.08Y-97.5
X76.08Y-116.5
X76.08Y-135.5
X85.03Y-78.14
X85.03Y-97.5
X85.03Y-116.5
X85.03Y-135.5
X85.42Y-155.0
X85.42Y-174.0
X95.19Y-78.14
X95.19Y-97.5
X95.19Y-116.5
X95.19Y-135.5
X95.58Y-155.0
X95.58Y-174.0
X166.92Y-77.5
X166.92Y-97.23
X166.92Y-116.87
X166.92Y-136.42
X166.92Y-155.88
X167.0Y-175.0
X177.08Y-77.5
X177.08Y-97.23
X177.08Y-116.87
X177.08Y-136.42
X177.08Y-155.88
X177.16Y-175.0
X186.2Y-77.5
X186.2Y-97.23
X186.2Y-116.87
X186.2Y-136.42
X186.2Y-155.88
X196.36Y-77.5
X196.36Y-97.23
X196.36Y-116.87
X196.36Y-136.42
X196.36Y-155.88
X206.5Y-38.77
X206.5Y-58.5
X206.5Y-78.14
X206.5Y-97.69
X206.5Y-117.15
X206.5Y-136.52
X216.66Y-38.77
X216.66Y-58.5
X216.66Y-78.14
X216.66Y-97.69
X216.66Y-117.15
X216.66Y-136.52
X226.0Y-117.0
X226.0Y-136.58
X226.1Y-58.46
X226.1Y-78.1
X226.1Y-97.65
X236.16Y-117.0
X236.16Y-136.58
X236.26Y-58.46
X236.26Y-78.1
X236.26Y-97.65
T2
X111.465Y-35.18
X116.315Y-35.18
X146.965Y-35.14
X151.815Y-35.14
T3
X111.165Y-32.15
X116.615Y-32.15
X146.665Y-32.11
X152.115Y-32.11
T4
X32.37Y-117.0
X32.5Y-59.5
X32.5Y-78.5
X32.5Y-97.5
X32.5Y-136.5
X51.59Y-117.0
X51.72Y-40.14
X51.72Y-59.5
X51.72Y-78.5
X51.72Y-97.5
X51.72Y-136.5
X70.87Y-155.0
X71.0Y-78.14
X71.0Y-97.5
X71.0Y-116.5
X71.0Y-135.5
X90.11Y-78.14
X90.11Y-97.5
X90.11Y-116.5
X90.11Y-135.5
X90.5Y-155.0
X90.5Y-174.0
X172.0Y-77.5
X172.0Y-97.23
X172.0Y-116.87
X172.0Y-136.42
X172.0Y-155.88
X172.08Y-175.0
X191.28Y-77.5
X191.28Y-97.23
X191.28Y-116.87
X191.28Y-136.42
X191.28Y-155.88
X211.58Y-38.77
X211.58Y-58.5
X211.58Y-78.14
X211.58Y-97.69
X211.58Y-117.15
X211.58Y-136.52
X231.08Y-117.0
X231.08Y-136.58
X231.18Y-58.46
X231.18Y-78.1
X231.18Y-97.65
M30
